<svg width="65" height="64" viewBox="0 0 65 64" fill="none" xmlns="http://www.w3.org/2000/svg">
<path fill-rule="evenodd" clip-rule="evenodd" d="M12.8507 41.0663L17.9216 46.1371C18.7234 45.5028 19.5225 44.9159 20.0449 44.5462L25.4056 44.5258C25.6691 46.0326 26.3691 47.5722 27.745 48.9482C32.0458 53.249 37.2494 51.1575 39.3136 49.5742C40.5385 50.7991 45.9826 50.7991 48.7999 47.9818C51.0538 45.728 51.5083 43.241 51.4539 42.2792C51.4539 42.2792 52.9374 41.5851 54.3937 40.1288C57.8997 36.6228 56.3535 30.7378 54.5978 28.9821C55.7547 27.8252 56.163 22.5445 53.0463 19.4277C51.2824 17.6639 49.553 17.0777 48.9088 17.0051C49.3534 15.3719 49.9432 11.806 46.6359 8.49878C42.5746 4.4375 37.567 6.30755 35.5708 7.75022C30.0941 1.79442 24.3606 5.05088 22.1784 7.42358C20.6632 7.06064 16.9766 6.99078 14.3526 9.61482C11.7286 12.2389 11.5534 15.4626 11.7939 16.7465C6.78536 21.7551 9.49378 27.2944 11.3311 29.1318C12.801 30.6017 14.3481 31.2051 14.9378 31.323C15.0331 32.4799 15.6864 34.6847 15.9314 35.338C16.1274 35.8606 16.6391 36.4359 16.8705 36.6582C16.0843 37.5621 14.4251 39.4227 12.8507 41.0663ZM18.8681 35.0148L20.0964 31.3922C19.3876 31.6087 18.4251 31.7989 17.3877 31.7585C17.4057 32.4691 17.7277 34.106 18.8681 35.0148ZM21.2494 31.9218C20.5655 33.6929 19.5094 37.0106 20.1778 37.6789C20.7179 38.2191 22.6341 37.1259 24.1235 36.0956C22.8953 35.1304 21.7265 33.7492 21.2494 31.9218ZM25.9328 37.236C24.9255 37.6413 23.064 38.5764 21.7701 39.8702C20.1657 41.4746 22.2412 42.0912 25.3014 42.3987C25.4431 40.3857 26.2218 38.6251 26.9692 37.6653C26.6698 37.5676 26.316 37.4248 25.9328 37.236Z" fill="url(#paint0_linear_292_6848)"/>
<path d="M10.2708 49.9073C10.2781 49.2879 10.2719 48.6031 10.2567 47.8978H17.428C17.3201 48.8224 17.2384 49.7765 17.2384 50.5232C17.2384 52.1708 18.3035 57.2791 18.836 59.6273H8.5C9.07743 57.478 10.24 52.5249 10.2708 49.9073Z" fill="url(#paint1_linear_292_6848)"/>
<defs>
<linearGradient id="paint0_linear_292_6848" x1="29.0405" y1="59.6273" x2="29.0405" y2="4.37305" gradientUnits="userSpaceOnUse">
<stop stop-color="#C87F57"/>
<stop offset="0.55" stop-color="#84421D"/>
</linearGradient>
<linearGradient id="paint1_linear_292_6848" x1="29.0405" y1="59.6273" x2="29.0405" y2="4.37305" gradientUnits="userSpaceOnUse">
<stop stop-color="#C87F57"/>
<stop offset="0.55" stop-color="#84421D"/>
</linearGradient>
</defs>
</svg>
