<svg width="49" height="56" viewBox="0 0 49 56" fill="none" xmlns="http://www.w3.org/2000/svg">
<path fill-rule="evenodd" clip-rule="evenodd" d="M4.85074 37.0663L9.9216 42.1371C10.7234 41.5028 11.5225 40.9159 12.0449 40.5462L17.4056 40.5258C17.6691 42.0326 18.3691 43.5722 19.745 44.9482C24.0458 49.249 29.2494 47.1575 31.3136 45.5742C32.5385 46.7991 37.9826 46.7991 40.7999 43.9818C43.0538 41.728 43.5083 39.241 43.4539 38.2792C43.4539 38.2792 44.9374 37.5851 46.3937 36.1288C49.8997 32.6228 48.3535 26.7378 46.5978 24.9821C47.7547 23.8252 48.163 18.5445 45.0463 15.4277C43.2824 13.6639 41.553 13.0777 40.9088 13.0051C41.3534 11.3719 41.9432 7.80604 38.6359 4.49878C34.5746 0.437505 29.567 2.30755 27.5708 3.75022C22.0941 -2.20558 16.3606 1.05088 14.1784 3.42358C12.6632 3.06064 8.97664 2.99078 6.3526 5.61482C3.72857 8.23885 3.55345 11.4626 3.79389 12.7465C-1.21464 17.7551 1.49378 23.2944 3.33115 25.1318C4.80105 26.6017 6.34806 27.2051 6.93784 27.323C7.03311 28.4799 7.6864 30.6847 7.93138 31.338C8.12737 31.8606 8.63911 32.4359 8.87048 32.6582C8.08429 33.5621 6.42506 35.4227 4.85074 37.0663ZM10.8681 31.0148L12.0964 27.3922C11.3876 27.6087 10.4251 27.7989 9.38767 27.7585C9.40566 28.4691 9.72769 30.106 10.8681 31.0148ZM13.2494 27.9218C12.5655 29.6929 11.5094 33.0106 12.1778 33.6789C12.7179 34.2191 14.6341 33.1259 16.1235 32.0956C14.8953 31.1304 13.7265 29.7492 13.2494 27.9218ZM17.9328 33.236C16.9255 33.6413 15.064 34.5764 13.7701 35.8702C12.1657 37.4746 14.2412 38.0912 17.3014 38.3987C17.4431 36.3857 18.2218 34.6251 18.9692 33.6653C18.6698 33.5676 18.316 33.4248 17.9328 33.236Z" fill="url(#paint0_linear_311_5755)"/>
<path d="M2.27078 45.9073C2.27807 45.2879 2.27185 44.6031 2.25666 43.8978H9.42799C9.32014 44.8224 9.23844 45.7765 9.23844 46.5232C9.23844 48.1708 10.3035 53.2791 10.836 55.6273H0.5C1.07743 53.478 2.23999 48.5249 2.27078 45.9073Z" fill="url(#paint1_linear_311_5755)"/>
<defs>
<linearGradient id="paint0_linear_311_5755" x1="21.0405" y1="55.6273" x2="21.0405" y2="0.373047" gradientUnits="userSpaceOnUse">
<stop stop-color="#C87F57"/>
<stop offset="0.55" stop-color="#84421D"/>
</linearGradient>
<linearGradient id="paint1_linear_311_5755" x1="21.0405" y1="55.6273" x2="21.0405" y2="0.373047" gradientUnits="userSpaceOnUse">
<stop stop-color="#C87F57"/>
<stop offset="0.55" stop-color="#84421D"/>
</linearGradient>
</defs>
</svg>
