<svg width="65" height="64" viewBox="0 0 65 64" fill="none" xmlns="http://www.w3.org/2000/svg">
<mask id="mask0_233_3970" style="mask-type:alpha" maskUnits="userSpaceOnUse" x="0" y="0" width="65" height="64">
<rect x="0.5" width="64" height="64" fill="#D9D9D9"/>
</mask>
<g mask="url(#mask0_233_3970)">
<path d="M11.1665 37.3333C11.1665 32.6667 12.2776 28.5111 14.4998 24.8667C16.7221 21.2222 19.1665 18.1556 21.8332 15.6667C24.4998 13.1778 26.9443 11.2778 29.1665 9.96667L32.4998 8V16.8C32.4998 18.4444 33.0554 19.7444 34.1665 20.7C35.2776 21.6556 36.5221 22.1333 37.8998 22.1333C38.6554 22.1333 39.3776 21.9778 40.0665 21.6667C40.7554 21.3556 41.3887 20.8444 41.9665 20.1333L43.1665 18.6667C46.3665 20.5333 48.9443 23.1222 50.8998 26.4333C52.8554 29.7444 53.8332 33.3778 53.8332 37.3333C53.8332 41.2444 52.8776 44.8111 50.9665 48.0333C49.0554 51.2556 46.5443 53.8 43.4332 55.6667C44.1887 54.6 44.7776 53.4333 45.1998 52.1667C45.6221 50.9 45.8332 49.5556 45.8332 48.1333C45.8332 46.3556 45.4998 44.6778 44.8332 43.1C44.1665 41.5222 43.2109 40.1111 41.9665 38.8667L32.4998 29.6L23.0998 38.8667C21.8109 40.1556 20.8332 41.5778 20.1665 43.1333C19.4998 44.6889 19.1665 46.3556 19.1665 48.1333C19.1665 49.5556 19.3776 50.9 19.7998 52.1667C20.2221 53.4333 20.8109 54.6 21.5665 55.6667C18.4554 53.8 15.9443 51.2556 14.0332 48.0333C12.1221 44.8111 11.1665 41.2444 11.1665 37.3333ZM32.4998 37.0667L38.1665 42.6C38.9221 43.3556 39.4998 44.2 39.8998 45.1333C40.2998 46.0667 40.4998 47.0667 40.4998 48.1333C40.4998 50.3111 39.7221 52.1667 38.1665 53.7C36.6109 55.2333 34.7221 56 32.4998 56C30.2776 56 28.3887 55.2333 26.8332 53.7C25.2776 52.1667 24.4998 50.3111 24.4998 48.1333C24.4998 47.1111 24.6998 46.1222 25.0998 45.1667C25.4998 44.2111 26.0776 43.3556 26.8332 42.6L32.4998 37.0667Z" fill="url(#paint0_linear_233_3970)"/>
</g>
<defs>
<linearGradient id="paint0_linear_233_3970" x1="32.4998" y1="8" x2="32.4998" y2="56" gradientUnits="userSpaceOnUse">
<stop offset="0.545" stop-color="#FF1C1C"/>
<stop offset="1" stop-color="#F3B411"/>
</linearGradient>
</defs>
</svg>
