<svg width="43" height="48" viewBox="0 0 43 48" fill="none" xmlns="http://www.w3.org/2000/svg">
<path d="M0.166687 29.3333C0.166687 24.6667 1.2778 20.5111 3.50002 16.8667C5.72224 13.2222 8.16669 10.1556 10.8334 7.66667C13.5 5.17778 15.9445 3.27778 18.1667 1.96667L21.5 0V8.8C21.5 10.4444 22.0556 11.7444 23.1667 12.7C24.2778 13.6556 25.5222 14.1333 26.9 14.1333C27.6556 14.1333 28.3778 13.9778 29.0667 13.6667C29.7556 13.3556 30.3889 12.8444 30.9667 12.1333L32.1667 10.6667C35.3667 12.5333 37.9445 15.1222 39.9 18.4333C41.8556 21.7444 42.8334 25.3778 42.8334 29.3333C42.8334 33.2444 41.8778 36.8111 39.9667 40.0333C38.0556 43.2556 35.5445 45.8 32.4334 47.6667C33.1889 46.6 33.7778 45.4333 34.2 44.1667C34.6222 42.9 34.8334 41.5556 34.8334 40.1333C34.8334 38.3556 34.5 36.6778 33.8334 35.1C33.1667 33.5222 32.2111 32.1111 30.9667 30.8667L21.5 21.6L12.1 30.8667C10.8111 32.1556 9.83335 33.5778 9.16669 35.1333C8.50002 36.6889 8.16669 38.3556 8.16669 40.1333C8.16669 41.5556 8.3778 42.9 8.80002 44.1667C9.22224 45.4333 9.81113 46.6 10.5667 47.6667C7.45558 45.8 4.94447 43.2556 3.03335 40.0333C1.12224 36.8111 0.166687 33.2444 0.166687 29.3333ZM21.5 29.0667L27.1667 34.6C27.9222 35.3556 28.5 36.2 28.9 37.1333C29.3 38.0667 29.5 39.0667 29.5 40.1333C29.5 42.3111 28.7222 44.1667 27.1667 45.7C25.6111 47.2333 23.7222 48 21.5 48C19.2778 48 17.3889 47.2333 15.8334 45.7C14.2778 44.1667 13.5 42.3111 13.5 40.1333C13.5 39.1111 13.7 38.1222 14.1 37.1667C14.5 36.2111 15.0778 35.3556 15.8334 34.6L21.5 29.0667Z" fill="url(#paint0_linear_311_6160)"/>
<defs>
<linearGradient id="paint0_linear_311_6160" x1="21.5" y1="0" x2="21.5" y2="48" gradientUnits="userSpaceOnUse">
<stop offset="0.545" stop-color="#FF1C1C"/>
<stop offset="1" stop-color="#F3B411"/>
</linearGradient>
</defs>
</svg>
