<svg width="306" height="56" viewBox="0 0 306 56" fill="none" xmlns="http://www.w3.org/2000/svg">
<path d="M51.8925 0.363604C50.8691 0.363604 50.3574 0.872649 49.9919 1.96346C47.3602 8.7265 44.6554 15.4168 41.8775 22.398C41.1465 21.8162 40.5616 21.3072 39.9768 20.8709C31.7893 14.2533 23.6018 7.70841 15.3412 1.09081C14.5371 0.436325 13.733 0.0727208 13.002 0C12.7827 0 12.6364 0 12.4171 0H3.42551C-0.887548 0 -1.25303 6.47215 3.13312 6.76304C3.35243 6.76304 3.57171 6.76304 3.79102 6.76304H10.0047C12.344 12.2898 14.6102 17.8166 16.9495 23.4161C21.1163 33.4516 25.2832 43.4143 29.5231 53.4498C29.8887 54.3952 30.839 55.3405 31.7162 55.7041C33.69 56.5768 35.2251 55.486 36.3217 52.868C42.6816 37.5967 49.1146 22.3253 55.4746 7.05392C56.3518 5.01774 57.1559 2.98155 58.1062 0.727208L58.2524 0.363604H51.8925ZM39.2458 28.8702C37.272 33.597 35.4445 38.3239 33.4707 43.0507L32.8858 44.4324L32.6665 45.0142L32.5203 44.7233L32.3742 44.287C28.2804 34.3242 24.2597 24.4342 20.2391 14.5442L19.5812 13.017L19.435 12.5807L19.8005 12.8716C20.2391 13.1625 20.6046 13.4534 21.0433 13.7442C26.8915 18.3256 32.7396 22.9071 38.5147 27.4885C38.9534 27.8521 39.5382 27.9975 39.2458 28.8702Z" fill="url(#paint0_linear_292_7157)"/>
<path d="M71.757 40.8697C70.1314 40.8697 68.6616 40.5914 67.3478 40.0347C66.0562 39.478 65.0319 38.6763 64.2747 37.6297C63.5176 36.5831 63.1279 35.3472 63.1057 33.922H68.1161C68.1829 34.8795 68.5169 35.6367 69.1181 36.1934C69.7417 36.7501 70.5879 37.0284 71.6567 37.0284C72.7479 37.0284 73.6052 36.7723 74.2288 36.2602C74.8523 35.7257 75.164 35.0354 75.164 34.1892C75.164 33.4989 74.9525 32.931 74.5294 32.4857C74.1063 32.0403 73.5718 31.6951 72.926 31.4502C72.3025 31.183 71.4341 30.8935 70.3206 30.5817C68.8064 30.1363 67.5705 29.7021 66.6129 29.279C65.6777 28.8336 64.8649 28.1767 64.1745 27.3083C63.5065 26.4175 63.1725 25.2373 63.1725 23.7676C63.1725 22.3869 63.5176 21.1844 64.2079 20.1601C64.8983 19.1357 65.8669 18.3563 67.114 17.8219C68.361 17.2652 69.7862 16.9868 71.3895 16.9868C73.7945 16.9868 75.743 17.5769 77.235 18.7572C78.7493 19.9151 79.5843 21.5407 79.7402 23.634H74.5962C74.5516 22.8323 74.2065 22.1754 73.5607 21.6632C72.9372 21.1288 72.1021 20.8615 71.0555 20.8615C70.1425 20.8615 69.4076 21.0953 68.8509 21.563C68.3165 22.0306 68.0493 22.7098 68.0493 23.6005C68.0493 24.2241 68.2497 24.7474 68.6505 25.1705C69.0736 25.5713 69.5858 25.9053 70.187 26.1726C70.8105 26.4175 71.679 26.707 72.7924 27.041C74.3067 27.4864 75.5426 27.9318 76.5001 28.3771C77.4577 28.8225 78.2816 29.4906 78.9719 30.3813C79.6623 31.272 80.0074 32.4411 80.0074 33.8886C80.0074 35.1356 79.6845 36.2936 79.0387 37.3625C78.393 38.4313 77.4465 39.2887 76.1995 39.9345C74.9525 40.558 73.4716 40.8697 71.757 40.8697Z" fill="#343437"/>
<path d="M109.481 17.3208V40.6359H104.805V25.4711L98.5584 40.6359H95.0178L88.7381 25.4711V40.6359H84.0617V17.3208H89.3727L96.7881 34.6568L104.204 17.3208H109.481Z" fill="#343437"/>
<path d="M128.401 36.1934H119.115L117.578 40.6359H112.668L121.052 17.2874H126.497L134.881 40.6359H129.937L128.401 36.1934ZM127.132 32.4523L123.758 22.6987L120.384 32.4523H127.132Z" fill="#343437"/>
<path d="M150.04 40.6359L144.896 31.5504H142.691V40.6359H138.015V17.3208H146.766C148.57 17.3208 150.107 17.6437 151.376 18.2895C152.645 18.913 153.592 19.7704 154.215 20.8615C154.861 21.9304 155.184 23.1329 155.184 24.469C155.184 26.0055 154.738 27.3973 153.848 28.6444C152.957 29.8691 151.632 30.7153 149.873 31.183L155.451 40.6359H150.04ZM142.691 28.0431H146.599C147.869 28.0431 148.815 27.7425 149.439 27.1412C150.062 26.5177 150.374 25.6604 150.374 24.5692C150.374 23.5003 150.062 22.6764 149.439 22.0974C148.815 21.4962 147.869 21.1956 146.599 21.1956H142.691V28.0431Z" fill="#343437"/>
<path d="M175.28 17.3208V21.0953H169.067V40.6359H164.39V21.0953H158.178V17.3208H175.28Z" fill="#343437"/>
<path d="M201.048 17.3208V21.0953H191.327V27.0744H198.776V30.7821H191.327V40.6359H186.651V17.3208H201.048Z" fill="#343437"/>
<path d="M215.186 40.8697C213.004 40.8697 211 40.3576 209.174 39.3332C207.348 38.3089 205.9 36.8948 204.831 35.0911C203.762 33.2651 203.228 31.2052 203.228 28.9116C203.228 26.6402 203.762 24.6026 204.831 22.7989C205.9 20.9729 207.348 19.5477 209.174 18.5233C211 17.499 213.004 16.9868 215.186 16.9868C217.391 16.9868 219.395 17.499 221.199 18.5233C223.025 19.5477 224.461 20.9729 225.508 22.7989C226.576 24.6026 227.111 26.6402 227.111 28.9116C227.111 31.2052 226.576 33.2651 225.508 35.0911C224.461 36.8948 223.025 38.3089 221.199 39.3332C219.373 40.3576 217.368 40.8697 215.186 40.8697ZM215.186 36.6944C216.589 36.6944 217.825 36.3827 218.894 35.7591C219.963 35.1133 220.798 34.2003 221.399 33.0201C222 31.8399 222.301 30.4704 222.301 28.9116C222.301 27.3528 222 25.9944 221.399 24.8365C220.798 23.6562 219.963 22.7543 218.894 22.1308C217.825 21.5073 216.589 21.1956 215.186 21.1956C213.783 21.1956 212.536 21.5073 211.445 22.1308C210.376 22.7543 209.541 23.6562 208.94 24.8365C208.339 25.9944 208.038 27.3528 208.038 28.9116C208.038 30.4704 208.339 31.8399 208.94 33.0201C209.541 34.2003 210.376 35.1133 211.445 35.7591C212.536 36.3827 213.783 36.6944 215.186 36.6944Z" fill="#343437"/>
<path d="M242.615 40.6359L237.471 31.5504H235.266V40.6359H230.59V17.3208H239.341C241.145 17.3208 242.682 17.6437 243.951 18.2895C245.22 18.913 246.167 19.7704 246.79 20.8615C247.436 21.9304 247.759 23.1329 247.759 24.469C247.759 26.0055 247.314 27.3973 246.423 28.6444C245.532 29.8691 244.207 30.7153 242.448 31.183L248.026 40.6359H242.615ZM235.266 28.0431H239.174C240.444 28.0431 241.39 27.7425 242.014 27.1412C242.637 26.5177 242.949 25.6604 242.949 24.5692C242.949 23.5003 242.637 22.6764 242.014 22.0974C241.39 21.4962 240.444 21.1956 239.174 21.1956H235.266V28.0431Z" fill="#343437"/>
<path d="M256.665 21.0953V26.9408H264.515V30.6485H256.665V36.828H265.517V40.6359H251.989V17.2874H265.517V21.0953H256.665Z" fill="#343437"/>
<path d="M277.816 40.8697C276.191 40.8697 274.721 40.5914 273.407 40.0347C272.116 39.478 271.091 38.6763 270.334 37.6297C269.577 36.5831 269.187 35.3472 269.165 33.922H274.176C274.242 34.8795 274.576 35.6367 275.178 36.1934C275.801 36.7501 276.647 37.0284 277.716 37.0284C278.807 37.0284 279.665 36.7723 280.288 36.2602C280.912 35.7257 281.223 35.0354 281.223 34.1892C281.223 33.4989 281.012 32.931 280.589 32.4857C280.166 32.0403 279.631 31.6951 278.986 31.4502C278.362 31.183 277.494 30.8935 276.38 30.5817C274.866 30.1363 273.63 29.7021 272.672 29.279C271.737 28.8336 270.924 28.1767 270.234 27.3083C269.566 26.4175 269.232 25.2373 269.232 23.7676C269.232 22.3869 269.577 21.1844 270.267 20.1601C270.958 19.1357 271.926 18.3563 273.173 17.8219C274.42 17.2652 275.846 16.9868 277.449 16.9868C279.854 16.9868 281.802 17.5769 283.294 18.7572C284.809 19.9151 285.644 21.5407 285.8 23.634H280.656C280.611 22.8323 280.266 22.1754 279.62 21.6632C278.997 21.1288 278.162 20.8615 277.115 20.8615C276.202 20.8615 275.467 21.0953 274.91 21.563C274.376 22.0306 274.109 22.7098 274.109 23.6005C274.109 24.2241 274.309 24.7474 274.71 25.1705C275.133 25.5713 275.645 25.9053 276.246 26.1726C276.87 26.4175 277.738 26.707 278.852 27.041C280.366 27.4864 281.602 27.9318 282.56 28.3771C283.517 28.8225 284.341 29.4906 285.031 30.3813C285.722 31.272 286.067 32.4411 286.067 33.8886C286.067 35.1356 285.744 36.2936 285.098 37.3625C284.452 38.4313 283.506 39.2887 282.259 39.9345C281.012 40.558 279.531 40.8697 277.816 40.8697Z" fill="#343437"/>
<path d="M305.987 17.3208V21.0953H299.775V40.6359H295.098V21.0953H288.885V17.3208H305.987Z" fill="#343437"/>
<defs>
<linearGradient id="paint0_linear_292_7157" x1="29.1325" y1="0" x2="9.77307" y2="50.9157" gradientUnits="userSpaceOnUse">
<stop stop-color="#68E86F"/>
<stop offset="0.435283" stop-color="#42C161"/>
<stop offset="1" stop-color="#159B58"/>
</linearGradient>
</defs>
</svg>
