<?xml version="1.0" standalone="no"?>
<!DOCTYPE svg PUBLIC "-//W3C//DTD SVG 20010904//EN"
 "http://www.w3.org/TR/2001/REC-SVG-20010904/DTD/svg10.dtd">
<svg version="1.0" xmlns="http://www.w3.org/2000/svg"
 width="1284.000000pt" height="1413.000000pt" viewBox="0 0 1284.000000 1413.000000"
 preserveAspectRatio="xMidYMid meet">

<g transform="translate(0.000000,1413.000000) scale(0.100000,-0.100000)"
fill="#000000" stroke="none">
<path d="M5501 13637 c-14 -6 -29 -25 -34 -40 -12 -36 7 -58 69 -82 36 -14 45
-21 42 -39 -4 -26 -47 -35 -60 -12 -10 17 -58 22 -58 6 0 -40 95 -72 136 -45
53 34 39 97 -26 116 -46 14 -65 32 -56 54 7 19 52 20 60 0 3 -8 15 -15 26 -15
31 0 25 37 -10 55 -35 18 -57 19 -89 2z"/>
<path d="M5670 13530 c0 -120 0 -121 23 -118 20 3 22 10 27 73 l5 70 29 -73
c21 -51 34 -72 45 -70 8 2 30 37 48 78 l32 75 1 -77 c0 -71 2 -78 20 -78 19 0
20 7 20 120 0 111 -1 120 -19 120 -25 0 -34 -13 -66 -90 -15 -36 -30 -69 -34
-73 -5 -4 -24 29 -44 75 -30 70 -39 83 -61 86 l-26 3 0 -121z"/>
<path d="M6006 13543 c-22 -59 -41 -114 -44 -120 -9 -26 38 -14 48 12 8 22 15
25 59 25 44 0 49 -3 55 -25 7 -29 46 -36 46 -7 -1 9 -18 62 -38 117 -32 88
-40 100 -62 103 -24 3 -28 -4 -64 -105z m88 -30 c7 -20 4 -23 -22 -23 -40 0
-43 6 -24 57 l17 45 11 -29 c6 -15 15 -38 18 -50z"/>
<path d="M6210 13529 c0 -119 0 -120 23 -117 19 3 22 10 25 51 2 26 7 47 12
47 5 0 21 -22 35 -50 20 -40 30 -50 50 -50 31 0 31 5 0 54 l-24 40 25 22 c43
41 27 97 -34 114 -20 5 -54 10 -74 10 l-38 0 0 -121z m115 46 c0 -27 -4 -30
-32 -33 -32 -3 -33 -2 -33 33 0 35 1 36 33 33 28 -3 32 -6 32 -33z"/>
<path d="M6417 13643 c-18 -17 -5 -33 28 -33 l35 0 0 -100 c0 -93 1 -100 20
-100 19 0 20 7 20 100 l0 100 30 0 c23 0 30 4 30 20 0 18 -7 20 -78 20 -43 0
-82 -3 -85 -7z"/>
<path d="M6700 13530 c0 -113 1 -120 20 -120 17 0 20 7 20 49 l0 50 37 3 c27
2 39 8 41 21 3 14 -4 17 -37 17 -39 0 -41 2 -41 30 0 29 1 30 50 30 43 0 50 3
50 20 0 18 -7 20 -70 20 l-70 0 0 -120z"/>
<path d="M6935 13641 c-74 -31 -92 -150 -30 -199 34 -27 89 -36 122 -20 37 18
73 74 73 113 0 75 -94 135 -165 106z m95 -51 c20 -20 28 -83 12 -106 -10 -15
-47 -34 -67 -34 -29 0 -65 46 -65 84 0 63 77 99 120 56z"/>
<path d="M7140 13531 c0 -113 1 -121 19 -121 17 0 20 8 23 47 2 25 8 48 13 50
6 1 21 -18 35 -45 17 -31 32 -48 48 -50 28 -4 28 7 1 53 l-22 36 21 22 c33 36
35 62 10 92 -19 22 -34 27 -86 32 l-62 6 0 -122z m116 55 c8 -35 -2 -46 -42
-46 -32 0 -34 2 -34 35 0 33 2 35 35 35 28 0 36 -4 41 -24z"/>
<path d="M7350 13530 l0 -120 65 0 c58 0 65 2 65 20 0 17 -7 20 -40 20 -38 0
-40 2 -40 30 0 28 3 30 35 30 28 0 35 4 35 20 0 16 -7 20 -35 20 -32 0 -35 2
-35 30 0 28 2 30 40 30 33 0 40 3 40 20 0 18 -7 20 -65 20 l-65 0 0 -120z"/>
<path d="M7562 13640 c-12 -5 -27 -21 -32 -36 -15 -37 8 -68 62 -86 35 -12 43
-19 43 -39 0 -29 -43 -40 -57 -15 -10 17 -58 22 -58 6 0 -20 38 -47 74 -54 46
-9 83 12 92 51 9 35 -5 55 -54 73 -51 19 -67 34 -59 54 8 20 53 21 61 1 3 -8
15 -15 26 -15 31 0 25 37 -10 55 -33 17 -54 18 -88 5z"/>
<path d="M7720 13630 c0 -16 7 -20 30 -20 l30 0 0 -101 c0 -98 0 -100 23 -97
21 3 22 8 25 101 l3 97 29 0 c23 0 30 4 30 20 0 18 -7 20 -85 20 -78 0 -85 -2
-85 -20z"/>
<path d="M5655 12880 c-3 -5 -1 -10 4 -10 6 0 11 5 11 10 0 6 -2 10 -4 10 -3
0 -8 -4 -11 -10z"/>
<path d="M5690 12830 c0 -33 4 -60 10 -60 6 0 10 27 10 60 0 33 -4 60 -10 60
-6 0 -10 -27 -10 -60z"/>
<path d="M6417 12879 c-9 -6 -17 -15 -17 -21 0 -9 3 -9 12 0 7 7 18 12 25 12
22 0 15 -35 -12 -60 -34 -32 -31 -40 13 -39 30 2 32 3 9 6 l-28 4 26 30 c14
17 25 37 25 44 0 21 -32 35 -53 24z"/>
<path d="M6790 12829 l0 -60 33 3 c27 2 33 8 35 31 4 32 -15 60 -35 53 -8 -3
-13 2 -13 14 0 11 -4 20 -10 20 -6 0 -10 -27 -10 -61z m54 -4 c7 -20 -4 -47
-18 -42 -17 6 -20 57 -3 57 8 0 17 -7 21 -15z"/>
<path d="M6937 12879 c-9 -6 -17 -15 -17 -21 0 -9 3 -9 12 0 7 7 18 12 25 12
22 0 15 -35 -12 -60 -34 -32 -31 -40 13 -39 30 2 32 3 9 6 l-28 4 26 30 c14
17 25 37 25 44 0 21 -32 35 -53 24z"/>
<path d="M7026 12877 c-13 -9 -17 -24 -14 -51 6 -76 68 -71 68 5 0 45 -26 67
-54 46z m40 -34 c11 -42 -19 -74 -39 -42 -13 21 -1 69 18 69 8 0 18 -12 21
-27z"/>
<path d="M7117 12879 c-9 -6 -17 -15 -17 -21 0 -9 3 -9 12 0 7 7 18 12 25 12
22 0 15 -35 -12 -60 -34 -32 -31 -40 13 -39 30 2 32 3 9 6 l-28 4 26 30 c14
17 25 37 25 44 0 21 -32 35 -53 24z"/>
<path d="M5470 12824 c0 -54 0 -55 27 -52 65 7 68 108 3 108 -30 0 -30 0 -30
-56z m58 13 c4 -31 -12 -57 -34 -57 -10 0 -14 14 -14 46 0 41 2 45 23 42 16
-2 23 -11 25 -31z"/>
<path d="M5851 12823 c1 -39 3 -50 8 -34 9 34 29 37 42 7 7 -14 16 -26 20 -26
5 0 4 11 -2 24 -7 15 -8 30 -1 42 15 29 3 44 -34 44 l-34 0 1 -57z m54 27 c0
-8 -10 -16 -22 -18 -18 -3 -23 2 -23 18 0 16 5 21 23 18 12 -2 22 -10 22 -18z"/>
<path d="M6271 12867 c-6 -8 -9 -21 -7 -28 2 -8 7 -26 10 -41 10 -45 21 -32
20 22 -1 56 -6 67 -23 47z"/>
<path d="M6500 12861 c-24 -46 -3 -97 37 -89 13 2 18 12 18 33 0 23 -5 31 -22
33 -13 2 -23 8 -23 13 0 5 10 14 23 19 l22 9 -22 0 c-12 1 -27 -8 -33 -18z
m45 -41 c8 -13 -14 -42 -26 -34 -5 3 -9 14 -9 25 0 20 24 26 35 9z"/>
<path d="M6620 12825 c0 -30 5 -55 10 -55 6 0 10 11 10 24 0 18 7 26 23 29
l22 4 -22 2 c-35 2 -31 39 5 44 22 3 20 4 -10 6 l-38 1 0 -55z"/>
<path d="M7206 12840 l-26 -40 24 0 c14 0 30 -8 35 -17 9 -16 10 -16 11 -1 0
9 6 19 13 21 10 4 10 6 0 6 -8 1 -13 15 -13 36 0 45 -11 44 -44 -5z m34 -10
c0 -11 -7 -20 -15 -20 -17 0 -18 2 -9 24 9 23 24 20 24 -4z"/>
<path d="M5583 12853 c-21 -8 -15 -22 7 -16 11 3 20 0 20 -6 0 -6 -9 -11 -19
-11 -11 0 -21 -6 -24 -12 -8 -24 5 -38 34 -38 26 0 29 3 29 33 0 18 -5 38 -12
45 -13 13 -16 13 -35 5z m27 -58 c-12 -15 -30 -12 -30 6 0 5 10 9 21 9 18 0
19 -2 9 -15z"/>
<path d="M5657 12853 c-11 -10 -8 -83 3 -83 6 0 10 20 10 45 0 46 -2 50 -13
38z"/>
<path d="M5731 12849 c-1 -9 4 -30 10 -48 9 -24 8 -35 -2 -48 -12 -14 -12 -16
1 -11 16 5 53 94 47 112 -4 10 -8 4 -24 -44 -3 -10 -10 -3 -18 20 -8 19 -14
28 -14 19z"/>
<path d="M5956 12844 c-19 -18 -21 -45 -4 -62 15 -15 45 -16 53 -2 4 6 -3 9
-16 7 -12 -1 -24 4 -26 11 -3 7 5 12 21 12 19 0 26 5 26 19 0 10 -7 22 -16 25
-21 8 -20 8 -38 -10z m39 -14 c3 -5 -3 -10 -14 -10 -12 0 -21 5 -21 10 0 6 6
10 14 10 8 0 18 -4 21 -10z"/>
<path d="M6030 12798 c0 -32 4 -58 10 -58 6 0 10 6 10 14 0 8 10 16 23 18 16
2 23 11 25 32 4 34 -10 51 -43 51 -24 1 -25 -2 -25 -57z m54 27 c8 -21 -3 -45
-20 -45 -9 0 -14 11 -14 30 0 32 23 42 34 15z"/>
<path d="M6138 12849 c-37 -21 -12 -85 29 -77 22 4 30 53 12 74 -13 16 -18 17
-41 3z m39 -29 c2 -8 -1 -22 -7 -30 -8 -13 -11 -13 -25 1 -9 9 -13 23 -9 33 8
20 38 17 41 -4z"/>
<path d="M6210 12813 c0 -24 5 -43 10 -43 6 0 10 16 10 35 0 19 5 35 10 35 6
0 10 4 10 8 0 4 -9 8 -20 8 -17 0 -20 -7 -20 -43z"/>
<path d="M6716 12844 c-19 -18 -21 -45 -4 -62 15 -15 45 -16 53 -2 4 6 -3 9
-16 7 -12 -1 -24 4 -26 11 -3 7 5 12 21 12 19 0 26 5 26 19 0 10 -7 22 -16 25
-21 8 -20 8 -38 -10z m39 -14 c3 -5 -3 -10 -14 -10 -12 0 -21 5 -21 10 0 6 6
10 14 10 8 0 18 -4 21 -10z"/>
<path d="M6320 12780 c0 -5 5 -10 11 -10 5 0 7 5 4 10 -3 6 -8 10 -11 10 -2 0
-4 -4 -4 -10z"/>
<path d="M6490 11550 c0 -83 1 -90 20 -90 19 0 20 7 20 90 0 83 -1 90 -20 90
-19 0 -20 -7 -20 -90z"/>
<path d="M5810 11545 c0 -69 3 -85 15 -85 10 0 15 11 15 35 0 33 2 35 35 35
24 0 35 5 35 15 0 10 -11 15 -35 15 -28 0 -35 4 -35 20 0 17 7 20 40 20 29 0
40 4 40 15 0 12 -13 15 -55 15 l-55 0 0 -85z"/>
<path d="M6407 11598 c-6 -25 5 -107 17 -126 10 -17 46 -15 46 3 0 8 -4 15
-10 15 -5 0 -10 16 -10 35 0 19 5 35 10 35 6 0 10 7 10 15 0 8 -4 15 -10 15
-5 0 -10 7 -10 15 0 24 -37 18 -43 -7z"/>
<path d="M5947 11572 c-21 -23 -22 -76 -1 -96 37 -37 104 -6 104 49 0 56 -67
86 -103 47z m58 -47 c0 -33 -28 -47 -39 -19 -10 25 3 56 22 52 11 -2 17 -13
17 -33z"/>
<path d="M6070 11524 c0 -50 3 -64 15 -64 11 0 15 11 15 40 0 29 5 43 20 52
31 20 24 36 -15 36 l-35 0 0 -64z"/>
<path d="M6166 11568 c-43 -62 21 -138 83 -99 17 11 5 32 -14 24 -8 -3 -23 -2
-32 3 -14 6 -8 9 22 13 35 5 40 9 37 30 -4 35 -20 51 -53 51 -17 0 -34 -8 -43
-22z m59 -18 c3 -5 -3 -10 -15 -10 -12 0 -18 5 -15 10 3 6 10 10 15 10 5 0 12
-4 15 -10z"/>
<path d="M6295 11574 c-21 -21 -15 -35 21 -54 16 -8 31 -16 33 -18 3 -1 0 -7
-6 -13 -8 -8 -13 -8 -17 0 -8 13 -46 15 -46 3 0 -32 68 -43 95 -16 21 22 15
36 -23 54 -42 20 -41 33 3 24 39 -7 43 -3 19 20 -20 21 -58 20 -79 0z"/>
<path d="M6568 11579 c-31 -18 -21 -32 17 -25 44 9 46 -7 3 -19 -24 -7 -34
-17 -36 -34 -5 -30 11 -39 66 -39 l44 0 -4 55 c-3 32 -11 59 -19 64 -18 12
-50 11 -71 -2z m52 -74 c0 -9 -9 -15 -21 -15 -18 0 -19 2 -9 15 7 8 16 15 21
15 5 0 9 -7 9 -15z"/>
<path d="M6703 11582 c-39 -25 -30 -107 14 -118 52 -14 80 17 74 81 -3 36 -55
58 -88 37z m52 -57 c0 -23 -4 -30 -20 -30 -21 0 -31 25 -21 51 11 28 41 12 41
-21z"/>
<path d="M6833 11583 c-25 -9 -15 -53 15 -65 36 -16 35 -15 27 -28 -5 -8 -10
-8 -20 0 -8 7 -22 10 -31 8 -17 -3 -17 -4 0 -20 20 -21 66 -24 84 -6 23 23 13
48 -23 64 -19 8 -35 17 -35 20 0 3 16 2 35 -2 36 -6 44 3 23 24 -12 12 -52 15
-75 5z"/>
<path d="M6534 11160 c-28 -11 -74 -67 -74 -91 0 -16 7 -19 45 -19 25 0 45 4
45 9 0 19 32 41 59 41 49 0 82 -65 49 -98 -9 -9 -1 -12 39 -12 55 0 63 8 63
61 0 44 -25 84 -64 103 -36 17 -126 21 -162 6z"/>
<path d="M6085 11122 c-99 -72 -155 -161 -155 -247 l0 -55 39 0 c35 0 46 7
102 66 l64 65 63 -65 c57 -59 68 -66 103 -66 l39 0 0 50 c0 58 -24 111 -68
153 -25 25 -30 26 -42 12 -17 -20 -63 -19 -83 3 -9 9 -17 39 -19 65 l-3 49
-40 -30z"/>
<path d="M6109 10839 l-24 -19 48 0 c26 0 47 2 47 4 0 2 -10 11 -23 19 -21 14
-25 13 -48 -4z"/>
<path d="M8032 9537 c-27 -29 -45 -84 -30 -93 5 -3 23 6 39 22 l29 28 30 -29
c24 -23 33 -27 39 -16 10 16 3 48 -13 59 -6 4 -20 7 -31 7 -13 0 -21 8 -23 23
-4 28 -13 28 -40 -1z"/>
<path d="M3850 9543 c-22 -9 -30 -24 -30 -58 0 -36 16 -55 45 -55 21 0 45 17
45 32 0 13 -28 9 -32 -4 -7 -20 -38 0 -38 25 0 31 22 51 37 36 6 -6 17 -9 23
-7 9 3 8 9 -4 21 -18 18 -22 19 -46 10z"/>
<path d="M4070 9489 l0 -60 33 3 c28 3 32 7 35 37 4 35 -12 55 -35 46 -8 -2
-13 4 -13 15 0 11 -4 20 -10 20 -6 0 -10 -27 -10 -61z m50 -20 c0 -10 -7 -19
-15 -19 -15 0 -21 31 -9 43 11 10 24 -3 24 -24z"/>
<path d="M4610 9529 c0 -11 -4 -17 -10 -14 -16 10 -40 -14 -40 -39 0 -30 18
-46 52 -46 28 0 28 1 28 60 0 47 -3 60 -15 60 -8 0 -15 -9 -15 -21z m0 -54 c0
-25 -14 -34 -24 -16 -8 12 3 41 15 41 5 0 9 -11 9 -25z"/>
<path d="M4655 9540 c-3 -5 1 -10 9 -10 9 0 16 5 16 10 0 6 -4 10 -9 10 -6 0
-13 -4 -16 -10z"/>
<path d="M4697 9527 c-10 -26 8 -92 26 -95 9 -2 17 1 17 7 0 6 -4 11 -10 11
-5 0 -10 11 -10 25 0 14 5 25 10 25 6 0 5 8 -2 20 -15 23 -24 25 -31 7z"/>
<path d="M8245 9531 c-4 -7 2 -10 16 -8 12 1 24 -4 26 -10 3 -7 -2 -13 -11
-13 -9 0 -16 -4 -16 -10 0 -5 7 -10 15 -10 8 0 15 -7 15 -16 0 -12 -6 -15 -25
-10 -14 4 -25 2 -25 -3 0 -16 20 -23 45 -17 22 6 24 11 22 54 -2 43 -4 47 -29
50 -14 2 -29 -2 -33 -7z"/>
<path d="M3934 9504 c-18 -15 -18 -15 9 -9 15 3 27 1 27 -4 0 -5 -10 -11 -22
-13 -15 -2 -23 -10 -23 -23 0 -16 8 -21 36 -23 l35 -3 -4 38 c-6 52 -24 64
-58 37z m36 -44 c0 -5 -7 -10 -16 -10 -8 0 -12 5 -9 10 3 6 10 10 16 10 5 0 9
-4 9 -10z"/>
<path d="M4010 9475 c0 -25 5 -45 10 -45 6 0 10 13 10 29 0 18 6 31 16 35 20
8 12 19 -16 23 -17 2 -20 -3 -20 -42z"/>
<path d="M4176 9507 c-12 -9 -17 -23 -14 -42 2 -26 7 -30 32 -30 36 0 52 33
30 64 -18 25 -24 26 -48 8z m34 -38 c0 -10 -7 -19 -15 -19 -15 0 -21 31 -9 43
11 10 24 -3 24 -24z"/>
<path d="M4250 9474 c0 -51 17 -60 22 -11 2 17 8 32 13 32 6 0 11 -15 13 -32
2 -18 7 -33 13 -33 11 0 13 79 2 81 -64 10 -63 10 -63 -37z"/>
<path d="M4351 9506 c-7 -8 -11 -27 -9 -43 4 -33 37 -43 59 -17 13 16 12 17
-13 10 -23 -5 -28 -3 -28 12 0 26 11 34 27 20 18 -15 29 -2 13 17 -16 19 -34
19 -49 1z"/>
<path d="M4420 9474 c0 -24 5 -44 10 -44 6 0 10 11 10 25 0 14 7 28 15 31 24
10 17 32 -10 32 -23 0 -25 -4 -25 -44z"/>
<path d="M4498 9509 c-11 -6 -18 -22 -18 -39 0 -23 5 -31 26 -36 14 -4 30 -2
37 5 8 8 5 11 -11 11 -12 0 -22 5 -22 10 0 6 9 10 20 10 22 0 26 20 8 38 -14
14 -18 14 -40 1z m27 -19 c3 -5 -1 -10 -10 -10 -9 0 -13 5 -10 10 3 6 8 10 10
10 2 0 7 -4 10 -10z"/>
<path d="M4656 9513 c-3 -3 -6 -24 -6 -45 0 -27 4 -38 15 -38 11 0 15 11 15
39 0 38 -10 57 -24 44z"/>
<path d="M4291 9015 c-1 -58 0 -61 24 -63 28 -2 46 27 37 60 -7 29 -17 21 -17
-14 0 -23 -5 -33 -15 -33 -19 0 -26 45 -8 56 9 6 9 9 1 9 -6 0 -14 10 -16 23
-2 12 -5 -5 -6 -38z"/>
<path d="M4830 9050 c0 -11 -6 -20 -12 -20 -10 0 -10 -2 0 -9 18 -11 11 -56
-8 -56 -10 0 -15 10 -15 33 0 35 -10 43 -17 14 -9 -33 9 -62 37 -60 24 2 25 6
25 60 0 32 -2 58 -5 58 -3 0 -5 -9 -5 -20z"/>
<path d="M5053 9010 c0 -36 2 -49 4 -30 3 19 10 38 16 42 9 6 9 8 0 8 -6 0
-14 10 -16 23 -2 12 -4 -7 -4 -43z"/>
<path d="M5404 9048 c-4 -7 -3 -8 4 -4 9 5 12 -8 12 -43 0 -28 5 -51 10 -51 6
0 10 25 10 55 0 41 -4 55 -14 55 -8 0 -18 -5 -22 -12z"/>
<path d="M8285 9051 c-4 -7 2 -10 16 -8 12 1 24 -4 26 -10 3 -7 -2 -13 -11
-13 -9 0 -16 -4 -16 -10 0 -5 7 -10 15 -10 8 0 15 -7 15 -16 0 -12 -6 -15 -25
-10 -14 4 -25 2 -25 -3 0 -16 20 -23 45 -17 22 6 24 11 22 54 -2 43 -4 47 -29
50 -14 2 -29 -2 -33 -7z"/>
<path d="M4912 9004 c2 -31 8 -49 18 -52 13 -5 13 -3 1 11 -8 11 -11 28 -8 47
4 16 2 32 -4 36 -7 4 -9 -11 -7 -42z"/>
<path d="M4064 9016 c-14 -37 23 -83 47 -59 9 9 7 11 -9 6 -27 -7 -40 21 -23
48 7 12 8 19 1 19 -6 0 -13 -6 -16 -14z"/>
<path d="M4105 9020 c3 -5 8 -10 11 -10 2 0 4 5 4 10 0 6 -5 10 -11 10 -5 0
-7 -4 -4 -10z"/>
<path d="M4150 9019 c0 -5 5 -7 10 -4 6 3 10 8 10 11 0 2 -4 4 -10 4 -5 0 -10
-5 -10 -11z"/>
<path d="M4188 9017 c11 -13 10 -16 -10 -19 -36 -5 -31 -43 5 -44 26 -1 28 1
25 34 -2 21 -9 38 -18 40 -13 4 -13 3 -2 -11z m10 -39 c-7 -19 -38 -22 -38 -4
0 10 9 16 21 16 12 0 19 -5 17 -12z"/>
<path d="M4231 8988 c2 -34 3 -37 6 -13 2 17 12 36 21 43 14 11 13 12 -6 12
-19 0 -22 -5 -21 -42z"/>
<path d="M4380 9010 c-8 -14 -8 -26 0 -40 14 -26 46 -26 60 0 12 22 5 60 -11
60 -6 0 -6 -7 0 -19 7 -13 6 -23 -3 -36 -18 -25 -39 -9 -34 26 5 34 3 36 -12
9z"/>
<path d="M4472 8988 l1 -43 4 38 c3 28 9 37 23 37 14 0 20 -9 23 -37 l4 -38 1
43 c2 40 1 42 -28 42 -29 0 -30 -2 -28 -42z"/>
<path d="M4560 9010 c-15 -28 4 -62 32 -58 12 2 24 10 26 18 5 13 3 13 -11 2
-21 -18 -37 -7 -37 25 0 22 4 25 25 21 13 -3 22 -1 19 3 -10 16 -43 9 -54 -11z"/>
<path d="M4642 8988 l1 -43 4 37 c3 24 10 38 21 41 12 3 11 5 -5 6 -21 1 -23
-3 -21 -41z"/>
<path d="M4694 9016 c-14 -37 23 -83 47 -59 9 9 7 11 -8 7 -13 -4 -22 0 -26
10 -5 12 0 16 24 16 24 0 30 4 25 16 -3 9 -6 18 -6 20 0 2 -4 4 -10 4 -5 0 -7
-7 -4 -15 4 -11 0 -15 -16 -15 -19 0 -20 2 -10 15 9 11 9 15 1 15 -6 0 -14 -6
-17 -14z"/>
<path d="M4873 8990 c0 -25 2 -35 4 -22 2 12 2 32 0 45 -2 12 -4 2 -4 -23z"/>
<path d="M4961 8973 c1 -32 4 -48 6 -37 3 15 10 20 22 17 25 -6 45 22 37 52
-4 14 -11 25 -17 25 -6 0 -6 -6 1 -19 13 -25 2 -53 -19 -49 -20 4 -27 48 -9
59 10 7 9 9 -4 9 -15 0 -18 -9 -17 -57z"/>
<path d="M5098 8990 c2 -22 6 -40 8 -40 2 0 4 18 4 40 0 22 -3 40 -8 40 -4 0
-6 -18 -4 -40z"/>
<path d="M5140 9019 c0 -5 5 -7 10 -4 6 3 10 8 10 11 0 2 -4 4 -10 4 -5 0 -10
-5 -10 -11z"/>
<path d="M5178 9017 c11 -13 10 -16 -10 -19 -36 -5 -31 -43 5 -44 26 -1 28 1
25 34 -2 21 -9 38 -18 40 -13 4 -13 3 -2 -11z m10 -39 c-7 -19 -38 -22 -38 -4
0 10 9 16 21 16 12 0 19 -5 17 -12z"/>
<path d="M5230 9016 c0 -7 10 -20 23 -29 28 -19 14 -36 -16 -18 -21 13 -21 12
-5 -4 19 -20 48 -14 48 11 0 9 -9 18 -21 21 -12 3 -18 11 -15 19 3 8 1 14 -4
14 -6 0 -10 -6 -10 -14z"/>
<path d="M5265 9020 c3 -5 8 -10 11 -10 2 0 4 5 4 10 0 6 -5 10 -11 10 -5 0
-7 -4 -4 -10z"/>
<path d="M5310 9011 c-8 -15 -8 -27 0 -41 11 -20 44 -27 54 -12 3 5 -4 8 -16
8 -12 -1 -23 5 -25 12 -3 7 5 12 22 12 20 0 26 4 23 18 -5 25 -44 27 -58 3z
m50 -1 c0 -5 -9 -10 -20 -10 -11 0 -20 5 -20 10 0 6 9 10 20 10 11 0 20 -4 20
-10z"/>
<path d="M5361 7370 c-45 -11 -80 -38 -103 -80 -16 -30 -18 -53 -16 -160 3
-112 5 -128 26 -158 52 -72 -27 -67 1092 -67 1119 0 1040 -5 1092 67 21 31 23
43 23 168 0 125 -2 137 -23 168 -52 72 24 67 -1072 69 -542 0 -1000 -2 -1019
-7z m239 -150 c0 -5 -16 -10 -35 -10 l-35 0 0 -70 0 -70 65 0 65 0 0 35 c0 25
4 35 16 35 12 0 14 -9 12 -42 l-3 -43 -90 0 -90 0 -3 74 c-2 41 -1 80 2 88 6
15 96 19 96 3z m90 -25 c0 -24 -5 -35 -15 -35 -8 0 -15 5 -15 12 0 7 -20 -7
-44 -31 -60 -59 -74 -35 -15 25 31 31 38 44 26 44 -9 0 -17 5 -17 10 0 6 18
10 40 10 39 0 40 -1 40 -35z m1080 4 c0 -5 -10 -9 -22 -9 -18 0 -20 -2 -9 -9
8 -5 20 -7 28 -4 10 4 13 -7 13 -41 0 -34 -4 -46 -15 -46 -10 0 -15 10 -15 30
0 17 -4 30 -10 30 -5 0 -10 -13 -10 -30 0 -47 -26 -38 -33 11 -6 44 7 76 33
82 20 4 40 -3 40 -14z m-936 -24 c8 -41 21 -39 29 5 4 19 13 30 23 30 12 0 15
-6 10 -23 -12 -49 -37 -97 -50 -97 -14 0 -57 99 -49 113 11 19 31 4 37 -28z
m105 -25 c1 -48 -1 -60 -14 -60 -12 0 -15 13 -15 60 0 44 4 60 14 60 9 0 14
-17 15 -60z m381 0 c0 -47 -3 -60 -15 -60 -12 0 -15 13 -15 60 0 47 3 60 15
60 12 0 15 -13 15 -60z m40 0 c0 -47 -3 -60 -15 -60 -12 0 -15 13 -15 60 0 47
3 60 15 60 12 0 15 -13 15 -60z m320 1 c0 -55 -2 -59 -25 -63 -14 -3 -31 0
-39 6 -16 13 -28 69 -20 91 7 16 34 21 34 6 0 -5 7 -12 16 -15 11 -4 15 -2 11
8 -3 8 -3 17 0 20 16 16 23 1 23 -53z m376 41 c1 -7 2 -22 3 -34 l1 -22 16 22
c30 43 84 12 70 -41 -5 -22 -12 -27 -36 -27 -17 0 -33 7 -39 18 -9 15 -10 15
-11 1 0 -20 -54 -31 -74 -15 -14 12 -26 72 -19 94 5 14 33 17 33 3 0 -5 7 -12
16 -15 11 -4 15 -2 11 8 -3 8 -3 17 1 20 9 9 27 1 28 -12z m-1037 -26 c15 -18
10 -66 -9 -76 -27 -14 -60 6 -60 38 0 46 42 70 69 38z m41 -3 c1 -17 1 -17 14
0 17 23 25 22 36 -5 l9 -23 0 23 c1 13 7 22 16 22 18 0 18 -4 4 -52 -10 -39
-39 -53 -39 -20 -1 16 -1 16 -14 0 -19 -26 -33 -22 -40 10 -4 15 -9 35 -12 45
-4 11 0 17 10 17 9 0 16 -8 16 -17z m196 9 c6 -4 13 -24 16 -44 l4 -38 -38 0
c-34 0 -38 3 -38 25 0 15 6 25 14 25 8 0 17 4 20 9 4 5 -3 7 -14 4 -19 -5 -27
7 -13 20 8 9 35 9 49 -1z m232 -39 c2 -34 0 -43 -12 -43 -11 0 -16 10 -16 30
0 17 -4 30 -10 30 -5 0 -10 -13 -10 -30 0 -20 -5 -30 -15 -30 -11 0 -15 11
-15 38 0 47 3 51 43 49 30 -2 32 -4 35 -44z m86 31 c30 -30 13 -74 -29 -74
-42 0 -59 44 -29 74 8 9 22 16 29 16 7 0 21 -7 29 -16z m280 10 c9 -3 16 -13
16 -21 0 -11 -7 -13 -26 -9 -21 6 -25 4 -22 -11 2 -12 11 -17 26 -15 27 4 29
-13 4 -27 -22 -12 -62 11 -62 35 0 41 28 62 64 48z m96 -13 c5 -11 10 -32 10
-46 0 -24 -3 -26 -37 -23 -44 3 -60 35 -24 45 12 3 21 9 21 13 0 5 -10 6 -22
2 -21 -5 -22 -4 -9 11 18 23 48 21 61 -2z m278 7 c18 -18 16 -78 -3 -78 -10 0
-15 10 -15 30 0 17 -4 30 -10 30 -5 0 -10 -13 -10 -30 0 -20 -5 -30 -15 -30
-11 0 -15 12 -15 45 0 43 1 45 28 45 15 0 33 -5 40 -12z"/>
<path d="M6637 7153 c-11 -10 -8 -43 3 -43 6 0 10 11 10 25 0 26 -2 29 -13 18z"/>
<path d="M7007 7153 c-11 -10 -8 -43 3 -43 6 0 10 11 10 25 0 26 -2 29 -13 18z"/>
<path d="M7095 7140 c-7 -12 2 -30 16 -30 5 0 9 9 9 20 0 21 -15 27 -25 10z"/>
<path d="M5988 7113 c7 -3 16 -2 19 1 4 3 -2 6 -13 5 -11 0 -14 -3 -6 -6z"/>
<path d="M6532 7133 c5 -25 28 -28 28 -4 0 12 -6 21 -16 21 -9 0 -14 -7 -12
-17z"/>
<path d="M6915 7120 c-3 -5 -1 -10 4 -10 6 0 11 5 11 10 0 6 -2 10 -4 10 -3 0
-8 -4 -11 -10z"/>
<path d="M3416 5603 c-3 -3 -6 -30 -6 -60 0 -40 4 -53 15 -53 11 0 15 13 15
54 0 51 -9 74 -24 59z"/>
<path d="M3970 5600 c0 -5 5 -10 10 -10 6 0 10 5 10 10 0 6 -4 10 -10 10 -5 0
-10 -4 -10 -10z"/>
<path d="M3627 5587 c-10 -26 8 -92 26 -95 9 -2 17 1 17 7 0 6 -4 11 -10 11
-5 0 -10 11 -10 25 0 14 5 25 10 25 6 0 5 8 -2 20 -15 23 -24 25 -31 7z"/>
<path d="M3917 5587 c-10 -26 8 -92 26 -95 9 -2 17 1 17 7 0 6 -4 11 -10 11
-5 0 -10 11 -10 25 0 14 5 25 10 25 6 0 5 8 -2 20 -15 23 -24 25 -31 7z"/>
<path d="M3460 5533 c0 -24 5 -43 10 -43 6 0 10 16 10 36 0 45 24 42 28 -4 4
-43 22 -41 22 2 0 38 -12 51 -47 51 -20 1 -23 -4 -23 -42z"/>
<path d="M3557 5568 c-18 -14 -13 -28 18 -47 18 -11 17 -12 -9 -6 -26 6 -28 4
-16 -10 17 -21 54 -15 58 8 3 12 -4 20 -17 24 -12 3 -21 10 -21 15 0 5 9 6 20
3 24 -7 27 10 4 19 -20 8 -17 8 -37 -6z"/>
<path d="M3680 5534 c0 -24 5 -44 10 -44 6 0 10 11 10 25 0 14 7 28 15 31 24
10 17 32 -10 32 -23 0 -25 -4 -25 -44z"/>
<path d="M3742 5538 c3 -40 5 -43 36 -46 32 -3 32 -3 32 42 0 52 -17 63 -22
14 -4 -46 -28 -49 -28 -4 0 20 -5 36 -11 36 -6 0 -9 -17 -7 -42z"/>
<path d="M3844 5572 c-17 -11 -22 -35 -13 -59 10 -27 41 -30 60 -6 13 15 11
16 -13 9 -23 -5 -28 -3 -28 12 0 26 11 34 27 20 18 -15 29 -2 13 17 -14 16
-29 19 -46 7z"/>
<path d="M3970 5535 c0 -25 5 -45 10 -45 6 0 10 20 10 45 0 25 -4 45 -10 45
-5 0 -10 -20 -10 -45z"/>
<path d="M4021 5566 c-7 -8 -11 -27 -9 -43 2 -23 8 -28 32 -28 36 0 52 33 30
64 -18 24 -37 27 -53 7z m39 -37 c0 -10 -7 -19 -15 -19 -15 0 -21 31 -9 43 11
10 24 -3 24 -24z"/>
<path d="M4100 5534 c0 -51 17 -60 22 -11 2 17 8 32 13 32 6 0 11 -15 13 -32
2 -18 7 -33 13 -33 11 0 13 79 2 81 -64 10 -63 10 -63 -37z"/>
<path d="M5814 5286 c-3 -7 -4 -33 -2 -57 l3 -44 55 0 c53 0 55 1 56 28 1 25
1 25 -3 2 -4 -23 -9 -25 -54 -25 l-49 0 0 49 c0 46 2 50 28 54 l27 4 -28 2
c-15 0 -30 -5 -33 -13z"/>
<path d="M5899 5291 c7 -5 17 -15 22 -22 6 -10 9 -8 9 9 0 16 -6 22 -22 22
-17 0 -19 -3 -9 -9z"/>
<path d="M3505 5280 c-16 -7 -17 -9 -3 -9 12 -1 18 -12 21 -43 3 -41 4 -41 5
10 1 28 1 52 0 51 -2 0 -12 -4 -23 -9z"/>
<path d="M3652 5243 c-2 -52 -1 -53 26 -52 22 1 23 2 5 6 -18 4 -23 12 -26 51
l-3 47 -2 -52z"/>
<path d="M4230 5240 c0 -29 2 -51 5 -48 8 7 9 87 2 95 -4 3 -7 -18 -7 -47z"/>
<path d="M4832 5238 l2 -53 3 47 c4 42 7 47 31 51 24 4 24 4 -5 6 l-33 1 2
-52z"/>
<path d="M5261 5238 c1 -29 4 -43 6 -31 2 12 12 24 21 26 15 4 15 5 0 6 -11 1
-18 9 -18 22 0 15 5 20 23 17 14 -2 21 -9 20 -22 -1 -13 2 -15 10 -7 15 15
-10 41 -39 41 -22 0 -24 -4 -23 -52z"/>
<path d="M4031 5243 c-1 -23 3 -44 7 -47 4 -2 6 12 4 32 -5 56 -10 62 -11 15z"/>
<path d="M4191 5243 c-1 -23 3 -44 7 -47 4 -2 6 12 4 32 -5 56 -10 62 -11 15z"/>
<path d="M4423 5266 c1 -11 9 -21 17 -23 10 -3 11 -2 4 4 -6 4 -14 15 -17 23
-5 11 -6 9 -4 -4z"/>
<path d="M4753 5245 c0 -22 2 -30 4 -17 2 12 2 30 0 40 -3 9 -5 -1 -4 -23z"/>
<path d="M5183 5245 c0 -22 2 -30 4 -17 2 12 2 30 0 40 -3 9 -5 -1 -4 -23z"/>
<path d="M5461 5243 c-1 -23 3 -44 7 -47 4 -2 6 12 4 32 -5 56 -10 62 -11 15z"/>
<path d="M5513 5235 c0 -27 2 -38 4 -22 2 15 2 37 0 50 -2 12 -4 0 -4 -28z"/>
<path d="M5874 5248 l-29 -33 33 29 c30 28 37 36 29 36 -2 0 -16 -15 -33 -32z"/>
<path d="M3727 5254 c-11 -11 -8 -52 3 -59 6 -3 19 -3 31 0 28 9 23 59 -6 63
-12 2 -24 0 -28 -4z m41 -26 c-2 -13 -10 -23 -18 -23 -8 0 -16 10 -18 23 -3
17 2 22 18 22 16 0 21 -5 18 -22z"/>
<path d="M3804 5246 c-10 -27 1 -50 26 -56 24 -6 24 -6 5 -18 -11 -6 -15 -12
-9 -12 20 0 34 25 34 62 0 21 -4 38 -8 38 -4 0 -8 -12 -7 -27 0 -18 -5 -28
-15 -28 -19 0 -26 35 -8 46 10 7 10 9 0 9 -7 0 -15 -6 -18 -14z"/>
<path d="M3883 5225 c0 -22 2 -30 4 -17 2 12 2 30 0 40 -3 9 -5 -1 -4 -23z"/>
<path d="M3911 5223 c2 -35 2 -35 6 -8 3 16 10 33 16 37 8 5 6 8 -5 8 -14 0
-18 -8 -17 -37z"/>
<path d="M3959 5222 c5 -34 6 -35 9 -8 2 16 0 32 -5 37 -5 5 -7 -7 -4 -29z"/>
<path d="M4077 5254 c-11 -11 -8 -52 3 -59 6 -3 19 -3 31 0 28 9 23 59 -6 63
-12 2 -24 0 -28 -4z m41 -26 c-2 -13 -10 -23 -18 -23 -8 0 -16 10 -18 23 -3
17 2 22 18 22 16 0 21 -5 18 -22z"/>
<path d="M4317 5253 c-4 -3 -7 -17 -7 -30 0 -26 26 -41 42 -25 8 8 4 9 -12 5
-21 -6 -22 -3 -18 25 5 34 5 35 -5 25z"/>
<path d="M4346 5245 c4 -8 8 -15 10 -15 2 0 4 7 4 15 0 8 -4 15 -10 15 -5 0
-7 -7 -4 -15z"/>
<path d="M4503 5225 c0 -22 2 -30 4 -17 2 12 2 30 0 40 -3 9 -5 -1 -4 -23z"/>
<path d="M4589 5222 c5 -34 6 -35 9 -8 2 16 0 32 -5 37 -5 5 -7 -7 -4 -29z"/>
<path d="M4700 5225 c0 -19 2 -35 4 -35 2 0 6 16 8 35 2 19 0 35 -4 35 -4 0
-8 -16 -8 -35z"/>
<path d="M4990 5249 c0 -5 5 -7 10 -4 6 3 10 8 10 11 0 2 -4 4 -10 4 -5 0 -10
-5 -10 -11z"/>
<path d="M5034 5245 c-3 -8 -4 -20 -2 -27 3 -7 7 -1 10 15 6 29 1 36 -8 12z"/>
<path d="M5554 5245 c-3 -8 -4 -20 -2 -27 3 -7 7 -1 10 15 6 29 1 36 -8 12z"/>
<path d="M5598 5233 c5 -21 7 -23 10 -9 2 10 0 22 -6 28 -6 6 -7 0 -4 -19z"/>
<path d="M5630 5225 c0 -19 2 -35 4 -35 2 0 6 16 8 35 2 19 0 35 -4 35 -4 0
-8 -16 -8 -35z"/>
<path d="M5683 5225 c0 -22 2 -30 4 -17 2 12 2 30 0 40 -3 9 -5 -1 -4 -23z"/>
<path d="M5769 5222 c5 -34 6 -35 9 -8 2 16 0 32 -5 37 -5 5 -7 -7 -4 -29z"/>
<path d="M4282 5215 c0 -16 2 -22 5 -12 2 9 2 23 0 30 -3 6 -5 -1 -5 -18z"/>
<path d="M4467 5219 c4 -13 8 -18 11 -10 2 7 -1 18 -6 23 -8 8 -9 4 -5 -13z"/>
<path d="M5130 5226 c0 -2 7 -7 16 -10 8 -3 12 -2 9 4 -6 10 -25 14 -25 6z"/>
<path d="M4650 5200 c-12 -7 -10 -9 8 -7 12 0 22 5 22 9 0 11 -12 10 -30 -2z"/>
<path d="M4917 5199 c7 -7 15 -10 18 -7 3 3 -2 9 -12 12 -14 6 -15 5 -6 -5z"/>
<path d="M3497 5003 c-4 -3 -7 -11 -7 -17 0 -6 5 -4 10 4 8 13 12 13 32 1 21
-13 22 -13 9 2 -14 18 -33 22 -44 10z"/>
<path d="M3653 5003 c-22 -8 -14 -33 12 -43 14 -5 25 -16 25 -25 0 -18 -21
-20 -38 -3 -9 9 -12 9 -12 1 0 -17 39 -26 55 -13 18 15 10 35 -21 49 -28 12
-22 35 7 28 11 -3 17 -1 13 4 -6 10 -21 11 -41 2z"/>
<path d="M3803 4960 c0 -30 2 -43 4 -27 2 15 2 39 0 55 -2 15 -4 2 -4 -28z"/>
<path d="M4061 4958 c2 -53 2 -53 8 -13 l7 40 18 -40 18 -40 16 40 17 40 6
-40 c6 -39 6 -39 8 13 1 60 -10 67 -28 17 -7 -19 -16 -35 -20 -35 -4 0 -13 16
-20 35 -18 51 -31 43 -30 -17z"/>
<path d="M4291 4996 c-9 -11 -6 -19 19 -36 23 -16 29 -25 21 -33 -9 -9 -17 -8
-31 1 -11 7 -20 8 -20 3 0 -16 40 -23 55 -11 22 18 18 28 -16 46 -23 12 -28
19 -20 27 9 9 17 8 34 -2 20 -13 21 -13 8 2 -16 21 -35 22 -50 3z"/>
<path d="M3980 4980 c0 -5 5 -10 10 -10 6 0 10 5 10 10 0 6 -4 10 -10 10 -5 0
-10 -4 -10 -10z"/>
<path d="M4400 4980 c0 -5 5 -10 10 -10 6 0 10 5 10 10 0 6 -4 10 -10 10 -5 0
-10 -4 -10 -10z"/>
<path d="M3724 4965 c-13 -32 25 -70 47 -48 6 6 2 9 -12 9 -24 -1 -36 33 -16
46 9 6 9 8 -1 8 -7 0 -15 -7 -18 -15z"/>
<path d="M3766 4967 c3 -10 9 -15 12 -12 3 3 0 11 -7 18 -10 9 -11 8 -5 -6z"/>
<path d="M3834 4965 c-13 -32 25 -70 47 -48 6 6 2 9 -12 9 -24 -1 -36 33 -16
46 9 6 9 8 -1 8 -7 0 -15 -7 -18 -15z"/>
<path d="M3876 4967 c3 -10 9 -15 12 -12 3 3 0 11 -7 18 -10 9 -11 8 -5 -6z"/>
<path d="M3905 4960 c-11 -33 32 -68 49 -41 4 5 -2 7 -13 4 -22 -6 -36 24 -20
43 8 9 8 14 1 14 -6 0 -14 -9 -17 -20z"/>
<path d="M4180 4979 c0 -3 5 -20 11 -38 9 -24 8 -35 -2 -49 -12 -15 -11 -16 3
-2 9 8 19 26 23 40 4 14 4 21 -1 17 -4 -4 -14 3 -21 15 -7 13 -12 20 -13 17z"/>
<path d="M4373 4945 c0 -22 2 -30 4 -17 2 12 2 30 0 40 -3 9 -5 -1 -4 -23z"/>
<path d="M4445 4960 c-11 -33 32 -68 49 -41 4 5 -4 7 -15 4 -19 -5 -21 -3 -17
25 5 36 -7 43 -17 12z"/>
<path d="M4486 4965 c4 -8 8 -15 10 -15 2 0 4 7 4 15 0 8 -4 15 -10 15 -5 0
-7 -7 -4 -15z"/>
<path d="M3512 4947 c-30 -31 -28 -37 11 -36 23 1 26 3 10 6 -27 5 -28 11 -6
35 24 26 10 22 -15 -5z"/>
<path d="M3990 4920 c0 -5 5 -10 11 -10 5 0 7 5 4 10 -3 6 -8 10 -11 10 -2 0
-4 -4 -4 -10z"/>
<path d="M4410 4920 c0 -5 5 -10 11 -10 5 0 7 5 4 10 -3 6 -8 10 -11 10 -2 0
-4 -4 -4 -10z"/>
<path d="M3496 4721 c-4 -5 2 -7 13 -4 23 6 38 -15 16 -23 -14 -6 -14 -8 2
-20 17 -13 17 -15 -1 -29 -11 -8 -15 -15 -9 -15 26 0 38 57 19 88 -9 14 -32
16 -40 3z"/>
<path d="M3653 4723 c-22 -8 -14 -33 12 -43 14 -5 25 -16 25 -25 0 -18 -21
-20 -38 -3 -9 9 -12 9 -12 1 0 -17 39 -26 55 -13 18 15 10 35 -21 49 -28 12
-22 35 7 28 11 -3 17 -1 13 4 -6 10 -21 11 -41 2z"/>
<path d="M3803 4680 c0 -30 2 -43 4 -27 2 15 2 39 0 55 -2 15 -4 2 -4 -28z"/>
<path d="M4061 4678 c1 -41 3 -47 9 -28 4 14 5 35 3 47 -4 17 1 22 24 26 27 4
27 4 -4 6 l-33 1 1 -52z"/>
<path d="M4421 4678 c2 -52 2 -52 8 -13 l6 40 23 -37 c13 -21 26 -38 28 -38 2
0 3 24 3 53 -2 51 -2 51 -8 12 l-6 -40 -23 38 c-13 20 -26 37 -28 37 -2 0 -3
-24 -3 -52z"/>
<path d="M4684 4716 c-3 -8 -4 -31 -2 -52 3 -36 4 -35 8 14 5 53 4 63 -6 38z"/>
<path d="M4601 4683 c-1 -23 3 -44 7 -47 4 -2 6 12 4 32 -5 56 -10 62 -11 15z"/>
<path d="M4911 4678 c-1 -27 3 -48 7 -48 4 0 6 17 4 38 -5 58 -10 62 -11 10z"/>
<path d="M3980 4700 c0 -5 5 -10 10 -10 6 0 10 5 10 10 0 6 -4 10 -10 10 -5 0
-10 -4 -10 -10z"/>
<path d="M3724 4685 c-13 -32 25 -70 47 -48 6 6 2 9 -12 9 -24 -1 -36 33 -16
46 9 6 9 8 -1 8 -7 0 -15 -7 -18 -15z"/>
<path d="M3766 4687 c3 -10 9 -15 12 -12 3 3 0 11 -7 18 -10 9 -11 8 -5 -6z"/>
<path d="M3834 4685 c-13 -32 25 -70 47 -48 6 6 2 9 -12 9 -24 -1 -36 33 -16
46 9 6 9 8 -1 8 -7 0 -15 -7 -18 -15z"/>
<path d="M3876 4687 c3 -10 9 -15 12 -12 3 3 0 11 -7 18 -10 9 -11 8 -5 -6z"/>
<path d="M3905 4680 c-11 -33 32 -68 49 -41 4 5 -2 7 -13 4 -22 -6 -36 24 -20
43 8 9 8 14 1 14 -6 0 -14 -9 -17 -20z"/>
<path d="M4175 4673 c0 -14 -6 -28 -12 -30 -7 -3 -13 3 -13 12 0 9 -5 13 -10
10 -16 -10 7 -34 31 -32 14 1 19 9 19 29 0 15 -4 29 -8 32 -4 2 -8 -7 -7 -21z"/>
<path d="M4211 4663 c2 -35 2 -35 6 -8 3 16 10 33 16 37 8 5 6 8 -5 8 -14 0
-18 -8 -17 -37z"/>
<path d="M4260 4665 c0 -19 2 -35 4 -35 2 0 6 16 8 35 2 19 0 35 -4 35 -4 0
-8 -16 -8 -35z"/>
<path d="M4299 4663 c4 -31 6 -33 9 -13 2 14 9 31 14 38 8 9 5 12 -9 12 -16 0
-18 -5 -14 -37z"/>
<path d="M4349 4662 c5 -34 6 -35 9 -8 2 16 0 32 -5 37 -5 5 -7 -7 -4 -29z"/>
<path d="M4515 4680 c-13 -41 35 -68 55 -31 11 21 4 51 -12 51 -7 0 -6 -5 1
-14 13 -16 4 -46 -14 -46 -18 0 -27 30 -14 46 8 9 8 14 1 14 -6 0 -14 -9 -17
-20z"/>
<path d="M4643 4665 c0 -22 2 -30 4 -17 2 12 2 30 0 40 -3 9 -5 -1 -4 -23z"/>
<path d="M4723 4665 c0 -22 2 -30 4 -17 2 12 2 30 0 40 -3 9 -5 -1 -4 -23z"/>
<path d="M4754 4685 c-13 -32 25 -70 47 -48 6 6 2 9 -13 9 -26 -1 -38 32 -16
45 10 7 10 9 0 9 -7 0 -15 -7 -18 -15z"/>
<path d="M4865 4673 c0 -14 -6 -28 -12 -30 -7 -3 -13 3 -13 12 0 9 -5 13 -10
10 -16 -10 7 -34 31 -32 14 1 19 9 19 29 0 15 -4 29 -8 32 -4 2 -8 -7 -7 -21z"/>
<path d="M4953 4665 c0 -22 2 -30 4 -17 2 12 2 30 0 40 -3 9 -5 -1 -4 -23z"/>
<path d="M4987 4694 c-11 -11 -8 -52 3 -59 6 -3 19 -3 31 0 28 9 23 59 -6 63
-12 2 -24 0 -28 -4z m41 -26 c-2 -13 -10 -23 -18 -23 -8 0 -16 10 -18 23 -3
17 2 22 18 22 16 0 21 -5 18 -22z"/>
<path d="M5060 4665 c0 -19 2 -35 4 -35 2 0 6 16 8 35 2 19 0 35 -4 35 -4 0
-8 -16 -8 -35z"/>
<path d="M5112 4655 c0 -16 2 -22 5 -12 2 9 2 23 0 30 -3 6 -5 -1 -5 -18z"/>
<path d="M3990 4640 c0 -5 5 -10 11 -10 5 0 7 5 4 10 -3 6 -8 10 -11 10 -2 0
-4 -4 -4 -10z"/>
<path d="M3511 4421 c-12 -16 -21 -33 -21 -38 0 -4 9 5 19 21 l20 29 4 -44 4
-44 1 53 c1 28 0 52 -2 52 -3 0 -14 -13 -25 -29z"/>
<path d="M3653 4443 c-22 -8 -14 -33 12 -43 14 -5 25 -16 25 -25 0 -18 -21
-20 -38 -3 -9 9 -12 9 -12 1 0 -17 39 -26 55 -13 18 15 10 35 -21 49 -28 12
-22 35 7 28 11 -3 17 -1 13 4 -6 10 -21 11 -41 2z"/>
<path d="M3803 4400 c0 -30 2 -43 4 -27 2 15 2 39 0 55 -2 15 -4 2 -4 -28z"/>
<path d="M4075 4405 c-10 -25 -15 -48 -11 -52 3 -3 6 1 6 10 0 23 39 22 56 0
8 -11 7 0 -4 29 -10 26 -20 50 -24 53 -3 3 -14 -14 -23 -40z m35 -7 c0 -5 -7
-8 -15 -8 -17 0 -18 2 -9 25 5 13 8 14 15 3 5 -7 9 -16 9 -20z"/>
<path d="M4313 4400 c0 -30 2 -43 4 -27 2 15 2 39 0 55 -2 15 -4 2 -4 -28z"/>
<path d="M4670 4401 c0 -48 2 -52 22 -49 12 2 23 9 24 16 1 7 0 8 -3 2 -2 -5
-11 -10 -19 -10 -10 0 -13 12 -12 40 1 22 -2 43 -5 47 -4 3 -7 -17 -7 -46z"/>
<path d="M5142 4443 c12 -3 18 -18 21 -51 l3 -47 2 47 c2 35 6 48 20 51 9 3
-1 5 -23 5 -22 0 -32 -2 -23 -5z"/>
<path d="M5220 4400 c0 -29 2 -51 5 -48 8 7 9 87 2 95 -4 3 -7 -18 -7 -47z"/>
<path d="M5583 4400 c0 -30 2 -43 4 -27 2 15 2 39 0 55 -2 15 -4 2 -4 -28z"/>
<path d="M5613 4400 c0 -30 2 -43 4 -27 2 15 2 39 0 55 -2 15 -4 2 -4 -28z"/>
<path d="M5683 4400 c0 -30 2 -43 4 -27 2 15 2 39 0 55 -2 15 -4 2 -4 -28z"/>
<path d="M5908 4433 c-2 -10 -1 -34 3 -53 6 -31 6 -30 8 18 1 52 -3 67 -11 35z"/>
<path d="M6183 4400 c0 -30 2 -42 4 -25 3 16 10 33 16 37 9 6 9 8 0 8 -6 0
-14 8 -16 18 -3 9 -5 -8 -4 -38z"/>
<path d="M6370 4400 c0 -29 2 -51 5 -48 8 7 9 87 2 95 -4 3 -7 -18 -7 -47z"/>
<path d="M6883 4400 c0 -30 2 -43 4 -27 2 15 2 39 0 55 -2 15 -4 2 -4 -28z"/>
<path d="M4411 4403 c-1 -23 3 -44 7 -47 4 -2 6 12 4 32 -5 56 -10 62 -11 15z"/>
<path d="M4871 4403 c-1 -23 3 -44 7 -47 4 -2 6 12 4 32 -5 56 -10 62 -11 15z"/>
<path d="M5982 4399 c2 -27 8 -44 18 -46 12 -4 13 -3 1 5 -9 7 -12 20 -8 41 4
17 2 33 -4 37 -7 4 -9 -9 -7 -37z"/>
<path d="M6141 4403 c-1 -23 3 -44 7 -47 4 -2 6 12 4 32 -5 56 -10 62 -11 15z"/>
<path d="M6531 4403 c-1 -23 3 -44 7 -47 4 -2 6 12 4 32 -5 56 -10 62 -11 15z"/>
<path d="M7151 4403 c-1 -23 3 -44 7 -47 4 -2 6 12 4 32 -5 56 -10 62 -11 15z"/>
<path d="M3980 4420 c0 -5 5 -10 10 -10 6 0 10 5 10 10 0 6 -4 10 -10 10 -5 0
-10 -4 -10 -10z"/>
<path d="M4820 4420 c0 -5 5 -10 10 -10 6 0 10 5 10 10 0 6 -4 10 -10 10 -5 0
-10 -4 -10 -10z"/>
<path d="M6800 4420 c0 -5 5 -10 10 -10 6 0 10 5 10 10 0 6 -4 10 -10 10 -5 0
-10 -4 -10 -10z"/>
<path d="M3724 4405 c-13 -32 25 -70 47 -48 6 6 2 9 -12 9 -24 -1 -36 33 -16
46 9 6 9 8 -1 8 -7 0 -15 -7 -18 -15z"/>
<path d="M3766 4407 c3 -10 9 -15 12 -12 3 3 0 11 -7 18 -10 9 -11 8 -5 -6z"/>
<path d="M3834 4405 c-13 -32 25 -70 47 -48 6 6 2 9 -12 9 -24 -1 -36 33 -16
46 9 6 9 8 -1 8 -7 0 -15 -7 -18 -15z"/>
<path d="M3876 4407 c3 -10 9 -15 12 -12 3 3 0 11 -7 18 -10 9 -11 8 -5 -6z"/>
<path d="M3905 4400 c-11 -33 32 -68 49 -41 4 5 -2 7 -13 4 -22 -6 -36 24 -20
43 8 9 8 14 1 14 -6 0 -14 -9 -17 -20z"/>
<path d="M4150 4385 c0 -19 2 -35 4 -35 2 0 6 16 8 35 2 19 0 35 -4 35 -4 0
-8 -16 -8 -35z"/>
<path d="M4268 4385 c2 -19 6 -35 8 -35 2 0 4 16 4 35 0 19 -4 35 -8 35 -4 0
-6 -16 -4 -35z"/>
<path d="M4336 4407 c3 -10 9 -15 12 -12 3 3 0 11 -7 18 -10 9 -11 8 -5 -6z"/>
<path d="M4373 4400 c-3 -11 -10 -20 -15 -20 -5 0 -8 -6 -5 -12 2 -7 0 -21 -5
-32 -7 -12 -7 -16 0 -12 11 7 44 96 35 96 -2 0 -7 -9 -10 -20z"/>
<path d="M4453 4385 c0 -22 2 -30 4 -17 2 12 2 30 0 40 -3 9 -5 -1 -4 -23z"/>
<path d="M4485 4400 c-11 -33 32 -68 49 -41 4 5 -2 7 -13 4 -22 -6 -36 24 -20
43 8 9 8 14 1 14 -6 0 -14 -9 -17 -20z"/>
<path d="M4560 4406 c0 -8 9 -18 20 -21 27 -9 26 -29 -1 -22 -16 4 -19 3 -11
-5 12 -12 42 -4 42 11 0 6 -9 15 -20 21 -11 6 -18 15 -15 21 4 5 1 9 -4 9 -6
0 -11 -6 -11 -14z"/>
<path d="M4706 4405 c4 -8 8 -15 10 -15 2 0 4 7 4 15 0 8 -4 15 -10 15 -5 0
-7 -7 -4 -15z"/>
<path d="M4741 4399 c-1 -29 14 -46 42 -46 13 0 17 8 16 36 -1 36 -1 36 -8 6
-3 -17 -13 -30 -21 -30 -8 0 -18 13 -21 30 -6 29 -7 29 -8 4z"/>
<path d="M4917 4414 c-11 -11 -8 -52 3 -59 6 -3 19 -3 31 0 28 9 23 59 -6 63
-12 2 -24 0 -28 -4z m41 -26 c-2 -13 -10 -23 -18 -23 -8 0 -16 10 -18 23 -3
17 2 22 18 22 16 0 21 -5 18 -22z"/>
<path d="M4990 4385 c0 -19 2 -35 4 -35 2 0 6 16 8 35 2 19 0 35 -4 35 -4 0
-8 -16 -8 -35z"/>
<path d="M5303 4385 c0 -22 2 -30 4 -17 2 12 2 30 0 40 -3 9 -5 -1 -4 -23z"/>
<path d="M5337 4413 c-12 -12 -7 -22 13 -28 27 -9 26 -29 -1 -22 -16 4 -19 3
-11 -5 14 -14 42 -3 42 16 0 7 -9 16 -21 19 -12 3 -18 10 -14 16 7 12 2 15 -8
4z"/>
<path d="M5470 4410 c0 -5 5 -10 10 -10 6 0 10 5 10 10 0 6 -4 10 -10 10 -5 0
-10 -4 -10 -10z"/>
<path d="M5714 4405 c-13 -32 25 -70 47 -48 6 6 2 9 -12 9 -24 -1 -36 33 -16
46 9 6 9 8 -1 8 -7 0 -15 -7 -18 -15z"/>
<path d="M5756 4407 c3 -10 9 -15 12 -12 3 3 0 11 -7 18 -10 9 -11 8 -5 -6z"/>
<path d="M5828 4385 c2 -19 6 -35 8 -35 2 0 4 16 4 35 0 19 -4 35 -8 35 -4 0
-6 -16 -4 -35z"/>
<path d="M5863 4404 c-7 -19 7 -46 28 -51 8 -3 7 0 -3 7 -21 13 -24 46 -5 53
9 4 9 6 -1 6 -7 1 -15 -6 -19 -15z"/>
<path d="M6027 4414 c-11 -11 -8 -52 3 -59 6 -3 19 -3 31 0 28 9 23 59 -6 63
-12 2 -24 0 -28 -4z m41 -26 c-2 -13 -10 -23 -18 -23 -8 0 -16 10 -18 23 -3
17 2 22 18 22 16 0 21 -5 18 -22z"/>
<path d="M6229 4382 c5 -34 6 -35 9 -8 2 16 0 32 -5 37 -5 5 -7 -7 -4 -29z"/>
<path d="M6267 4413 c-4 -3 -7 -17 -7 -30 0 -26 26 -41 42 -25 8 8 4 9 -12 5
-21 -6 -22 -3 -18 25 5 34 5 35 -5 25z"/>
<path d="M6296 4405 c4 -8 8 -15 10 -15 2 0 4 7 4 15 0 8 -4 15 -10 15 -5 0
-7 -7 -4 -15z"/>
<path d="M6408 4385 c2 -19 6 -35 8 -35 2 0 4 16 4 35 0 19 -4 35 -8 35 -4 0
-6 -16 -4 -35z"/>
<path d="M6445 4400 c-13 -41 35 -68 55 -31 11 21 4 51 -12 51 -7 0 -6 -5 1
-14 13 -16 4 -46 -14 -46 -18 0 -27 30 -14 46 8 9 8 14 1 14 -6 0 -14 -9 -17
-20z"/>
<path d="M6577 4413 c-12 -12 -7 -22 13 -28 27 -9 26 -29 -1 -22 -16 4 -19 3
-11 -5 14 -14 42 -3 42 16 0 7 -9 16 -21 19 -12 3 -18 10 -14 16 7 12 2 15 -8
4z"/>
<path d="M6640 4373 c0 -27 4 -43 8 -37 4 7 16 13 27 15 21 4 33 45 18 60 -5
5 -9 -3 -8 -19 0 -17 -5 -27 -15 -27 -10 0 -15 10 -15 28 1 15 -3 27 -7 27 -4
0 -8 -21 -8 -47z"/>
<path d="M6727 4414 c-11 -11 -8 -52 3 -59 6 -3 19 -3 31 0 28 9 23 59 -6 63
-12 2 -24 0 -28 -4z m41 -26 c-2 -13 -10 -23 -18 -23 -8 0 -16 10 -18 23 -3
17 2 22 18 22 16 0 21 -5 18 -22z"/>
<path d="M6915 4400 c-13 -41 35 -68 55 -31 11 21 4 51 -12 51 -7 0 -6 -5 1
-14 13 -16 4 -46 -14 -46 -18 0 -27 30 -14 46 8 9 8 14 1 14 -6 0 -14 -9 -17
-20z"/>
<path d="M6995 4400 c-11 -33 32 -68 49 -41 4 5 -2 7 -13 4 -22 -6 -36 24 -20
43 8 9 8 14 1 14 -6 0 -14 -9 -17 -20z"/>
<path d="M7108 4385 c2 -19 6 -35 8 -35 2 0 4 16 4 35 0 19 -4 35 -8 35 -4 0
-6 -16 -4 -35z"/>
<path d="M7193 4385 c0 -22 2 -30 4 -17 2 12 2 30 0 40 -3 9 -5 -1 -4 -23z"/>
<path d="M7225 4400 c-13 -41 35 -68 55 -31 11 21 4 51 -12 51 -7 0 -6 -5 1
-14 13 -16 4 -46 -14 -46 -18 0 -27 30 -14 46 8 9 8 14 1 14 -6 0 -14 -9 -17
-20z"/>
<path d="M7310 4385 c0 -19 2 -35 4 -35 2 0 6 16 8 35 2 19 0 35 -4 35 -4 0
-8 -16 -8 -35z"/>
<path d="M7348 4385 c2 -19 6 -35 8 -35 2 0 4 16 4 35 0 19 -4 35 -8 35 -4 0
-6 -16 -4 -35z"/>
<path d="M5446 4385 c2 -11 4 -24 4 -30 0 -5 5 -3 10 5 12 19 13 33 1 25 -5
-3 -11 0 -14 7 -2 7 -3 4 -1 -7z"/>
<path d="M5510 4396 c0 -9 -4 -14 -10 -11 -5 3 -10 -1 -10 -9 0 -8 4 -17 9
-20 10 -6 25 43 16 52 -3 3 -5 -2 -5 -12z"/>
<path d="M4202 4375 c0 -16 2 -22 5 -12 2 9 2 23 0 30 -3 6 -5 -1 -5 -18z"/>
<path d="M5042 4375 c0 -16 2 -22 5 -12 2 9 2 23 0 30 -3 6 -5 -1 -5 -18z"/>
<path d="M5272 4375 c0 -16 2 -22 5 -12 2 9 2 23 0 30 -3 6 -5 -1 -5 -18z"/>
<path d="M4232 4373 c2 -9 10 -18 18 -20 12 -4 13 -3 1 5 -7 5 -10 15 -7 21 4
6 2 11 -4 11 -6 0 -10 -8 -8 -17z"/>
<path d="M5792 4373 c2 -9 10 -18 18 -20 12 -4 13 -3 1 5 -7 5 -10 15 -7 21 4
6 2 11 -4 11 -6 0 -10 -8 -8 -17z"/>
<path d="M7072 4373 c2 -9 10 -18 18 -20 12 -4 13 -3 1 5 -7 5 -10 15 -7 21 4
6 2 11 -4 11 -6 0 -10 -8 -8 -17z"/>
<path d="M3990 4360 c0 -5 5 -10 11 -10 5 0 7 5 4 10 -3 6 -8 10 -11 10 -2 0
-4 -4 -4 -10z"/>
<path d="M4830 4360 c0 -5 5 -10 11 -10 5 0 7 5 4 10 -3 6 -8 10 -11 10 -2 0
-4 -4 -4 -10z"/>
<path d="M6810 4360 c0 -5 5 -10 11 -10 5 0 7 5 4 10 -3 6 -8 10 -11 10 -2 0
-4 -4 -4 -10z"/>
<path d="M3500 4145 c0 -19 5 -25 21 -25 14 0 19 -5 17 -17 -2 -10 -12 -17
-22 -16 -13 1 -15 -2 -8 -9 16 -16 42 -2 42 23 0 12 -8 23 -20 26 -27 7 -25
31 3 36 19 4 18 4 -5 6 -24 1 -28 -3 -28 -24z"/>
<path d="M3653 4120 c0 -30 2 -43 4 -27 2 15 2 39 0 55 -2 15 -4 2 -4 -28z"/>
<path d="M3691 4118 c1 -55 5 -50 11 15 2 20 0 37 -4 37 -4 0 -7 -24 -7 -52z"/>
<path d="M3813 4120 c0 -30 2 -42 4 -25 3 16 10 33 16 37 9 6 9 8 0 8 -6 0
-14 8 -16 18 -3 9 -5 -8 -4 -38z"/>
<path d="M4003 4120 c0 -30 2 -43 4 -27 2 15 2 39 0 55 -2 15 -4 2 -4 -28z"/>
<path d="M5098 4153 c-2 -10 -1 -34 3 -53 6 -31 6 -30 8 18 1 52 -3 67 -11 35z"/>
<path d="M5443 4120 c0 -30 2 -43 4 -27 2 15 2 39 0 55 -2 15 -4 2 -4 -28z"/>
<path d="M6470 4120 c0 -29 2 -51 5 -48 8 7 9 87 2 95 -4 3 -7 -18 -7 -47z"/>
<path d="M6583 4120 c0 -30 2 -42 4 -25 3 16 10 33 16 37 9 6 9 8 0 8 -6 0
-14 8 -16 18 -3 9 -5 -8 -4 -38z"/>
<path d="M7713 4120 c0 -30 2 -42 4 -25 3 16 10 33 16 37 9 6 9 8 0 8 -6 0
-14 8 -16 18 -3 9 -5 -8 -4 -38z"/>
<path d="M7900 4120 c0 -29 2 -51 5 -48 8 7 9 87 2 95 -4 3 -7 -18 -7 -47z"/>
<path d="M8458 4153 c-2 -10 -1 -34 3 -53 6 -31 6 -30 8 18 1 52 -3 67 -11 35z"/>
<path d="M3772 4119 c2 -27 8 -44 18 -46 12 -4 13 -3 1 5 -9 7 -12 20 -8 41 4
17 2 33 -4 37 -7 4 -9 -9 -7 -37z"/>
<path d="M4271 4118 c-1 -27 3 -48 7 -48 4 0 6 17 4 38 -5 58 -10 62 -11 10z"/>
<path d="M5291 4123 c-1 -23 3 -44 7 -47 4 -2 6 12 4 32 -5 56 -10 62 -11 15z"/>
<path d="M6431 4123 c-1 -23 3 -44 7 -47 4 -2 6 12 4 32 -5 56 -10 62 -11 15z"/>
<path d="M7202 4119 c2 -27 8 -44 18 -46 12 -4 13 -3 1 5 -9 7 -12 20 -8 41 4
17 2 33 -4 37 -7 4 -9 -9 -7 -37z"/>
<path d="M7382 4119 c2 -27 8 -44 18 -46 12 -4 13 -3 1 5 -9 7 -12 20 -8 41 4
17 2 33 -4 37 -7 4 -9 -9 -7 -37z"/>
<path d="M7672 4119 c2 -27 8 -44 18 -46 12 -4 13 -3 1 5 -9 7 -12 20 -8 41 4
17 2 33 -4 37 -7 4 -9 -9 -7 -37z"/>
<path d="M8061 4123 c-1 -23 3 -44 7 -47 4 -2 6 12 4 32 -5 56 -10 62 -11 15z"/>
<path d="M8341 4118 c-1 -27 3 -48 7 -48 4 0 6 17 4 38 -5 58 -10 62 -11 10z"/>
<path d="M8571 4123 c-1 -23 3 -44 7 -47 4 -2 6 12 4 32 -5 56 -10 62 -11 15z"/>
<path d="M8762 4119 c2 -27 8 -44 18 -46 12 -4 13 -3 1 5 -9 7 -12 20 -8 41 4
17 2 33 -4 37 -7 4 -9 -9 -7 -37z"/>
<path d="M3859 4102 c5 -34 6 -35 9 -8 2 16 0 32 -5 37 -5 5 -7 -7 -4 -29z"/>
<path d="M3894 4126 c-11 -28 1 -51 26 -53 l25 -3 -24 10 c-18 8 -22 16 -19
35 6 27 1 33 -8 11z"/>
<path d="M3926 4125 c4 -8 10 -15 15 -15 4 0 6 7 3 15 -4 8 -10 15 -15 15 -4
0 -6 -7 -3 -15z"/>
<path d="M4033 4124 c-8 -22 10 -49 33 -49 21 0 33 40 17 56 -6 6 -8 -3 -5
-22 4 -26 2 -30 -14 -27 -23 4 -31 37 -12 49 10 7 10 9 0 9 -7 0 -15 -7 -19
-16z"/>
<path d="M4114 4125 c-13 -32 25 -70 47 -48 6 6 2 9 -13 9 -26 -1 -38 32 -16
45 10 7 10 9 0 9 -7 0 -15 -7 -18 -15z"/>
<path d="M4225 4113 c0 -14 -6 -28 -12 -30 -7 -3 -13 3 -13 12 0 9 -5 13 -10
10 -16 -10 7 -34 31 -32 14 1 19 9 19 29 0 15 -4 29 -8 32 -4 2 -8 -7 -7 -21z"/>
<path d="M4313 4105 c0 -22 2 -30 4 -17 2 12 2 30 0 40 -3 9 -5 -1 -4 -23z"/>
<path d="M4343 4124 c-8 -22 10 -49 33 -49 21 0 33 40 17 56 -6 6 -8 -3 -5
-22 4 -26 2 -30 -14 -27 -23 4 -31 37 -12 49 10 7 10 9 0 9 -7 0 -15 -7 -19
-16z"/>
<path d="M4421 4103 c2 -35 2 -35 6 -8 3 16 10 33 16 37 8 5 6 8 -5 8 -14 0
-18 -8 -17 -37z"/>
<path d="M4469 4102 c5 -34 6 -35 9 -8 2 16 0 32 -5 37 -5 5 -7 -7 -4 -29z"/>
<path d="M4531 4119 c-1 -29 14 -46 42 -46 13 0 17 8 16 36 -1 36 -1 36 -8 6
-3 -17 -13 -30 -21 -30 -8 0 -18 13 -21 30 -6 29 -7 29 -8 4z"/>
<path d="M4617 4133 c-12 -12 -7 -22 13 -28 27 -9 26 -29 -1 -22 -16 4 -19 3
-11 -5 14 -14 42 -3 42 16 0 7 -9 16 -21 19 -12 3 -18 10 -14 16 7 12 2 15 -8
4z"/>
<path d="M4758 4105 c2 -19 6 -35 8 -35 2 0 4 16 4 35 0 19 -4 35 -8 35 -4 0
-6 -16 -4 -35z"/>
<path d="M4830 4105 c0 -19 2 -35 4 -35 2 0 6 16 8 35 2 19 0 35 -4 35 -4 0
-8 -16 -8 -35z"/>
<path d="M4875 4120 c-11 -33 32 -68 49 -41 4 5 -4 7 -15 4 -19 -5 -21 -3 -17
25 5 36 -7 43 -17 12z"/>
<path d="M4916 4125 c4 -8 8 -15 10 -15 2 0 4 7 4 15 0 8 -4 15 -10 15 -5 0
-7 -7 -4 -15z"/>
<path d="M4950 4126 c0 -8 9 -18 20 -21 27 -9 26 -29 -1 -22 -16 4 -19 3 -11
-5 12 -12 42 -4 42 11 0 6 -9 15 -20 21 -11 6 -18 15 -15 21 4 5 1 9 -4 9 -6
0 -11 -6 -11 -14z"/>
<path d="M5023 4105 c0 -22 2 -30 4 -17 2 12 2 30 0 40 -3 9 -5 -1 -4 -23z"/>
<path d="M5056 4124 c-7 -18 10 -54 25 -54 6 0 3 7 -5 16 -19 19 -20 26 -4 42
8 8 8 12 1 12 -6 0 -14 -7 -17 -16z"/>
<path d="M5134 4125 c-13 -32 25 -70 47 -48 6 6 2 9 -12 9 -24 -1 -36 33 -16
46 9 6 9 8 -1 8 -7 0 -15 -7 -18 -15z"/>
<path d="M5176 4127 c3 -10 9 -15 12 -12 3 3 0 11 -7 18 -10 9 -11 8 -5 -6z"/>
<path d="M5210 4105 c0 -19 2 -35 4 -35 2 0 6 16 8 35 2 19 0 35 -4 35 -4 0
-8 -16 -8 -35z"/>
<path d="M5248 4105 c2 -19 6 -35 8 -35 2 0 4 16 4 35 0 19 -4 35 -8 35 -4 0
-6 -16 -4 -35z"/>
<path d="M5333 4105 c0 -22 2 -30 4 -17 2 12 2 30 0 40 -3 9 -5 -1 -4 -23z"/>
<path d="M5405 4113 c0 -14 -6 -28 -12 -30 -7 -3 -13 3 -13 12 0 9 -5 13 -10
10 -16 -10 7 -34 31 -32 14 1 19 9 19 29 0 15 -4 29 -8 32 -4 2 -8 -7 -7 -21z"/>
<path d="M5551 4113 c-1 -23 -6 -33 -17 -33 -10 0 -14 6 -10 15 3 8 1 15 -4
15 -16 0 -12 -30 4 -36 30 -12 41 0 35 36 l-6 35 -2 -32z"/>
<path d="M5590 4105 c0 -19 2 -35 4 -35 2 0 6 16 8 35 2 19 0 35 -4 35 -4 0
-8 -16 -8 -35z"/>
<path d="M5634 4125 c-13 -32 25 -70 47 -48 6 6 2 9 -12 9 -24 -1 -36 33 -16
46 9 6 9 8 -1 8 -7 0 -15 -7 -18 -15z"/>
<path d="M5676 4127 c3 -10 9 -15 12 -12 3 3 0 11 -7 18 -10 9 -11 8 -5 -6z"/>
<path d="M5745 4113 c0 -14 -6 -28 -12 -30 -7 -3 -13 3 -13 12 0 9 -5 13 -10
10 -16 -10 7 -34 31 -32 14 1 19 9 19 29 0 15 -4 29 -8 32 -4 2 -8 -7 -7 -21z"/>
<path d="M5827 4133 c-13 -12 -7 -54 8 -59 8 -4 22 -1 31 7 18 15 15 51 -6 57
-13 5 -13 3 -1 -11 16 -20 8 -47 -15 -47 -12 0 -15 7 -12 30 5 32 5 33 -5 23z"/>
<path d="M5900 4105 c0 -19 2 -35 4 -35 2 0 6 16 8 35 2 19 0 35 -4 35 -4 0
-8 -16 -8 -35z"/>
<path d="M6018 4105 c2 -19 6 -35 8 -35 2 0 4 16 4 35 0 19 -4 35 -8 35 -4 0
-6 -16 -4 -35z"/>
<path d="M6060 4105 c0 -19 2 -35 4 -35 2 0 6 16 8 35 2 19 0 35 -4 35 -4 0
-8 -16 -8 -35z"/>
<path d="M6104 4126 c-11 -28 1 -51 26 -53 l25 -3 -24 10 c-18 8 -22 16 -19
35 6 27 1 33 -8 11z"/>
<path d="M6136 4125 c4 -8 10 -15 15 -15 4 0 6 7 3 15 -4 8 -10 15 -15 15 -4
0 -6 -7 -3 -15z"/>
<path d="M6215 4113 c0 -14 -6 -28 -12 -30 -7 -3 -13 3 -13 12 0 9 -5 13 -10
10 -16 -10 7 -34 31 -32 14 1 19 9 19 29 0 15 -4 29 -8 32 -4 2 -8 -7 -7 -21z"/>
<path d="M6315 4119 c-6 -17 -9 -19 -16 -8 -7 12 -9 11 -9 -1 0 -8 4 -22 9
-29 8 -12 11 -9 16 12 4 15 11 24 16 21 5 -3 9 -1 9 5 0 20 -19 20 -25 0z"/>
<path d="M6361 4124 c0 -11 3 -14 6 -6 3 7 2 16 -1 19 -3 4 -6 -2 -5 -13z"/>
<path d="M6393 4105 c0 -22 2 -30 4 -17 2 12 2 30 0 40 -3 9 -5 -1 -4 -23z"/>
<path d="M6629 4102 c5 -34 6 -35 9 -8 2 16 0 32 -5 37 -5 5 -7 -7 -4 -29z"/>
<path d="M6663 4108 c2 -28 6 -34 30 -36 25 -3 27 -1 26 35 -1 36 -2 37 -8 8
-9 -42 -38 -45 -45 -6 l-6 31 3 -32z"/>
<path d="M6740 4105 c0 -19 2 -35 4 -35 2 0 6 16 8 35 2 19 0 35 -4 35 -4 0
-8 -16 -8 -35z"/>
<path d="M6779 4103 c4 -31 6 -33 9 -13 2 14 9 31 14 38 8 9 5 12 -9 12 -16 0
-18 -5 -14 -37z"/>
<path d="M6829 4102 c5 -34 6 -35 9 -8 2 16 0 32 -5 37 -5 5 -7 -7 -4 -29z"/>
<path d="M6901 4113 c-1 -23 -6 -33 -17 -33 -10 0 -14 6 -10 15 3 8 1 15 -4
15 -16 0 -12 -30 4 -36 30 -12 41 0 35 36 l-6 35 -2 -32z"/>
<path d="M6940 4105 c0 -19 2 -35 4 -35 2 0 6 16 8 35 2 19 0 35 -4 35 -4 0
-8 -16 -8 -35z"/>
<path d="M6978 4105 c2 -19 6 -35 8 -35 2 0 4 16 4 35 0 19 -4 35 -8 35 -4 0
-6 -16 -4 -35z"/>
<path d="M7088 4105 c2 -19 6 -35 8 -35 2 0 4 16 4 35 0 19 -4 35 -8 35 -4 0
-6 -16 -4 -35z"/>
<path d="M7124 4125 c-13 -32 25 -70 47 -48 6 6 2 9 -13 9 -26 -1 -38 32 -16
45 10 7 10 9 0 9 -7 0 -15 -7 -18 -15z"/>
<path d="M7276 4127 c3 -10 9 -15 12 -12 3 3 0 11 -7 18 -10 9 -11 8 -5 -6z"/>
<path d="M7353 4105 c0 -22 2 -30 4 -17 2 12 2 30 0 40 -3 9 -5 -1 -4 -23z"/>
<path d="M7433 4105 c0 -22 2 -30 4 -17 2 12 2 30 0 40 -3 9 -5 -1 -4 -23z"/>
<path d="M7467 4133 c-4 -3 -7 -17 -7 -30 0 -26 26 -41 42 -25 8 8 4 9 -12 5
-21 -6 -22 -3 -18 25 5 34 5 35 -5 25z"/>
<path d="M7496 4125 c4 -8 8 -15 10 -15 2 0 4 7 4 15 0 8 -4 15 -10 15 -5 0
-7 -7 -4 -15z"/>
<path d="M7535 4131 c-3 -5 -2 -12 3 -15 5 -3 9 1 9 9 0 17 -3 19 -12 6z"/>
<path d="M7759 4102 c5 -34 6 -35 9 -8 2 16 0 32 -5 37 -5 5 -7 -7 -4 -29z"/>
<path d="M7794 4126 c-11 -28 1 -51 26 -53 l25 -3 -24 10 c-18 8 -22 16 -19
35 6 27 1 33 -8 11z"/>
<path d="M7826 4125 c4 -8 10 -15 15 -15 4 0 6 7 3 15 -4 8 -10 15 -15 15 -4
0 -6 -7 -3 -15z"/>
<path d="M7938 4105 c2 -19 6 -35 8 -35 2 0 4 16 4 35 0 19 -4 35 -8 35 -4 0
-6 -16 -4 -35z"/>
<path d="M7975 4120 c-13 -41 35 -68 55 -31 11 21 4 51 -12 51 -7 0 -6 -5 1
-14 13 -16 4 -46 -14 -46 -18 0 -27 30 -14 46 8 9 8 14 1 14 -6 0 -14 -9 -17
-20z"/>
<path d="M8107 4133 c-12 -12 -7 -22 13 -28 27 -9 26 -29 -1 -22 -16 4 -19 3
-11 -5 14 -14 42 -3 42 16 0 7 -9 16 -21 19 -12 3 -18 10 -14 16 7 12 2 15 -8
4z"/>
<path d="M8170 4093 c0 -27 4 -43 8 -37 4 7 16 13 27 15 21 4 33 45 18 60 -5
5 -9 -3 -8 -19 0 -17 -5 -27 -15 -27 -10 0 -15 10 -15 28 1 15 -3 27 -7 27 -4
0 -8 -21 -8 -47z"/>
<path d="M8253 4124 c-8 -22 10 -49 33 -49 21 0 33 40 17 56 -6 6 -8 -3 -5
-22 4 -26 2 -30 -14 -27 -23 4 -31 37 -12 49 10 7 10 9 0 9 -7 0 -15 -7 -19
-16z"/>
<path d="M8413 4124 c-7 -19 7 -46 28 -51 8 -3 7 0 -3 7 -21 13 -24 46 -5 53
9 4 9 6 -1 6 -7 1 -15 -6 -19 -15z"/>
<path d="M8494 4126 c-11 -28 1 -51 26 -53 l25 -3 -24 10 c-18 8 -22 16 -19
35 6 27 1 33 -8 11z"/>
<path d="M8526 4125 c4 -8 10 -15 15 -15 4 0 6 7 3 15 -4 8 -10 15 -15 15 -4
0 -6 -7 -3 -15z"/>
<path d="M8614 4126 c-11 -28 1 -51 26 -53 l25 -3 -24 10 c-18 8 -22 16 -19
35 6 27 1 33 -8 11z"/>
<path d="M8646 4125 c4 -8 10 -15 15 -15 4 0 6 7 3 15 -4 8 -10 15 -15 15 -4
0 -6 -7 -3 -15z"/>
<path d="M8685 4120 c-11 -33 32 -68 49 -41 4 5 -2 7 -13 4 -22 -6 -36 24 -20
43 8 9 8 14 1 14 -6 0 -14 -9 -17 -20z"/>
<path d="M8805 4120 c-11 -33 32 -68 49 -41 4 5 -4 7 -15 4 -19 -5 -21 -3 -17
25 5 36 -7 43 -17 12z"/>
<path d="M8846 4125 c4 -8 8 -15 10 -15 2 0 4 7 4 15 0 8 -4 15 -10 15 -5 0
-7 -7 -4 -15z"/>
<path d="M8882 4108 c2 -25 8 -34 26 -36 12 -2 22 1 22 6 0 6 -10 8 -21 5 -19
-5 -21 -3 -17 25 2 18 1 32 -4 32 -5 0 -8 -15 -6 -32z"/>
<path d="M8915 4130 c3 -5 8 -10 11 -10 2 0 4 5 4 10 0 6 -5 10 -11 10 -5 0
-7 -4 -4 -10z"/>
<path d="M6522 4095 c0 -16 2 -22 5 -12 2 9 2 23 0 30 -3 6 -5 -1 -5 -18z"/>
<path d="M7302 4104 c-7 -8 -10 -19 -6 -26 5 -7 10 -3 16 12 10 28 7 33 -10
14z"/>
<path d="M4722 4093 c2 -9 10 -18 18 -20 12 -4 13 -3 1 5 -7 5 -10 15 -7 21 4
6 2 11 -4 11 -6 0 -10 -8 -8 -17z"/>
<path d="M5982 4093 c2 -9 10 -18 18 -20 12 -4 13 -3 1 5 -7 5 -10 15 -7 21 4
6 2 11 -4 11 -6 0 -10 -8 -8 -17z"/>
<path d="M7052 4093 c2 -9 10 -18 18 -20 12 -4 13 -3 1 5 -7 5 -10 15 -7 21 4
6 2 11 -4 11 -6 0 -10 -8 -8 -17z"/>
<path d="M7567 4093 c5 -13 2 -15 -17 -10 -16 4 -20 3 -12 -5 14 -14 42 -3 42
17 0 8 -4 15 -10 15 -5 0 -7 -7 -3 -17z"/>
<path d="M6340 4090 c0 -5 5 -10 10 -10 6 0 10 5 10 10 0 6 -4 10 -10 10 -5 0
-10 -4 -10 -10z"/>
<path d="M3913 3920 c0 -30 2 -43 4 -27 2 15 2 39 0 55 -2 15 -4 2 -4 -28z"/>
<path d="M3988 3953 c-2 -10 -1 -34 3 -53 6 -31 6 -30 8 18 1 52 -3 67 -11 35z"/>
<path d="M4063 3920 c0 -30 2 -43 4 -27 2 15 2 39 0 55 -2 15 -4 2 -4 -28z"/>
<path d="M4123 3920 c-1 -30 1 -47 4 -37 2 9 7 17 10 17 4 0 15 -8 27 -17 19
-18 19 -18 3 6 -13 19 -14 28 -5 40 10 13 10 14 -2 4 -21 -19 -28 -16 -33 15
-2 15 -4 2 -4 -28z"/>
<path d="M4273 3920 c0 -30 2 -43 4 -27 2 15 2 39 0 55 -2 15 -4 2 -4 -28z"/>
<path d="M4401 3924 c-1 -49 0 -51 27 -50 23 1 27 6 30 34 2 17 -1 32 -5 32
-5 0 -9 -12 -8 -27 0 -18 -5 -28 -15 -28 -19 0 -26 35 -8 46 8 6 9 9 1 9 -6 0
-14 8 -16 18 -3 9 -5 -6 -6 -34z"/>
<path d="M4639 3953 c-1 -10 -2 -29 -2 -43 -3 -35 -32 -33 -32 2 1 16 -3 24
-8 19 -5 -5 -7 -19 -5 -32 2 -18 10 -24 31 -25 26 -1 27 1 27 47 0 46 -9 70
-11 32z"/>
<path d="M5033 3920 c0 -30 2 -42 4 -25 3 16 10 33 16 37 9 6 9 8 0 8 -6 0
-14 8 -16 18 -3 9 -5 -8 -4 -38z"/>
<path d="M5220 3920 c0 -29 2 -51 5 -48 8 7 9 87 2 95 -4 3 -7 -18 -7 -47z"/>
<path d="M4832 3919 c2 -27 8 -44 18 -46 12 -4 13 -3 1 5 -9 7 -12 20 -8 41 4
17 2 33 -4 37 -7 4 -9 -9 -7 -37z"/>
<path d="M4992 3919 c2 -27 8 -44 18 -46 12 -4 13 -3 1 5 -9 7 -12 20 -8 41 4
17 2 33 -4 37 -7 4 -9 -9 -7 -37z"/>
<path d="M5841 3918 c-1 -27 3 -48 7 -48 4 0 6 17 4 38 -5 58 -10 62 -11 10z"/>
<path d="M6021 3923 c-1 -23 3 -44 7 -47 4 -2 6 12 4 32 -5 56 -10 62 -11 15z"/>
<path d="M3675 3919 c-6 -17 -9 -19 -16 -8 -7 12 -9 11 -9 -1 0 -8 4 -22 9
-29 8 -12 11 -9 16 12 4 15 11 24 16 21 5 -3 9 -1 9 5 0 20 -19 20 -25 0z"/>
<path d="M3721 3924 c0 -11 3 -14 6 -6 3 7 2 16 -1 19 -3 4 -6 -2 -5 -13z"/>
<path d="M3757 3934 c-11 -11 -8 -52 3 -59 6 -3 19 -3 31 0 28 9 23 59 -6 63
-12 2 -24 0 -28 -4z m41 -26 c-2 -13 -10 -23 -18 -23 -8 0 -16 10 -18 23 -3
17 2 22 18 22 16 0 21 -5 18 -22z"/>
<path d="M3833 3908 c2 -28 6 -34 30 -36 25 -3 27 -1 26 35 -1 36 -2 37 -8 8
-9 -42 -38 -45 -45 -6 l-6 31 3 -32z"/>
<path d="M3943 3924 c-7 -19 7 -46 28 -51 8 -3 7 0 -3 7 -21 13 -24 46 -5 53
9 4 9 6 -1 6 -7 1 -15 -6 -19 -15z"/>
<path d="M4093 3905 c0 -22 2 -30 4 -17 2 12 2 30 0 40 -3 9 -5 -1 -4 -23z"/>
<path d="M4194 3925 c-13 -32 25 -70 47 -48 6 6 2 9 -12 9 -24 -1 -36 33 -16
46 9 6 9 8 -1 8 -7 0 -15 -7 -18 -15z"/>
<path d="M4236 3927 c3 -10 9 -15 12 -12 3 3 0 11 -7 18 -10 9 -11 8 -5 -6z"/>
<path d="M4301 3933 c-1 -6 4 -24 9 -39 8 -19 7 -31 -2 -42 -11 -13 -11 -14 0
-8 13 8 24 30 36 76 l7 25 -15 -25 -15 -25 -10 25 c-5 14 -10 20 -10 13z"/>
<path d="M4484 3926 c-11 -28 1 -51 26 -53 l25 -3 -24 10 c-18 8 -22 16 -19
35 6 27 1 33 -8 11z"/>
<path d="M4516 3925 c4 -8 10 -15 15 -15 4 0 6 7 3 15 -4 8 -10 15 -15 15 -4
0 -6 -7 -3 -15z"/>
<path d="M4673 3908 c1 -26 7 -34 25 -36 20 -3 22 1 20 35 -1 37 -1 37 -5 6
-5 -42 -30 -43 -37 -3 -6 30 -6 30 -3 -2z"/>
<path d="M4750 3905 c0 -19 2 -35 4 -35 2 0 6 16 8 35 2 19 0 35 -4 35 -4 0
-8 -16 -8 -35z"/>
<path d="M4873 3924 c-8 -22 10 -49 33 -49 21 0 33 40 17 56 -6 6 -8 -3 -5
-22 4 -26 2 -30 -14 -27 -23 4 -31 37 -12 49 10 7 10 9 0 9 -7 0 -15 -7 -19
-16z"/>
<path d="M5079 3902 c5 -34 6 -35 9 -8 2 16 0 32 -5 37 -5 5 -7 -7 -4 -29z"/>
<path d="M5114 3926 c-11 -28 1 -51 26 -53 l25 -3 -24 10 c-18 8 -22 16 -19
35 6 27 1 33 -8 11z"/>
<path d="M5146 3925 c4 -8 10 -15 15 -15 4 0 6 7 3 15 -4 8 -10 15 -15 15 -4
0 -6 -7 -3 -15z"/>
<path d="M5258 3905 c2 -19 6 -35 8 -35 2 0 4 16 4 35 0 19 -4 35 -8 35 -4 0
-6 -16 -4 -35z"/>
<path d="M5343 3905 c0 -22 2 -30 4 -17 2 12 2 30 0 40 -3 9 -5 -1 -4 -23z"/>
<path d="M5370 3905 c0 -19 2 -35 4 -35 2 0 6 16 8 35 2 19 0 35 -4 35 -4 0
-8 -16 -8 -35z"/>
<path d="M5418 3905 c2 -19 5 -35 7 -35 2 0 5 16 7 35 2 21 0 35 -7 35 -7 0
-9 -14 -7 -35z"/>
<path d="M5456 3925 c4 -8 8 -15 10 -15 2 0 4 7 4 15 0 8 -4 15 -10 15 -5 0
-7 -7 -4 -15z"/>
<path d="M5535 3913 c0 -14 -6 -28 -12 -30 -7 -3 -13 3 -13 12 0 9 -5 13 -10
10 -16 -10 7 -34 31 -32 14 1 19 9 19 29 0 15 -4 29 -8 32 -4 2 -8 -7 -7 -21z"/>
<path d="M5570 3905 c0 -19 2 -35 4 -35 2 0 6 16 8 35 2 19 0 35 -4 35 -4 0
-8 -16 -8 -35z"/>
<path d="M5724 3912 c1 -18 -4 -27 -14 -27 -8 0 -14 7 -12 15 3 11 1 12 -8 3
-17 -16 -3 -33 25 -31 20 2 25 8 25 30 0 15 -4 29 -9 32 -4 3 -8 -7 -7 -22z"/>
<path d="M5767 3933 c-4 -3 -7 -17 -7 -30 0 -26 25 -42 42 -25 7 7 4 10 -8 9
-14 -2 -19 5 -19 26 1 30 1 30 -8 20z"/>
<path d="M5883 3905 c0 -22 2 -30 4 -17 2 12 2 30 0 40 -3 9 -5 -1 -4 -23z"/>
<path d="M5911 3939 c-1 -3 4 -21 10 -39 l12 -33 13 24 c7 13 13 31 13 39 0 8
-5 2 -11 -14 l-11 -29 -13 29 c-7 16 -13 26 -13 23z"/>
<path d="M5983 3905 c0 -22 2 -30 4 -17 2 12 2 30 0 40 -3 9 -5 -1 -4 -23z"/>
<path d="M6063 3905 c0 -22 2 -30 4 -17 2 12 2 30 0 40 -3 9 -5 -1 -4 -23z"/>
<path d="M6094 3925 c-13 -32 25 -70 47 -48 6 6 2 9 -12 9 -24 -1 -36 33 -16
46 9 6 9 8 -1 8 -7 0 -15 -7 -18 -15z"/>
<path d="M6136 3927 c3 -10 9 -15 12 -12 3 3 0 11 -7 18 -10 9 -11 8 -5 -6z"/>
<path d="M6170 3926 c0 -8 9 -18 20 -21 27 -9 26 -29 -1 -22 -16 4 -19 3 -11
-5 12 -12 42 -4 42 11 0 6 -9 15 -20 21 -11 6 -18 15 -15 21 4 5 1 9 -4 9 -6
0 -11 -6 -11 -14z"/>
<path d="M5622 3895 c0 -16 2 -22 5 -12 2 9 2 23 0 30 -3 6 -5 -1 -5 -18z"/>
<path d="M3700 3890 c0 -5 5 -10 10 -10 6 0 10 5 10 10 0 6 -4 10 -10 10 -5 0
-10 -4 -10 -10z"/>
<path d="M5300 3891 c0 -10 19 -25 25 -20 1 2 -3 10 -11 17 -8 7 -14 8 -14 3z"/>
<path d="M3506 3674 c-32 -31 -9 -95 29 -80 16 6 21 41 7 50 -5 3 -8 -5 -8
-17 1 -13 -5 -22 -14 -22 -24 0 -21 53 4 70 11 8 15 15 9 15 -6 0 -19 -7 -27
-16z"/>
<path d="M3653 3640 c0 -30 2 -43 4 -27 2 15 2 39 0 55 -2 15 -4 2 -4 -28z"/>
<path d="M3691 3638 c1 -55 5 -50 11 15 2 20 0 37 -4 37 -4 0 -7 -24 -7 -52z"/>
<path d="M3813 3640 c0 -30 2 -42 4 -25 3 16 10 33 16 37 9 6 9 8 0 8 -6 0
-14 8 -16 18 -3 9 -5 -8 -4 -38z"/>
<path d="M4003 3640 c0 -30 2 -43 4 -27 2 15 2 39 0 55 -2 15 -4 2 -4 -28z"/>
<path d="M4794 3676 c-3 -8 -4 -31 -2 -52 3 -36 4 -35 8 14 5 53 4 63 -6 38z"/>
<path d="M5570 3640 c0 -29 2 -51 5 -48 8 7 9 87 2 95 -4 3 -7 -18 -7 -47z"/>
<path d="M6130 3640 c0 -29 2 -51 5 -48 8 7 9 87 2 95 -4 3 -7 -18 -7 -47z"/>
<path d="M6320 3640 c0 -29 2 -51 5 -48 8 7 9 87 2 95 -4 3 -7 -18 -7 -47z"/>
<path d="M6500 3640 c0 -29 2 -51 5 -48 8 7 9 87 2 95 -4 3 -7 -18 -7 -47z"/>
<path d="M6960 3640 c0 -29 2 -51 5 -48 8 7 9 87 2 95 -4 3 -7 -18 -7 -47z"/>
<path d="M7488 3673 c-2 -10 -1 -34 3 -53 6 -31 6 -30 8 18 1 52 -3 67 -11 35z"/>
<path d="M7877 3677 c-2 -7 -1 -30 3 -52 l8 -40 1 53 c1 52 -2 64 -12 39z"/>
<path d="M8281 3638 c1 -55 5 -50 11 15 2 20 0 37 -4 37 -4 0 -7 -24 -7 -52z"/>
<path d="M8543 3640 c0 -30 2 -43 4 -27 4 22 9 27 33 27 24 0 29 -5 33 -27 2
-16 4 -3 4 27 0 30 -2 45 -4 33 -3 -18 -11 -23 -33 -23 -22 0 -30 5 -33 23 -2
12 -4 -3 -4 -33z"/>
<path d="M3772 3639 c2 -27 8 -44 18 -46 12 -4 13 -3 1 5 -9 7 -12 20 -8 41 4
17 2 33 -4 37 -7 4 -9 -9 -7 -37z"/>
<path d="M4271 3638 c-1 -27 3 -48 7 -48 4 0 6 17 4 38 -5 58 -10 62 -11 10z"/>
<path d="M5111 3643 c-1 -23 3 -44 7 -47 4 -2 6 12 4 32 -5 56 -10 62 -11 15z"/>
<path d="M6921 3638 c-1 -27 3 -48 7 -48 4 0 6 17 4 38 -5 58 -10 62 -11 10z"/>
<path d="M7231 3643 c-1 -23 3 -44 7 -47 4 -2 6 12 4 32 -5 56 -10 62 -11 15z"/>
<path d="M5520 3660 c0 -5 5 -10 10 -10 6 0 10 5 10 10 0 6 -4 10 -10 10 -5 0
-10 -4 -10 -10z"/>
<path d="M7110 3660 c0 -5 5 -10 10 -10 6 0 10 5 10 10 0 6 -4 10 -10 10 -5 0
-10 -4 -10 -10z"/>
<path d="M7710 3660 c0 -5 5 -10 10 -10 6 0 10 5 10 10 0 6 -4 10 -10 10 -5 0
-10 -4 -10 -10z"/>
<path d="M8190 3660 c0 -5 5 -10 10 -10 6 0 10 5 10 10 0 6 -4 10 -10 10 -5 0
-10 -4 -10 -10z"/>
<path d="M3859 3622 c5 -34 6 -35 9 -8 2 16 0 32 -5 37 -5 5 -7 -7 -4 -29z"/>
<path d="M3894 3646 c-11 -28 1 -51 26 -53 l25 -3 -24 10 c-18 8 -22 16 -19
35 6 27 1 33 -8 11z"/>
<path d="M3926 3645 c4 -8 10 -15 15 -15 4 0 6 7 3 15 -4 8 -10 15 -15 15 -4
0 -6 -7 -3 -15z"/>
<path d="M4033 3644 c-8 -22 10 -49 33 -49 21 0 33 40 17 56 -6 6 -8 -3 -5
-22 4 -26 2 -30 -14 -27 -23 4 -31 37 -12 49 10 7 10 9 0 9 -7 0 -15 -7 -19
-16z"/>
<path d="M4114 3645 c-13 -32 25 -70 47 -48 6 6 2 9 -13 9 -26 -1 -38 32 -16
45 10 7 10 9 0 9 -7 0 -15 -7 -18 -15z"/>
<path d="M4225 3633 c0 -14 -6 -28 -12 -30 -7 -3 -13 3 -13 12 0 9 -5 13 -10
10 -16 -10 7 -34 31 -32 14 1 19 9 19 29 0 15 -4 29 -8 32 -4 2 -8 -7 -7 -21z"/>
<path d="M4313 3625 c0 -22 2 -30 4 -17 2 12 2 30 0 40 -3 9 -5 -1 -4 -23z"/>
<path d="M4343 3644 c-8 -22 10 -49 33 -49 21 0 33 40 17 56 -6 6 -8 -3 -5
-22 4 -26 2 -30 -14 -27 -23 4 -31 37 -12 49 10 7 10 9 0 9 -7 0 -15 -7 -19
-16z"/>
<path d="M4421 3623 c2 -35 2 -35 6 -8 3 16 10 33 16 37 8 5 6 8 -5 8 -14 0
-18 -8 -17 -37z"/>
<path d="M4469 3622 c5 -34 6 -35 9 -8 2 16 0 32 -5 37 -5 5 -7 -7 -4 -29z"/>
<path d="M4570 3646 c0 -8 9 -18 20 -21 27 -9 26 -29 -1 -22 -16 4 -19 3 -11
-5 12 -12 42 -4 42 11 0 6 -9 15 -20 21 -11 6 -18 15 -15 21 4 5 1 9 -4 9 -6
0 -11 -6 -11 -14z"/>
<path d="M4715 3633 c0 -14 -6 -28 -12 -30 -7 -3 -13 3 -13 12 0 9 -5 13 -10
10 -16 -10 7 -34 31 -32 14 1 19 9 19 29 0 15 -4 29 -8 32 -4 2 -8 -7 -7 -21z"/>
<path d="M4833 3644 c-8 -22 10 -49 33 -49 21 0 33 40 17 56 -6 6 -8 -3 -5
-22 4 -26 2 -30 -14 -27 -23 4 -31 37 -12 49 10 7 10 9 0 9 -7 0 -15 -7 -19
-16z"/>
<path d="M4911 3623 c2 -35 2 -35 6 -8 3 16 10 33 16 37 8 5 6 8 -5 8 -14 0
-18 -8 -17 -37z"/>
<path d="M4964 3646 c-11 -28 1 -51 26 -53 l25 -3 -24 10 c-18 8 -22 16 -19
35 6 27 1 33 -8 11z"/>
<path d="M4996 3645 c4 -8 10 -15 15 -15 4 0 6 7 3 15 -4 8 -10 15 -15 15 -4
0 -6 -7 -3 -15z"/>
<path d="M5035 3651 c-3 -5 -2 -12 3 -15 5 -3 9 1 9 9 0 17 -3 19 -12 6z"/>
<path d="M5225 3633 c0 -14 -6 -28 -12 -30 -7 -3 -13 3 -13 12 0 9 -5 13 -10
10 -16 -10 7 -34 31 -32 14 1 19 9 19 29 0 15 -4 29 -8 32 -4 2 -8 -7 -7 -21z"/>
<path d="M5261 3623 c2 -35 2 -35 6 -8 3 16 10 33 16 37 8 5 6 8 -5 8 -14 0
-18 -8 -17 -37z"/>
<path d="M5317 3653 c-4 -3 -7 -17 -7 -30 0 -26 26 -41 42 -25 8 8 4 9 -12 5
-21 -6 -22 -3 -18 25 5 34 5 35 -5 25z"/>
<path d="M5346 3645 c4 -8 8 -15 10 -15 2 0 4 7 4 15 0 8 -4 15 -10 15 -5 0
-7 -7 -4 -15z"/>
<path d="M5424 3632 c1 -18 -4 -27 -14 -27 -8 0 -14 7 -12 15 3 11 1 12 -8 3
-17 -16 -3 -33 25 -31 20 2 25 8 25 30 0 15 -4 29 -9 32 -4 3 -8 -7 -7 -22z"/>
<path d="M5608 3625 c2 -19 6 -35 8 -35 2 0 4 16 4 35 0 19 -4 35 -8 35 -4 0
-6 -16 -4 -35z"/>
<path d="M5644 3645 c-13 -32 25 -70 47 -48 6 6 2 9 -12 9 -24 -1 -36 33 -16
46 9 6 9 8 -1 8 -7 0 -15 -7 -18 -15z"/>
<path d="M5686 3647 c3 -10 9 -15 12 -12 3 3 0 11 -7 18 -10 9 -11 8 -5 -6z"/>
<path d="M5720 3625 c0 -19 2 -35 4 -35 2 0 6 16 8 35 2 19 0 35 -4 35 -4 0
-8 -16 -8 -35z"/>
<path d="M5765 3640 c-11 -33 32 -68 49 -41 4 5 -4 7 -15 4 -19 -5 -21 -3 -17
25 5 36 -7 43 -17 12z"/>
<path d="M5806 3645 c4 -8 8 -15 10 -15 2 0 4 7 4 15 0 8 -4 15 -10 15 -5 0
-7 -7 -4 -15z"/>
<path d="M5910 3646 c0 -8 9 -18 20 -21 27 -9 26 -29 -1 -22 -16 4 -19 3 -11
-5 12 -12 42 -4 42 11 0 6 -9 15 -20 21 -11 6 -18 15 -15 21 4 5 1 9 -4 9 -6
0 -11 -6 -11 -14z"/>
<path d="M6054 3632 c1 -18 -4 -27 -14 -27 -8 0 -14 7 -12 15 3 11 1 12 -8 3
-17 -16 -3 -33 25 -31 20 2 25 8 25 30 0 15 -4 29 -9 32 -4 3 -8 -7 -7 -22z"/>
<path d="M6168 3625 c2 -19 6 -35 8 -35 2 0 4 16 4 35 0 19 -4 35 -8 35 -4 0
-6 -16 -4 -35z"/>
<path d="M6240 3649 c0 -5 5 -7 10 -4 6 3 10 8 10 11 0 2 -4 4 -10 4 -5 0 -10
-5 -10 -11z"/>
<path d="M6278 3625 c2 -20 -1 -42 -8 -50 -11 -13 -10 -14 4 -9 11 4 16 19 16
50 0 24 -4 44 -8 44 -4 0 -6 -16 -4 -35z"/>
<path d="M6358 3625 c2 -19 6 -35 8 -35 2 0 4 16 4 35 0 19 -4 35 -8 35 -4 0
-6 -16 -4 -35z"/>
<path d="M6425 3640 c-11 -33 32 -68 49 -41 4 5 -2 7 -13 4 -22 -6 -36 24 -20
43 8 9 8 14 1 14 -6 0 -14 -9 -17 -20z"/>
<path d="M6615 3633 c0 -14 -6 -28 -12 -30 -7 -3 -13 3 -13 12 0 9 -5 13 -10
10 -16 -10 7 -34 31 -32 14 1 19 9 19 29 0 15 -4 29 -8 32 -4 2 -8 -7 -7 -21z"/>
<path d="M6651 3623 c2 -35 2 -35 6 -8 3 16 10 33 16 37 8 5 6 8 -5 8 -14 0
-18 -8 -17 -37z"/>
<path d="M6699 3622 c5 -34 6 -35 9 -8 2 16 0 32 -5 37 -5 5 -7 -7 -4 -29z"/>
<path d="M6737 3653 c-4 -3 -7 -17 -7 -30 0 -26 25 -42 42 -25 7 7 4 10 -8 9
-14 -2 -19 5 -19 26 1 30 1 30 -8 20z"/>
<path d="M6804 3645 c-13 -32 25 -70 47 -48 6 6 2 9 -12 9 -24 -1 -36 33 -16
46 9 6 9 8 -1 8 -7 0 -15 -7 -18 -15z"/>
<path d="M6846 3647 c3 -10 9 -15 12 -12 3 3 0 11 -7 18 -10 9 -11 8 -5 -6z"/>
<path d="M6998 3625 c2 -19 6 -35 8 -35 2 0 4 16 4 35 0 19 -4 35 -8 35 -4 0
-6 -16 -4 -35z"/>
<path d="M7075 3633 c0 -14 -6 -28 -12 -30 -7 -3 -13 3 -13 12 0 9 -5 13 -10
10 -16 -10 7 -34 31 -32 14 1 19 9 19 29 0 15 -4 29 -8 32 -4 2 -8 -7 -7 -21z"/>
<path d="M7193 3625 c0 -22 2 -30 4 -17 2 12 2 30 0 40 -3 9 -5 -1 -4 -23z"/>
<path d="M7313 3625 c0 -22 2 -30 4 -17 2 12 2 30 0 40 -3 9 -5 -1 -4 -23z"/>
<path d="M7347 3653 c-12 -12 -7 -22 13 -28 27 -9 26 -29 -1 -22 -16 4 -19 3
-11 -5 14 -14 42 -3 42 16 0 7 -9 16 -21 19 -12 3 -18 10 -14 16 7 12 2 15 -8
4z"/>
<path d="M7446 3644 c-7 -18 10 -54 25 -54 6 0 3 7 -5 16 -19 19 -20 26 -4 42
8 8 8 12 1 12 -6 0 -14 -7 -17 -16z"/>
<path d="M7573 3625 c0 -22 2 -30 4 -17 2 12 2 30 0 40 -3 9 -5 -1 -4 -23z"/>
<path d="M7604 3645 c-13 -32 25 -70 47 -48 6 6 2 9 -12 9 -24 -1 -36 33 -16
46 9 6 9 8 -1 8 -7 0 -15 -7 -18 -15z"/>
<path d="M7646 3647 c3 -10 9 -15 12 -12 3 3 0 11 -7 18 -10 9 -11 8 -5 -6z"/>
<path d="M7755 3640 c-13 -41 35 -68 55 -31 11 21 4 51 -12 51 -7 0 -6 -5 1
-14 13 -16 4 -46 -14 -46 -18 0 -27 30 -14 46 8 9 8 14 1 14 -6 0 -14 -9 -17
-20z"/>
<path d="M7927 3653 c-13 -12 -7 -54 8 -59 8 -4 22 -1 31 7 18 15 15 51 -6 57
-13 5 -13 3 -1 -11 16 -20 8 -47 -15 -47 -12 0 -15 7 -12 30 5 32 5 33 -5 23z"/>
<path d="M8000 3625 c0 -19 2 -35 4 -35 2 0 6 16 8 35 2 19 0 35 -4 35 -4 0
-8 -16 -8 -35z"/>
<path d="M8045 3640 c-11 -33 32 -68 49 -41 4 5 -4 7 -15 4 -19 -5 -21 -3 -17
25 5 36 -7 43 -17 12z"/>
<path d="M8086 3645 c4 -8 8 -15 10 -15 2 0 4 7 4 15 0 8 -4 15 -10 15 -5 0
-7 -7 -4 -15z"/>
<path d="M8120 3646 c0 -8 9 -18 20 -21 27 -9 26 -29 -1 -22 -16 4 -19 3 -11
-5 12 -12 42 -4 42 11 0 6 -9 15 -20 21 -11 6 -18 15 -15 21 4 5 1 9 -4 9 -6
0 -11 -6 -11 -14z"/>
<path d="M8323 3625 c0 -22 2 -30 4 -17 2 12 2 30 0 40 -3 9 -5 -1 -4 -23z"/>
<path d="M8351 3623 c2 -35 2 -35 6 -8 3 16 10 33 16 37 8 5 6 8 -5 8 -14 0
-18 -8 -17 -37z"/>
<path d="M8395 3640 c-11 -33 32 -68 49 -41 4 5 -4 7 -15 4 -19 -5 -21 -3 -17
25 5 36 -7 43 -17 12z"/>
<path d="M8436 3645 c4 -8 8 -15 10 -15 2 0 4 7 4 15 0 8 -4 15 -10 15 -5 0
-7 -7 -4 -15z"/>
<path d="M8643 3628 c2 -28 6 -34 30 -36 25 -3 27 -1 26 35 -1 36 -2 37 -8 8
-9 -42 -38 -45 -45 -6 l-6 31 3 -32z"/>
<path d="M8720 3625 c0 -19 2 -35 4 -35 2 0 6 16 8 35 2 19 0 35 -4 35 -4 0
-8 -16 -8 -35z"/>
<path d="M8759 3623 c4 -31 6 -33 9 -13 2 14 9 31 14 38 8 9 5 12 -9 12 -16 0
-18 -5 -14 -37z"/>
<path d="M8809 3622 c5 -34 6 -35 9 -8 2 16 0 32 -5 37 -5 5 -7 -7 -4 -29z"/>
<path d="M8881 3633 c-1 -23 -6 -33 -17 -33 -10 0 -14 6 -10 15 3 8 1 15 -4
15 -16 0 -12 -30 4 -36 30 -12 41 0 35 36 l-6 35 -2 -32z"/>
<path d="M8920 3625 c0 -19 2 -35 4 -35 2 0 6 16 8 35 2 19 0 35 -4 35 -4 0
-8 -16 -8 -35z"/>
<path d="M8958 3625 c2 -19 6 -35 8 -35 2 0 4 16 4 35 0 19 -4 35 -8 35 -4 0
-6 -16 -4 -35z"/>
<path d="M6552 3615 c0 -16 2 -22 5 -12 2 9 2 23 0 30 -3 6 -5 -1 -5 -18z"/>
<path d="M5067 3613 c5 -13 2 -15 -17 -10 -16 4 -20 3 -12 -5 14 -14 42 -3 42
17 0 8 -4 15 -10 15 -5 0 -7 -7 -3 -17z"/>
<path d="M6240 3610 c6 -11 15 -20 20 -20 6 0 2 9 -7 20 -10 11 -19 20 -21 20
-1 0 2 -9 8 -20z"/>
<path d="M7530 3611 c0 -10 19 -25 25 -20 1 2 -3 10 -11 17 -8 7 -14 8 -14 3z"/>
<path d="M5530 3600 c0 -5 5 -10 11 -10 5 0 7 5 4 10 -3 6 -8 10 -11 10 -2 0
-4 -4 -4 -10z"/>
<path d="M7120 3600 c0 -5 5 -10 11 -10 5 0 7 5 4 10 -3 6 -8 10 -11 10 -2 0
-4 -4 -4 -10z"/>
<path d="M7720 3600 c0 -5 5 -10 11 -10 5 0 7 5 4 10 -3 6 -8 10 -11 10 -2 0
-4 -4 -4 -10z"/>
<path d="M8200 3600 c0 -5 5 -10 11 -10 5 0 7 5 4 10 -3 6 -8 10 -11 10 -2 0
-4 -4 -4 -10z"/>
<path d="M5455 3589 c-4 -6 -5 -12 -2 -15 2 -3 7 2 10 11 7 17 1 20 -8 4z"/>
<path d="M5339 3473 c-1 -10 -2 -29 -2 -43 -3 -35 -32 -33 -32 2 1 16 -3 24
-8 19 -5 -5 -7 -19 -5 -32 2 -18 10 -24 31 -25 26 -1 27 1 27 47 0 46 -9 70
-11 32z"/>
<path d="M4061 3443 c-1 -23 3 -44 7 -47 4 -2 6 12 4 32 -5 56 -10 62 -11 15z"/>
<path d="M3653 3425 c0 -22 2 -30 4 -17 2 12 2 30 0 40 -3 9 -5 -1 -4 -23z"/>
<path d="M3680 3425 c0 -19 2 -35 4 -35 2 0 6 16 8 35 2 19 0 35 -4 35 -4 0
-8 -16 -8 -35z"/>
<path d="M3760 3446 c0 -8 9 -18 20 -21 27 -9 26 -29 -1 -22 -16 4 -19 3 -11
-5 12 -12 42 -4 42 11 0 6 -9 15 -20 21 -11 6 -18 15 -15 21 4 5 1 9 -4 9 -6
0 -11 -6 -11 -14z"/>
<path d="M3831 3408 c1 -29 4 -43 6 -32 3 16 10 20 23 17 14 -4 21 2 25 20 8
29 0 47 -18 47 -8 0 -8 -3 1 -9 18 -11 11 -46 -8 -46 -10 0 -15 10 -15 28 1
15 -3 27 -7 27 -4 0 -7 -24 -7 -52z"/>
<path d="M3917 3453 c-4 -3 -7 -17 -7 -30 0 -26 26 -41 42 -25 8 8 4 9 -12 5
-21 -6 -22 -3 -18 25 5 34 5 35 -5 25z"/>
<path d="M3946 3445 c4 -8 8 -15 10 -15 2 0 4 7 4 15 0 8 -4 15 -10 15 -5 0
-7 -7 -4 -15z"/>
<path d="M3984 3445 c-13 -32 25 -70 47 -48 6 6 2 9 -13 9 -26 -1 -38 32 -16
45 10 7 10 9 0 9 -7 0 -15 -7 -18 -15z"/>
<path d="M4103 3425 c0 -22 2 -30 4 -17 2 12 2 30 0 40 -3 9 -5 -1 -4 -23z"/>
<path d="M4135 3440 c-13 -41 35 -68 55 -31 11 21 4 51 -12 51 -7 0 -6 -5 1
-14 13 -16 4 -46 -14 -46 -18 0 -27 30 -14 46 8 9 8 14 1 14 -6 0 -14 -9 -17
-20z"/>
<path d="M4220 3425 c0 -19 2 -35 4 -35 2 0 6 16 8 35 2 19 0 35 -4 35 -4 0
-8 -16 -8 -35z"/>
<path d="M4258 3425 c2 -19 6 -35 8 -35 2 0 4 16 4 35 0 19 -4 35 -8 35 -4 0
-6 -16 -4 -35z"/>
<path d="M4333 3425 c0 -22 2 -30 4 -17 2 12 2 30 0 40 -3 9 -5 -1 -4 -23z"/>
<path d="M4367 3453 c-12 -12 -7 -22 13 -28 27 -9 26 -29 -1 -22 -16 4 -19 3
-11 -5 14 -14 42 -3 42 16 0 7 -9 16 -21 19 -12 3 -18 10 -14 16 7 12 2 15 -8
4z"/>
<path d="M4470 3425 c0 -19 2 -35 4 -35 2 0 6 16 8 35 2 19 0 35 -4 35 -4 0
-8 -16 -8 -35z"/>
<path d="M4514 3445 c-13 -32 25 -70 47 -48 6 6 2 9 -12 9 -24 -1 -36 33 -16
46 9 6 9 8 -1 8 -7 0 -15 -7 -18 -15z"/>
<path d="M4556 3447 c3 -10 9 -15 12 -12 3 3 0 11 -7 18 -10 9 -11 8 -5 -6z"/>
<path d="M4597 3453 c-4 -3 -7 -17 -7 -30 0 -26 26 -41 42 -25 8 8 4 9 -12 5
-21 -6 -22 -3 -18 25 5 34 5 35 -5 25z"/>
<path d="M4625 3450 c3 -5 8 -10 11 -10 2 0 4 5 4 10 0 6 -5 10 -11 10 -5 0
-7 -4 -4 -10z"/>
<path d="M4667 3454 c-11 -11 -8 -52 3 -59 6 -3 19 -3 31 0 28 9 23 59 -6 63
-12 2 -24 0 -28 -4z m41 -26 c-2 -13 -10 -23 -18 -23 -8 0 -16 10 -18 23 -3
17 2 22 18 22 16 0 21 -5 18 -22z"/>
<path d="M4740 3425 c0 -19 2 -35 4 -35 2 0 6 16 8 35 2 19 0 35 -4 35 -4 0
-8 -16 -8 -35z"/>
<path d="M4787 3428 c8 -44 10 -45 15 -4 3 25 0 36 -9 36 -9 0 -11 -10 -6 -32z"/>
<path d="M4828 3425 c2 -19 6 -35 8 -35 2 0 4 16 4 35 0 19 -4 35 -8 35 -4 0
-6 -16 -4 -35z"/>
<path d="M4860 3425 c0 -19 2 -35 4 -35 2 0 6 16 8 35 2 19 0 35 -4 35 -4 0
-8 -16 -8 -35z"/>
<path d="M4908 3425 c2 -19 5 -35 7 -35 2 0 5 16 7 35 2 21 0 35 -7 35 -7 0
-9 -14 -7 -35z"/>
<path d="M4946 3445 c4 -8 8 -15 10 -15 2 0 4 7 4 15 0 8 -4 15 -10 15 -5 0
-7 -7 -4 -15z"/>
<path d="M4985 3440 c-11 -33 32 -68 49 -41 4 5 -4 7 -15 4 -19 -5 -21 -3 -17
25 5 36 -7 43 -17 12z"/>
<path d="M5026 3445 c4 -8 8 -15 10 -15 2 0 4 7 4 15 0 8 -4 15 -10 15 -5 0
-7 -7 -4 -15z"/>
<path d="M5060 3425 c0 -19 2 -35 4 -35 2 0 6 16 8 35 2 19 0 35 -4 35 -4 0
-8 -16 -8 -35z"/>
<path d="M5142 3428 c2 -25 8 -34 26 -36 12 -2 22 1 22 6 0 6 -10 8 -21 5 -19
-5 -21 -3 -17 25 2 18 1 32 -4 32 -5 0 -8 -15 -6 -32z"/>
<path d="M5175 3450 c3 -5 8 -10 11 -10 2 0 4 5 4 10 0 6 -5 10 -11 10 -5 0
-7 -4 -4 -10z"/>
<path d="M5227 3453 c-4 -3 -7 -17 -7 -30 0 -26 26 -41 42 -25 8 8 4 9 -12 5
-21 -6 -22 -3 -18 25 5 34 5 35 -5 25z"/>
<path d="M5256 3445 c4 -8 8 -15 10 -15 2 0 4 7 4 15 0 8 -4 15 -10 15 -5 0
-7 -7 -4 -15z"/>
<path d="M3732 3415 c0 -16 2 -22 5 -12 2 9 2 23 0 30 -3 6 -5 -1 -5 -18z"/>
<path d="M5112 3415 c0 -16 2 -22 5 -12 2 9 2 23 0 30 -3 6 -5 -1 -5 -18z"/>
<path d="M3411 3103 c1 -27 3 -40 6 -30 5 21 22 22 29 2 11 -27 19 -16 20 24
1 32 -3 40 -20 45 -35 9 -36 8 -35 -41z m39 17 c0 -5 -7 -10 -15 -10 -8 0 -15
5 -15 10 0 6 7 10 15 10 8 0 15 -4 15 -10z"/>
<path d="M3762 3105 c-1 -38 1 -46 9 -35 8 11 12 12 16 3 2 -7 9 -13 14 -13 6
0 5 8 -1 20 -6 11 -8 26 -4 32 5 7 2 9 -9 5 -11 -4 -17 1 -20 16 -2 12 -5 0
-5 -28z"/>
<path d="M3484 3105 c-9 -23 3 -45 26 -45 11 0 20 4 20 10 0 5 -7 7 -15 4 -8
-4 -15 -1 -15 5 0 6 9 11 20 11 13 0 18 5 14 15 -4 8 -15 15 -25 15 -11 0 -22
-7 -25 -15z"/>
<path d="M3551 3088 c2 -30 2 -31 6 -5 5 34 23 36 23 2 0 -14 5 -25 10 -25 6
0 10 11 10 25 0 14 5 25 10 25 6 0 10 -11 10 -25 0 -14 5 -25 11 -25 6 0 9 12
7 28 -3 24 -7 27 -45 30 -43 3 -43 3 -42 -30z"/>
<path d="M3663 3113 c17 -4 17 -5 1 -17 -20 -15 -11 -36 17 -36 14 0 19 7 19
30 0 26 -3 30 -27 29 -19 -1 -22 -3 -10 -6z m27 -27 c0 -3 -4 -8 -10 -11 -5
-3 -10 -1 -10 4 0 6 5 11 10 11 6 0 10 -2 10 -4z"/>
<path d="M3710 3090 c0 -16 5 -30 10 -30 6 0 10 11 10 24 0 13 6 27 13 29 6 3
2 6 -10 6 -19 1 -23 -4 -23 -29z"/>
<path d="M3584 2936 c-3 -8 -4 -29 -1 -48 3 -30 4 -30 5 9 1 23 8 44 15 46 9
4 9 6 -1 6 -7 1 -15 -5 -18 -13z"/>
<path d="M6143 2905 c0 -27 2 -38 4 -22 2 15 2 37 0 50 -2 12 -4 0 -4 -28z"/>
<path d="M6758 2933 c-2 -10 -1 -31 3 -48 6 -26 7 -23 8 18 1 48 -3 61 -11 30z"/>
<path d="M6823 2905 c0 -27 2 -38 4 -22 2 15 2 37 0 50 -2 12 -4 0 -4 -28z"/>
<path d="M6943 2905 c-1 -27 1 -42 4 -32 5 18 5 18 26 0 19 -16 20 -16 8 -1
-7 10 -10 25 -7 34 5 14 4 15 -8 5 -12 -10 -15 -7 -19 16 -2 15 -4 6 -4 -22z"/>
<path d="M7360 2905 c0 -27 2 -46 5 -43 8 8 9 77 2 85 -4 3 -7 -15 -7 -42z"/>
<path d="M7903 2905 c0 -27 2 -38 4 -22 2 15 2 37 0 50 -2 12 -4 0 -4 -28z"/>
<path d="M8520 2905 c0 -27 2 -46 5 -43 8 8 9 77 2 85 -4 3 -7 -15 -7 -42z"/>
<path d="M8950 2905 c0 -27 2 -46 5 -43 8 8 9 77 2 85 -4 3 -7 -15 -7 -42z"/>
<path d="M9118 2933 c-2 -10 -1 -31 3 -48 6 -26 7 -23 8 18 1 48 -3 61 -11 30z"/>
<path d="M3433 2900 c0 -25 2 -35 4 -22 2 12 2 32 0 45 -2 12 -4 2 -4 -23z"/>
<path d="M4070 2906 c0 -19 3 -37 8 -40 4 -2 6 13 4 35 -5 48 -12 51 -12 5z"/>
<path d="M4300 2906 c0 -19 3 -37 8 -40 4 -2 6 13 4 35 -5 48 -12 51 -12 5z"/>
<path d="M4440 2900 c0 -22 3 -40 8 -40 4 0 6 18 4 40 -2 22 -6 40 -8 40 -2 0
-4 -18 -4 -40z"/>
<path d="M4770 2906 c0 -19 3 -37 8 -40 4 -2 6 13 4 35 -5 48 -12 51 -12 5z"/>
<path d="M5010 2900 c0 -22 3 -40 8 -40 4 0 6 18 4 40 -2 22 -6 40 -8 40 -2 0
-4 -18 -4 -40z"/>
<path d="M5300 2906 c0 -19 3 -37 8 -40 4 -2 6 13 4 35 -5 48 -12 51 -12 5z"/>
<path d="M5854 2926 c-14 -36 23 -83 46 -60 8 8 4 10 -12 10 -19 -1 -23 4 -23
32 0 35 -3 40 -11 18z"/>
<path d="M6262 2898 c1 -41 1 -42 5 -8 l5 35 17 -34 18 -33 14 33 14 34 6 -35
6 -35 2 43 c1 50 -11 54 -30 10 l-13 -31 -15 31 c-20 44 -31 40 -29 -10z"/>
<path d="M6563 2900 c0 -25 2 -35 4 -23 2 12 12 24 21 26 16 4 16 5 0 6 -9 0
-19 9 -21 19 -3 9 -5 -3 -4 -28z"/>
<path d="M7040 2900 c0 -22 3 -40 8 -40 4 0 6 18 4 40 -2 22 -6 40 -8 40 -2 0
-4 -18 -4 -40z"/>
<path d="M7830 2906 c0 -19 3 -37 8 -40 4 -2 6 13 4 35 -5 48 -12 51 -12 5z"/>
<path d="M8750 2900 c0 -22 3 -40 8 -40 4 0 6 18 4 40 -2 22 -6 40 -8 40 -2 0
-4 -18 -4 -40z"/>
<path d="M8790 2900 c0 -22 3 -40 8 -40 4 0 6 18 4 40 -2 22 -6 40 -8 40 -2 0
-4 -18 -4 -40z"/>
<path d="M7590 2920 c0 -5 5 -10 10 -10 6 0 10 5 10 10 0 6 -4 10 -10 10 -5 0
-10 -4 -10 -10z"/>
<path d="M8120 2920 c0 -5 5 -10 10 -10 6 0 10 5 10 10 0 6 -4 10 -10 10 -5 0
-10 -4 -10 -10z"/>
<path d="M8480 2920 c0 -5 5 -10 10 -10 6 0 10 5 10 10 0 6 -4 10 -10 10 -5 0
-10 -4 -10 -10z"/>
<path d="M3473 2904 c-8 -21 23 -52 38 -37 8 8 6 11 -7 10 -14 -2 -19 4 -18
21 1 26 -4 28 -13 6z"/>
<path d="M3612 2890 c0 -19 2 -27 5 -17 2 9 2 25 0 35 -3 9 -5 1 -5 -18z"/>
<path d="M3640 2890 c0 -16 2 -30 4 -30 2 0 6 14 8 30 3 17 1 30 -4 30 -4 0
-8 -13 -8 -30z"/>
<path d="M3679 2888 c4 -28 6 -29 9 -9 2 13 0 27 -5 32 -6 6 -7 -3 -4 -23z"/>
<path d="M3710 2909 c0 -5 5 -7 10 -4 6 3 10 8 10 11 0 2 -4 4 -10 4 -5 0 -10
-5 -10 -11z"/>
<path d="M3872 2890 c0 -19 2 -27 5 -17 2 9 2 25 0 35 -3 9 -5 1 -5 -18z"/>
<path d="M3900 2890 c0 -16 2 -30 4 -30 2 0 6 14 8 30 3 17 1 30 -4 30 -4 0
-8 -13 -8 -30z"/>
<path d="M3944 2905 c-9 -23 3 -45 23 -44 17 1 17 2 1 6 -25 6 -22 21 5 26
l22 4 -23 2 c-13 0 -20 6 -17 11 3 6 4 10 0 10 -3 0 -8 -7 -11 -15z"/>
<path d="M4003 2905 c-3 -9 -3 -18 -1 -21 3 -3 8 4 11 16 6 23 -1 27 -10 5z"/>
<path d="M4133 2904 c-8 -21 23 -52 38 -37 8 8 6 11 -7 10 -14 -2 -19 4 -18
21 1 26 -4 28 -13 6z"/>
<path d="M4200 2890 c0 -16 2 -30 4 -30 2 0 6 14 8 30 3 17 1 30 -4 30 -4 0
-8 -13 -8 -30z"/>
<path d="M4239 2888 c4 -28 6 -29 9 -9 2 13 0 27 -5 32 -6 6 -7 -3 -4 -23z"/>
<path d="M4340 2909 c0 -5 5 -7 10 -4 6 3 10 8 10 11 0 2 -4 4 -10 4 -5 0 -10
-5 -10 -11z"/>
<path d="M4512 2890 c0 -19 2 -27 5 -17 2 9 2 25 0 35 -3 9 -5 1 -5 -18z"/>
<path d="M4544 2905 c-9 -23 3 -45 23 -44 17 1 17 2 1 6 -25 6 -22 21 5 26
l22 4 -23 2 c-13 0 -20 6 -17 11 3 6 4 10 0 10 -3 0 -8 -7 -11 -15z"/>
<path d="M4672 2890 c0 -19 2 -27 5 -17 2 9 2 25 0 35 -3 9 -5 1 -5 -18z"/>
<path d="M4704 2905 c-9 -23 4 -47 23 -43 20 4 30 35 15 50 -6 6 -8 0 -5 -16
4 -20 1 -26 -12 -26 -13 0 -16 6 -13 25 6 28 1 33 -8 10z"/>
<path d="M4810 2905 c0 -8 4 -15 10 -15 5 0 7 7 4 15 -4 8 -8 15 -10 15 -2 0
-4 -7 -4 -15z"/>
<path d="M4870 2880 c0 -22 2 -40 4 -40 2 0 6 18 8 40 2 22 0 40 -4 40 -5 0
-8 -18 -8 -40z"/>
<path d="M4907 2900 c4 -13 0 -26 -8 -32 -12 -8 -11 -9 1 -5 18 5 26 35 11 50
-7 7 -8 3 -4 -13z"/>
<path d="M4940 2909 c0 -5 5 -7 10 -4 6 3 10 8 10 11 0 2 -4 4 -10 4 -5 0 -10
-5 -10 -11z"/>
<path d="M5103 2905 c-3 -9 -3 -18 -1 -21 3 -3 8 4 11 16 6 23 -1 27 -10 5z"/>
<path d="M5135 2910 c3 -5 8 -10 11 -10 2 0 4 5 4 10 0 6 -5 10 -11 10 -5 0
-7 -4 -4 -10z"/>
<path d="M5173 2905 c-3 -9 -3 -18 -1 -21 3 -3 8 4 11 16 6 23 -1 27 -10 5z"/>
<path d="M5262 2905 c-7 -8 -8 -15 -3 -15 5 0 12 -8 14 -17 3 -10 5 -3 6 15 1
36 1 37 -17 17z"/>
<path d="M5342 2890 c0 -19 2 -27 5 -17 2 9 2 25 0 35 -3 9 -5 1 -5 -18z"/>
<path d="M5370 2909 c0 -5 5 -7 10 -4 6 3 10 8 10 11 0 2 -4 4 -10 4 -5 0 -10
-5 -10 -11z"/>
<path d="M5533 2896 c1 -17 9 -31 17 -33 10 -3 11 -2 4 4 -7 4 -14 19 -17 33
-4 22 -5 21 -4 -4z"/>
<path d="M5572 2890 c0 -19 2 -27 5 -17 2 9 2 25 0 35 -3 9 -5 1 -5 -18z"/>
<path d="M5600 2911 c0 -6 4 -13 10 -16 6 -3 7 1 4 9 -7 18 -14 21 -14 7z"/>
<path d="M5662 2890 c0 -19 2 -27 5 -17 2 9 2 25 0 35 -3 9 -5 1 -5 -18z"/>
<path d="M5690 2890 c0 -16 2 -30 4 -30 2 0 6 14 8 30 3 17 1 30 -4 30 -4 0
-8 -13 -8 -30z"/>
<path d="M5729 2888 c4 -28 6 -29 9 -9 2 13 0 27 -5 32 -6 6 -7 -3 -4 -23z"/>
<path d="M5933 2904 c-8 -21 23 -52 38 -37 8 8 6 11 -7 10 -14 -2 -19 4 -18
21 1 26 -4 28 -13 6z"/>
<path d="M6003 2905 c-3 -9 -3 -18 -1 -21 3 -3 8 4 11 16 6 23 -1 27 -10 5z"/>
<path d="M6035 2910 c3 -5 8 -10 11 -10 2 0 4 5 4 10 0 6 -5 10 -11 10 -5 0
-7 -4 -4 -10z"/>
<path d="M6073 2905 c-3 -9 -3 -18 -1 -21 3 -3 8 4 11 16 6 23 -1 27 -10 5z"/>
<path d="M6105 2881 c0 -22 3 -37 8 -34 4 2 7 20 7 39 0 19 -3 34 -7 34 -5 0
-8 -18 -8 -39z"/>
<path d="M6170 2908 c0 -12 7 -18 23 -17 15 0 17 2 7 6 -8 3 -18 11 -22 17 -5
7 -8 4 -8 -6z"/>
<path d="M6392 2905 c-7 -8 -8 -15 -3 -15 5 0 12 -8 14 -17 3 -10 5 -3 6 15 1
36 1 37 -17 17z"/>
<path d="M6430 2880 c0 -22 2 -40 4 -40 2 0 6 18 8 40 2 22 0 40 -4 40 -5 0
-8 -18 -8 -40z"/>
<path d="M6467 2899 c4 -12 0 -25 -8 -31 -12 -8 -11 -9 1 -5 17 4 27 57 12 57
-6 0 -8 -9 -5 -21z"/>
<path d="M6632 2890 c0 -19 2 -27 5 -17 2 9 2 25 0 35 -3 9 -5 1 -5 -18z"/>
<path d="M6692 2890 c0 -19 2 -27 5 -17 2 9 2 25 0 35 -3 9 -5 1 -5 -18z"/>
<path d="M6724 2905 c-8 -20 2 -45 18 -45 10 0 10 3 -1 9 -8 5 -12 18 -8 30 6
24 -1 29 -9 6z"/>
<path d="M6852 2890 c0 -19 2 -27 5 -17 2 9 2 25 0 35 -3 9 -5 1 -5 -18z"/>
<path d="M7073 2905 c-3 -9 -3 -18 -1 -21 3 -3 8 4 11 16 6 23 -1 27 -10 5z"/>
<path d="M7105 2910 c3 -5 8 -10 11 -10 2 0 4 5 4 10 0 6 -5 10 -11 10 -5 0
-7 -4 -4 -10z"/>
<path d="M7174 2905 c-9 -23 3 -45 23 -44 17 1 17 2 1 6 -25 6 -22 21 5 26
l22 4 -23 2 c-13 0 -20 6 -17 11 3 6 4 10 0 10 -3 0 -8 -7 -11 -15z"/>
<path d="M7262 2905 c-7 -8 -8 -15 -3 -15 5 0 12 -8 14 -17 3 -10 5 -3 6 15 1
36 1 37 -17 17z"/>
<path d="M7300 2909 c0 -5 5 -7 10 -4 6 3 10 8 10 11 0 2 -4 4 -10 4 -5 0 -10
-5 -10 -11z"/>
<path d="M7399 2888 c4 -28 6 -29 9 -9 2 13 0 27 -5 32 -6 6 -7 -3 -4 -23z"/>
<path d="M7523 2904 c-8 -21 23 -52 38 -37 8 8 6 11 -7 10 -14 -2 -19 4 -18
21 1 26 -4 28 -13 6z"/>
<path d="M7636 2913 c-4 -4 3 -16 16 -26 l23 -19 -24 6 c-17 3 -21 2 -13 -6 6
-6 19 -7 29 -4 17 7 17 9 -4 26 -12 9 -19 20 -16 24 4 3 4 6 1 6 -2 0 -8 -3
-12 -7z"/>
<path d="M7690 2880 c0 -22 2 -40 4 -40 2 0 6 18 8 40 2 22 0 40 -4 40 -5 0
-8 -18 -8 -40z"/>
<path d="M7727 2899 c4 -12 0 -25 -8 -31 -12 -8 -11 -9 1 -5 17 4 27 57 12 57
-6 0 -8 -9 -5 -21z"/>
<path d="M7764 2905 c-9 -23 4 -47 23 -43 20 4 30 35 15 50 -6 6 -8 0 -5 -16
4 -20 1 -26 -12 -26 -13 0 -16 6 -13 25 6 28 1 33 -8 10z"/>
<path d="M7930 2909 c0 -5 5 -7 10 -4 6 3 10 8 10 11 0 2 -4 4 -10 4 -5 0 -10
-5 -10 -11z"/>
<path d="M7993 2905 c-3 -9 -3 -18 -1 -21 3 -3 8 4 11 16 6 23 -1 27 -10 5z"/>
<path d="M8078 2901 c-20 -19 -24 -41 -8 -41 5 0 7 7 4 15 -4 9 0 15 10 15 9
0 16 7 16 15 0 18 -1 18 -22 -4z"/>
<path d="M8162 2890 c0 -19 2 -27 5 -17 2 9 2 25 0 35 -3 9 -5 1 -5 -18z"/>
<path d="M8193 2905 c-3 -9 -3 -18 -1 -21 3 -3 8 4 11 16 6 23 -1 27 -10 5z"/>
<path d="M8225 2910 c3 -5 8 -10 11 -10 2 0 4 5 4 10 0 6 -5 10 -11 10 -5 0
-7 -4 -4 -10z"/>
<path d="M8260 2890 c0 -16 2 -30 4 -30 2 0 6 14 8 30 3 17 1 30 -4 30 -4 0
-8 -13 -8 -30z"/>
<path d="M8299 2888 c4 -28 6 -29 9 -9 2 13 0 27 -5 32 -6 6 -7 -3 -4 -23z"/>
<path d="M8362 2890 c0 -19 2 -27 5 -17 2 9 2 25 0 35 -3 9 -5 1 -5 -18z"/>
<path d="M8422 2890 c0 -19 2 -27 5 -17 2 9 2 25 0 35 -3 9 -5 1 -5 -18z"/>
<path d="M8559 2888 c4 -28 6 -29 9 -9 2 13 0 27 -5 32 -6 6 -7 -3 -4 -23z"/>
<path d="M8590 2908 c0 -12 7 -18 23 -17 15 0 17 2 7 6 -8 3 -18 11 -22 17 -5
7 -8 4 -8 -6z"/>
<path d="M8854 2912 c4 -7 1 -12 -6 -12 -9 0 -9 -3 -2 -8 6 -4 14 -14 17 -22
3 -9 6 -4 6 12 1 15 -4 30 -11 34 -7 4 -8 3 -4 -4z"/>
<path d="M8890 2909 c0 -5 5 -7 10 -4 6 3 10 8 10 11 0 2 -4 4 -10 4 -5 0 -10
-5 -10 -11z"/>
<path d="M8989 2888 c4 -28 6 -29 9 -9 2 13 0 27 -5 32 -6 6 -7 -3 -4 -23z"/>
<path d="M9020 2908 c0 -12 7 -18 23 -17 15 0 17 2 7 6 -8 3 -18 11 -22 17 -5
7 -8 4 -8 -6z"/>
<path d="M9084 2905 c-8 -20 2 -45 18 -45 10 0 10 3 -1 9 -8 5 -12 18 -8 30 6
24 -1 29 -9 6z"/>
<path d="M3800 2894 c0 -13 18 -39 24 -34 2 3 -2 14 -10 24 -8 11 -14 16 -14
10z"/>
<path d="M5750 2894 c0 -13 18 -39 24 -34 2 3 -2 14 -10 24 -8 11 -14 16 -14
10z"/>
<path d="M4840 2882 c0 -6 -8 -13 -17 -15 -16 -4 -16 -5 -1 -6 18 -1 34 16 24
26 -3 4 -6 1 -6 -5z"/>
<path d="M5140 2882 c0 -6 -8 -13 -17 -15 -16 -4 -16 -5 -1 -6 18 -1 34 16 24
26 -3 4 -6 1 -6 -5z"/>
<path d="M5630 2881 c0 -8 -7 -11 -17 -6 -15 5 -16 4 -5 -6 9 -10 15 -10 24
-1 6 6 9 15 5 19 -4 3 -7 1 -7 -6z"/>
<path d="M6040 2882 c0 -6 -8 -13 -17 -15 -16 -4 -16 -5 -1 -6 18 -1 34 16 24
26 -3 4 -6 1 -6 -5z"/>
<path d="M7110 2882 c0 -6 -8 -13 -17 -15 -16 -4 -16 -5 -1 -6 18 -1 34 16 24
26 -3 4 -6 1 -6 -5z"/>
<path d="M7303 2880 c2 -8 12 -16 23 -17 13 -2 15 -1 4 4 -8 3 -19 11 -23 17
-6 7 -7 6 -4 -4z"/>
<path d="M8230 2882 c0 -6 -8 -13 -17 -15 -16 -4 -16 -5 -1 -6 18 -1 34 16 24
26 -3 4 -6 1 -6 -5z"/>
<path d="M8683 2880 c2 -8 13 -16 25 -16 12 -1 19 3 16 8 -3 4 -10 5 -16 2 -6
-4 -15 0 -20 7 -8 12 -9 11 -5 -1z"/>
<path d="M8820 2881 c0 -10 19 -25 25 -20 1 2 -3 10 -11 17 -8 7 -14 8 -14 3z"/>
<path d="M8893 2880 c2 -8 12 -16 23 -17 13 -2 15 -1 4 4 -8 3 -19 11 -23 17
-6 7 -7 6 -4 -4z"/>
<path d="M3720 2866 c7 -7 13 -7 20 0 6 6 3 10 -10 10 -13 0 -16 -4 -10 -10z"/>
<path d="M4030 2870 c-9 -6 -10 -10 -3 -10 6 0 15 5 18 10 8 12 4 12 -15 0z"/>
<path d="M4347 2869 c7 -7 15 -10 18 -7 3 3 -2 9 -12 12 -14 6 -15 5 -6 -5z"/>
<path d="M4947 2869 c7 -7 15 -10 18 -7 3 3 -2 9 -12 12 -14 6 -15 5 -6 -5z"/>
<path d="M5195 2870 c-16 -7 -17 -9 -3 -9 9 -1 20 4 23 9 7 11 7 11 -20 0z"/>
<path d="M5237 2869 c7 -7 15 -10 18 -7 3 3 -2 9 -12 12 -14 6 -15 5 -6 -5z"/>
<path d="M5377 2869 c7 -7 15 -10 18 -7 3 3 -2 9 -12 12 -14 6 -15 5 -6 -5z"/>
<path d="M5787 2860 c-3 -11 -1 -20 4 -20 5 0 9 9 9 20 0 11 -2 20 -4 20 -2 0
-6 -9 -9 -20z"/>
<path d="M6178 2868 c5 -5 16 -8 23 -6 8 3 3 7 -10 11 -17 4 -21 3 -13 -5z"/>
<path d="M6367 2869 c7 -7 15 -10 18 -7 3 3 -2 9 -12 12 -14 6 -15 5 -6 -5z"/>
<path d="M7237 2869 c7 -7 15 -10 18 -7 3 3 -2 9 -12 12 -14 6 -15 5 -6 -5z"/>
<path d="M7937 2869 c7 -7 15 -10 18 -7 3 3 -2 9 -12 12 -14 6 -15 5 -6 -5z"/>
<path d="M8020 2870 c-9 -6 -10 -10 -3 -10 6 0 15 5 18 10 8 12 4 12 -15 0z"/>
<path d="M8598 2868 c5 -5 16 -8 23 -6 8 3 3 7 -10 11 -17 4 -21 3 -13 -5z"/>
<path d="M9028 2868 c5 -5 16 -8 23 -6 8 3 3 7 -10 11 -17 4 -21 3 -13 -5z"/>
<path d="M3428 2783 c7 -3 16 -2 19 1 4 3 -2 6 -13 5 -11 0 -14 -3 -6 -6z"/>
<path d="M3483 2745 c0 -27 2 -38 4 -22 2 15 2 37 0 50 -2 12 -4 0 -4 -28z"/>
<path d="M3413 2735 c0 -22 2 -30 4 -17 2 12 2 30 0 40 -3 9 -5 -1 -4 -23z"/>
<path d="M3540 2750 c0 -5 -9 -10 -20 -10 -11 0 -20 -4 -20 -8 0 -11 22 -32
34 -32 5 0 1 7 -10 15 -19 14 -18 14 4 15 13 0 22 6 22 15 0 8 -2 15 -5 15 -3
0 -5 -4 -5 -10z"/>
<path d="M5441 1534 c-12 -15 -21 -35 -21 -45 0 -22 42 -56 81 -64 30 -7 55
-38 44 -55 -10 -16 -62 -12 -69 5 -6 16 -56 21 -56 6 0 -24 38 -53 76 -58 51
-7 79 8 92 46 14 39 -11 73 -66 89 -39 12 -58 34 -46 53 7 12 51 11 59 -1 8
-13 55 -13 55 -1 0 21 -54 51 -91 51 -29 0 -42 -6 -58 -26z"/>
<path d="M5640 1441 l0 -121 25 0 c24 0 25 2 25 78 l1 77 32 -78 c40 -98 59
-101 95 -12 35 88 42 89 42 7 0 -65 2 -72 20 -72 19 0 20 7 20 121 l0 120 -27
-3 c-23 -3 -31 -14 -61 -85 -19 -46 -38 -83 -41 -83 -4 0 -22 37 -42 83 -30
71 -38 82 -62 85 l-27 3 0 -120z"/>
<path d="M6019 1533 c-6 -16 -26 -70 -44 -120 l-34 -93 23 0 c15 0 27 9 34 25
10 21 18 25 57 25 39 0 47 -3 55 -25 7 -17 17 -25 34 -25 l25 0 -39 111 c-48
134 -45 129 -76 129 -17 0 -28 -8 -35 -27z m64 -125 c-2 -5 -18 -8 -35 -8 -27
0 -30 3 -24 25 3 13 11 37 17 52 l11 28 18 -45 c10 -25 16 -48 13 -52z"/>
<path d="M6200 1441 l0 -121 25 0 c23 0 25 4 25 45 0 32 4 45 14 45 8 0 26
-20 40 -45 20 -34 33 -45 51 -45 31 0 31 1 0 50 l-25 39 25 25 c31 31 33 76 4
102 -15 13 -40 20 -90 22 l-69 4 0 -121z m125 44 c0 -27 -3 -30 -37 -33 -38
-3 -38 -3 -38 33 0 36 0 36 38 33 34 -3 37 -6 37 -33z"/>
<path d="M6420 1540 c0 -16 7 -20 30 -20 l30 0 0 -100 0 -100 25 0 25 0 0 100
0 100 30 0 c23 0 30 4 30 20 0 18 -7 20 -85 20 -78 0 -85 -2 -85 -20z"/>
<path d="M6710 1440 l0 -120 25 0 c23 0 25 3 25 50 l0 50 40 0 c33 0 40 3 40
20 0 17 -7 20 -40 20 -38 0 -40 2 -40 30 0 29 1 30 50 30 43 0 50 3 50 20 0
18 -7 20 -75 20 l-75 0 0 -120z"/>
<path d="M6948 1544 c-53 -28 -76 -123 -42 -172 49 -71 170 -67 209 8 19 38
19 100 -1 128 -34 49 -112 66 -166 36z m119 -50 c39 -60 7 -134 -58 -134 -50
0 -75 39 -70 105 5 55 97 76 128 29z"/>
<path d="M7170 1440 l0 -120 25 0 c23 0 25 4 25 45 0 31 4 45 14 45 7 0 24
-20 37 -45 20 -37 29 -45 52 -45 l29 0 -27 46 -27 46 21 19 c43 40 35 100 -15
119 -14 6 -50 10 -80 10 l-54 0 0 -120z m125 45 c0 -27 -3 -30 -37 -33 -38 -3
-38 -3 -38 33 0 36 0 36 38 33 34 -3 37 -6 37 -33z"/>
<path d="M7400 1440 l0 -120 71 0 c62 0 70 2 67 18 -2 13 -15 18 -51 20 -45 3
-47 5 -47 33 0 27 2 29 40 29 33 0 40 3 40 20 0 17 -7 20 -40 20 -38 0 -40 2
-40 29 0 28 2 30 47 33 36 2 49 7 51 21 3 15 -5 17 -67 17 l-71 0 0 -120z"/>
<path d="M7599 1539 c-14 -14 -19 -30 -17 -52 3 -32 11 -38 83 -69 39 -17 41
-52 4 -56 -14 -2 -31 4 -39 12 -15 19 -50 21 -50 4 1 -33 42 -58 94 -58 25 0
40 7 55 26 41 53 23 87 -61 114 -30 9 -38 17 -38 36 0 20 5 24 29 24 16 0 31
-5 33 -11 2 -6 17 -9 33 -7 l30 3 -27 28 c-34 34 -97 38 -129 6z"/>
<path d="M7780 1540 c0 -16 7 -20 35 -20 l35 0 0 -100 c0 -93 1 -100 20 -100
19 0 20 7 20 100 l0 100 35 0 c28 0 35 4 35 20 0 19 -7 20 -90 20 -83 0 -90
-1 -90 -20z"/>
<path d="M5080 1176 c0 -2 7 -7 16 -10 8 -3 12 -2 9 4 -6 10 -25 14 -25 6z"/>
<path d="M6011 862 c-16 -29 -14 -75 4 -98 14 -18 14 -17 4 9 -9 20 -10 36 -1
64 13 42 9 55 -7 25z"/>
<path d="M6726 865 c10 -26 11 -74 1 -105 l-8 -25 15 25 c20 33 20 81 0 106
-15 19 -16 19 -8 -1z"/>
<path d="M5450 867 c0 -14 33 -97 39 -97 4 0 13 17 20 38 8 20 16 43 19 51 3
9 1 12 -6 8 -6 -4 -13 -21 -17 -37 -4 -17 -10 -30 -15 -30 -5 0 -11 13 -15 30
-4 16 -11 32 -16 35 -5 4 -9 4 -9 2z"/>
<path d="M5560 846 c-6 -14 -14 -37 -20 -51 -5 -14 -6 -25 -1 -25 5 0 11 7 15
15 3 8 12 15 21 15 9 0 18 -7 21 -15 4 -8 10 -15 14 -15 11 0 -18 88 -31 96
-5 3 -14 -6 -19 -20z m30 -28 c0 -5 -6 -8 -14 -8 -9 0 -12 7 -9 21 4 16 8 17
14 7 5 -7 9 -16 9 -20z"/>
<path d="M5631 818 c1 -29 4 -43 6 -30 5 28 29 29 43 1 7 -11 14 -18 17 -16 3
3 0 13 -5 23 -7 12 -6 24 2 36 13 22 -4 38 -41 38 -21 0 -23 -4 -22 -52z m49
28 c0 -8 -5 -18 -11 -22 -14 -8 -33 11 -25 25 10 16 36 13 36 -3z"/>
<path d="M5722 827 c-2 -36 2 -49 14 -54 30 -11 49 11 50 58 1 24 0 33 -2 19
-11 -63 -15 -71 -32 -68 -12 2 -19 17 -23 48 l-6 45 -1 -48z"/>
<path d="M5811 818 c2 -52 2 -52 8 -13 l6 40 23 -37 c13 -21 28 -38 33 -38 5
0 9 23 9 50 0 55 -17 69 -22 18 l-3 -33 -20 33 c-10 17 -23 32 -27 32 -4 0 -7
-24 -7 -52z"/>
<path d="M5930 846 c-6 -14 -14 -37 -20 -51 -5 -14 -6 -25 -1 -25 5 0 11 7 15
15 3 8 12 15 21 15 9 0 18 -7 21 -15 4 -8 10 -15 14 -15 11 0 -18 88 -31 96
-5 3 -14 -6 -19 -20z m30 -28 c0 -5 -6 -8 -14 -8 -9 0 -12 7 -9 21 4 16 8 17
14 7 5 -7 9 -16 9 -20z"/>
<path d="M6053 863 c13 -3 17 -15 17 -49 0 -24 5 -44 10 -44 6 0 10 20 10 44
0 34 4 46 18 49 9 3 -3 5 -28 5 -25 0 -37 -2 -27 -5z"/>
<path d="M6130 820 c0 -27 5 -50 10 -50 6 0 10 12 10 26 0 20 4 25 22 22 14
-2 25 -13 29 -28 5 -17 7 -7 7 30 -1 30 -3 45 -5 33 -6 -31 -53 -33 -53 -3 0
11 -4 20 -10 20 -5 0 -10 -22 -10 -50z"/>
<path d="M6246 830 c-18 -45 -21 -75 -5 -47 13 22 45 22 53 1 4 -9 9 -15 11
-12 7 6 -27 98 -36 98 -4 0 -14 -18 -23 -40z m34 -11 c0 -5 -7 -9 -15 -9 -9 0
-12 6 -9 15 6 15 24 11 24 -6z"/>
<path d="M6333 820 c0 -30 2 -43 4 -27 2 15 2 39 0 55 -2 15 -4 2 -4 -28z"/>
<path d="M6360 820 l0 -50 33 1 c23 1 26 3 10 6 -20 4 -23 11 -23 49 0 24 -4
44 -10 44 -5 0 -10 -22 -10 -50z"/>
<path d="M6460 846 c-6 -14 -14 -37 -20 -51 -5 -14 -6 -25 -1 -25 5 0 11 7 15
15 3 8 12 15 21 15 9 0 18 -7 21 -15 4 -8 10 -15 14 -15 11 0 -18 88 -31 96
-5 3 -14 -6 -19 -20z m30 -28 c0 -5 -6 -8 -14 -8 -9 0 -12 7 -9 21 4 16 8 17
14 7 5 -7 9 -16 9 -20z"/>
<path d="M6531 818 c2 -52 2 -52 8 -13 l6 40 25 -37 c14 -21 28 -38 33 -38 4
0 7 23 7 50 0 55 -17 69 -22 18 l-3 -33 -18 33 c-25 46 -37 40 -36 -20z"/>
<path d="M6630 820 c0 -46 2 -50 23 -50 30 0 47 18 47 50 0 32 -17 50 -47 50
-21 0 -23 -4 -23 -50z m54 17 c8 -12 8 -22 0 -34 -16 -25 -38 -22 -42 5 -7 50
18 67 42 29z"/>
<path d="M6838 845 c-23 -51 28 -100 62 -60 8 9 8 15 2 15 -6 0 -12 -5 -14
-12 -8 -24 -38 1 -38 32 0 31 30 56 38 32 2 -7 8 -12 13 -12 4 0 6 7 3 15 -10
25 -53 18 -66 -10z"/>
<path d="M6930 845 c-12 -32 3 -75 28 -75 25 0 42 20 42 50 0 51 -53 70 -70
25z m58 -15 c3 -33 -12 -55 -32 -47 -16 6 -23 57 -9 71 14 14 38 0 41 -24z"/>
<path d="M7050 820 l0 -50 33 1 c23 1 26 3 10 6 -20 4 -23 11 -23 49 0 24 -4
44 -10 44 -5 0 -10 -22 -10 -50z"/>
<path d="M7113 863 c13 -3 17 -15 17 -49 0 -24 5 -44 10 -44 6 0 10 20 10 44
0 34 4 46 18 49 9 3 -3 5 -28 5 -25 0 -37 -2 -27 -5z"/>
<path d="M7190 820 c0 -47 2 -50 25 -50 15 0 31 9 41 25 15 23 15 27 0 50 -10
16 -26 25 -41 25 -23 0 -25 -3 -25 -50z m58 6 c3 -26 -10 -45 -30 -46 -5 0 -8
18 -8 41 0 33 3 40 18 37 10 -2 18 -14 20 -32z"/>
<path d="M6806 774 c-4 -9 -4 -19 -1 -22 2 -3 7 3 11 12 4 9 4 19 1 22 -2 3
-7 -3 -11 -12z"/>
<path d="M5510 619 c0 -14 -5 -19 -14 -16 -20 8 -38 -17 -34 -45 2 -17 11 -24
31 -26 27 -3 27 -2 27 52 0 31 -2 56 -5 56 -3 0 -5 -9 -5 -21z m-2 -51 c-4
-27 -23 -34 -32 -13 -8 21 1 35 20 35 10 0 14 -8 12 -22z"/>
<path d="M6022 628 c-14 -14 -16 -98 -2 -98 6 0 10 20 10 45 0 34 4 45 16 45
8 0 12 5 9 10 -8 13 -18 13 -33 -2z"/>
<path d="M4771 625 c0 -5 6 -19 14 -29 8 -11 15 -31 15 -45 1 -22 3 -21 14 12
8 20 19 44 26 52 8 10 9 15 2 15 -6 0 -17 -10 -23 -22 l-11 -21 -19 24 c-10
13 -19 20 -18 14z"/>
<path d="M7510 580 c0 -29 2 -51 5 -48 8 7 9 87 2 95 -4 3 -7 -18 -7 -47z"/>
<path d="M5622 579 c2 -27 9 -44 18 -47 13 -5 13 -3 1 11 -8 10 -11 27 -7 41
3 14 1 28 -5 31 -7 5 -9 -7 -7 -36z"/>
<path d="M5930 591 c0 -16 3 -36 6 -45 12 -30 19 -16 16 29 -4 50 -22 62 -22
16z"/>
<path d="M6237 613 c-2 -5 -2 -25 0 -45 4 -27 10 -38 22 -38 13 0 13 2 2 9 -9
6 -12 19 -8 40 6 28 -6 52 -16 34z"/>
<path d="M6661 583 c-1 -23 3 -44 7 -47 4 -2 6 12 4 32 -5 56 -10 62 -11 15z"/>
<path d="M4865 596 c-20 -15 -17 -44 7 -59 12 -8 21 -7 32 2 36 30 -1 85 -39
57z m33 -28 c-2 -13 -7 -23 -13 -23 -5 0 -11 10 -13 23 -2 15 2 22 13 22 11 0
15 -7 13 -22z"/>
<path d="M5055 596 c-20 -15 -17 -45 7 -60 13 -8 21 -7 30 3 11 11 9 12 -8 7
-14 -4 -24 -2 -27 7 -8 20 9 41 27 34 9 -4 16 -2 16 2 0 16 -28 20 -45 7z"/>
<path d="M5133 603 c-22 -8 -14 -21 9 -15 14 3 19 2 14 -6 -4 -7 -14 -12 -22
-12 -28 0 -11 -35 19 -38 23 -3 27 0 27 22 0 19 -24 59 -33 55 -1 0 -8 -3 -14
-6z m24 -60 c-3 -3 -11 -2 -17 2 -9 6 -9 10 1 16 14 8 27 -7 16 -18z"/>
<path d="M5208 602 c-13 -2 -18 -13 -18 -38 0 -19 5 -34 10 -34 6 0 10 14 10
30 0 42 27 40 33 -2 l4 -33 1 36 c2 38 -9 49 -40 41z"/>
<path d="M5398 602 c-14 -3 -18 -14 -18 -47 0 -24 5 -47 10 -50 6 -3 10 1 10
9 0 9 7 16 15 16 18 0 37 34 29 54 -7 17 -23 24 -46 18z m30 -34 c-5 -32 -28
-35 -28 -4 0 17 5 26 16 26 10 0 14 -7 12 -22z"/>
<path d="M5555 600 c-3 -5 2 -10 12 -10 15 0 14 -3 -6 -19 -28 -21 -21 -41 15
-41 20 0 24 5 24 28 0 39 -30 67 -45 42z m27 -52 c-6 -6 -16 -7 -22 -3 -9 6
-9 9 1 16 17 10 34 0 21 -13z"/>
<path d="M5676 597 c-23 -17 -18 -61 8 -65 10 -2 23 1 29 7 7 7 3 8 -12 4 -12
-3 -21 -1 -21 6 0 6 9 11 20 11 23 0 27 22 7 39 -10 8 -18 7 -31 -2z m29 -17
c-3 -5 -10 -10 -16 -10 -5 0 -9 5 -9 10 0 6 7 10 16 10 8 0 12 -4 9 -10z"/>
<path d="M5788 602 c-14 -2 -18 -13 -17 -40 1 -36 2 -36 8 -7 9 43 39 45 44 3
l4 -33 1 36 c2 38 -9 49 -40 41z"/>
<path d="M5860 596 c-6 -8 -10 -25 -8 -38 2 -17 10 -23 28 -23 18 0 26 6 28
23 3 22 -13 52 -28 52 -4 0 -13 -7 -20 -14z m38 -28 c-2 -13 -10 -23 -18 -23
-8 0 -16 10 -18 23 -3 17 2 22 18 22 16 0 21 -5 18 -22z"/>
<path d="M6095 594 c-18 -18 -18 -20 -5 -45 11 -20 35 -25 44 -10 3 5 -2 8
-12 7 -11 -1 -18 7 -20 23 -3 20 0 23 17 18 24 -6 29 8 6 17 -8 3 -21 -2 -30
-10z"/>
<path d="M6173 603 c-22 -8 -14 -21 9 -15 14 3 19 2 14 -6 -4 -7 -14 -12 -22
-12 -28 0 -11 -35 19 -38 23 -3 27 0 27 22 0 19 -24 59 -33 55 -1 0 -8 -3 -14
-6z m24 -60 c-3 -3 -11 -2 -17 2 -9 6 -9 10 1 16 14 8 27 -7 16 -18z"/>
<path d="M6325 596 c-20 -15 -17 -44 7 -59 12 -8 21 -7 32 2 36 30 -1 85 -39
57z m33 -28 c-2 -13 -7 -23 -13 -23 -5 0 -11 10 -13 23 -2 15 2 22 13 22 11 0
15 -7 13 -22z"/>
<path d="M6408 602 c-13 -2 -18 -13 -18 -38 0 -19 5 -34 10 -34 6 0 10 14 10
30 0 42 27 40 33 -2 l4 -33 1 36 c2 38 -9 49 -40 41z"/>
<path d="M7055 596 c-24 -17 -16 -60 12 -64 38 -6 54 58 18 72 -7 2 -21 -1
-30 -8z m33 -28 c-4 -27 -23 -34 -32 -13 -8 21 1 35 20 35 10 0 14 -8 12 -22z"/>
<path d="M4931 583 c-2 -36 10 -53 35 -53 21 0 24 4 23 38 -1 35 -2 35 -8 8
-9 -41 -28 -43 -40 -4 -6 24 -9 27 -10 11z"/>
<path d="M5313 570 c2 -30 6 -35 30 -38 25 -3 27 -1 27 32 0 20 -4 36 -10 36
-5 0 -10 -14 -10 -31 0 -39 -22 -34 -32 7 -6 27 -6 27 -5 -6z"/>
<path d="M5983 565 c0 -22 2 -30 4 -17 2 12 2 30 0 40 -3 9 -5 -1 -4 -23z"/>
<path d="M6050 565 c0 -19 5 -35 10 -35 6 0 10 16 10 35 0 19 -4 35 -10 35 -5
0 -10 -16 -10 -35z"/>
<path d="M6280 565 c0 -19 5 -35 10 -35 6 0 10 16 10 35 0 19 -4 35 -10 35 -5
0 -10 -16 -10 -35z"/>
<path d="M6584 585 c-3 -8 -4 -20 -2 -27 3 -7 7 -1 10 15 6 29 1 36 -8 12z"/>
<path d="M6780 565 c0 -19 2 -35 4 -35 2 0 6 16 8 35 2 19 0 35 -4 35 -4 0 -8
-16 -8 -35z"/>
<path d="M6865 589 c-4 -6 -5 -12 -2 -15 2 -3 7 2 10 11 7 17 1 20 -8 4z"/>
<path d="M7121 563 c1 -27 3 -31 6 -13 2 14 12 31 21 38 14 11 13 12 -6 12
-19 0 -22 -5 -21 -37z"/>
<path d="M7253 565 c0 -22 2 -30 4 -17 2 12 2 30 0 40 -3 9 -5 -1 -4 -23z"/>
<path d="M7280 565 c0 -19 2 -35 4 -35 2 0 6 16 8 35 2 19 0 35 -4 35 -4 0 -8
-16 -8 -35z"/>
<path d="M7432 575 c0 -16 2 -22 5 -12 2 9 2 23 0 30 -3 6 -5 -1 -5 -18z"/>
<path d="M7783 565 c0 -22 2 -30 4 -17 2 12 2 30 0 40 -3 9 -5 -1 -4 -23z"/>
<path d="M7858 575 c3 -17 -1 -31 -9 -37 -12 -8 -11 -9 1 -5 18 4 26 45 12 59
-6 6 -8 0 -4 -17z"/>
<path d="M7936 587 c3 -10 9 -15 12 -12 3 3 0 11 -7 18 -10 9 -11 8 -5 -6z"/>
<path d="M7891 569 c-1 -19 26 -45 36 -35 3 3 1 6 -6 6 -6 0 -16 10 -21 23 -6
15 -9 17 -9 6z"/>
<path d="M6546 557 c3 -10 9 -15 12 -12 3 3 0 11 -7 18 -10 9 -11 8 -5 -6z"/>
<path d="M6960 566 c0 -2 7 -7 16 -10 8 -3 12 -2 9 4 -6 10 -25 14 -25 6z"/>
<path d="M7396 557 c3 -10 9 -15 12 -12 3 3 0 11 -7 18 -10 9 -11 8 -5 -6z"/>
<path d="M7610 566 c0 -2 7 -7 16 -10 8 -3 12 -2 9 4 -6 10 -25 14 -25 6z"/>
<path d="M6860 551 c0 -10 19 -25 25 -20 1 2 -3 10 -11 17 -8 7 -14 8 -14 3z"/>
<path d="M6517 539 c7 -7 15 -10 18 -7 3 3 -2 9 -12 12 -14 6 -15 5 -6 -5z"/>
<path d="M7217 539 c7 -7 15 -10 18 -7 3 3 -2 9 -12 12 -14 6 -15 5 -6 -5z"/>
<path d="M7367 539 c7 -7 15 -10 18 -7 3 3 -2 9 -12 12 -14 6 -15 5 -6 -5z"/>
<path d="M7460 540 c-9 -6 -10 -10 -3 -10 6 0 15 5 18 10 8 12 4 12 -15 0z"/>
<path d="M7540 540 c-9 -6 -10 -10 -3 -10 6 0 15 5 18 10 8 12 4 12 -15 0z"/>
<path d="M7690 540 c-9 -6 -10 -10 -3 -10 6 0 15 5 18 10 8 12 4 12 -15 0z"/>
</g>
</svg>
