<svg width="226" height="48" viewBox="0 0 226 48" fill="none" xmlns="http://www.w3.org/2000/svg">
<rect x="0.5" width="225" height="48" rx="16" fill="#159B58"/>
<path d="M29.5 33C28.95 33 28.479 32.8043 28.087 32.413C27.6957 32.021 27.5 31.55 27.5 31V17C27.5 16.45 27.6957 15.979 28.087 15.587C28.479 15.1957 28.95 15 29.5 15H35.5C35.7833 15 36.021 15.0957 36.213 15.287C36.4043 15.479 36.5 15.7167 36.5 16C36.5 16.2833 36.4043 16.5207 36.213 16.712C36.021 16.904 35.7833 17 35.5 17H29.5V31H43.5V25C43.5 24.7167 43.596 24.479 43.788 24.287C43.9793 24.0957 44.2167 24 44.5 24C44.7833 24 45.0207 24.0957 45.212 24.287C45.404 24.479 45.5 24.7167 45.5 25V31C45.5 31.55 45.3043 32.021 44.913 32.413C44.521 32.8043 44.05 33 43.5 33H29.5ZM33.5 27C33.3167 26.8167 33.225 26.5833 33.225 26.3C33.225 26.0167 33.3167 25.7833 33.5 25.6L42.1 17H39.5C39.2167 17 38.9793 16.904 38.788 16.712C38.596 16.5207 38.5 16.2833 38.5 16C38.5 15.7167 38.596 15.479 38.788 15.287C38.9793 15.0957 39.2167 15 39.5 15H44.5C44.7833 15 45.0207 15.0957 45.212 15.287C45.404 15.479 45.5 15.7167 45.5 16V21C45.5 21.2833 45.404 21.5207 45.212 21.712C45.0207 21.904 44.7833 22 44.5 22C44.2167 22 43.9793 21.904 43.788 21.712C43.596 21.5207 43.5 21.2833 43.5 21V18.4L34.875 27.025C34.6917 27.2083 34.4667 27.3 34.2 27.3C33.9333 27.3 33.7 27.2 33.5 27Z" fill="white"/>
<path d="M61.6172 26.625L64.2969 17.625H66.9062L62.9453 29H61.2266L61.6172 26.625ZM59.1484 17.625L61.8203 26.625L62.2266 29H60.4922L56.5547 17.625H59.1484ZM70.3531 20.5469V29H68.0953V20.5469H70.3531ZM67.9547 18.3438C67.9547 18.0156 68.0693 17.7448 68.2984 17.5312C68.5276 17.3177 68.8349 17.2109 69.2203 17.2109C69.6005 17.2109 69.9052 17.3177 70.1344 17.5312C70.3687 17.7448 70.4859 18.0156 70.4859 18.3438C70.4859 18.6719 70.3687 18.9427 70.1344 19.1562C69.9052 19.3698 69.6005 19.4766 69.2203 19.4766C68.8349 19.4766 68.5276 19.3698 68.2984 19.1562C68.0693 18.9427 67.9547 18.6719 67.9547 18.3438ZM76.2531 29.1562C75.5969 29.1562 75.0083 29.0521 74.4875 28.8438C73.9667 28.6302 73.524 28.3359 73.1594 27.9609C72.8 27.5859 72.524 27.151 72.3313 26.6562C72.1385 26.1562 72.0422 25.625 72.0422 25.0625V24.75C72.0422 24.1094 72.1333 23.5234 72.3156 22.9922C72.4979 22.4609 72.7583 22 73.0969 21.6094C73.4406 21.2188 73.8573 20.9193 74.3469 20.7109C74.8365 20.4974 75.3885 20.3906 76.0031 20.3906C76.6021 20.3906 77.1333 20.4896 77.5969 20.6875C78.0604 20.8854 78.4484 21.1667 78.7609 21.5312C79.0786 21.8958 79.3182 22.3333 79.4797 22.8438C79.6411 23.349 79.7219 23.9115 79.7219 24.5312V25.4688H73.0031V23.9688H77.5109V23.7969C77.5109 23.4844 77.4536 23.2057 77.3391 22.9609C77.2297 22.7109 77.063 22.513 76.8391 22.3672C76.6151 22.2214 76.3286 22.1484 75.9797 22.1484C75.6828 22.1484 75.4276 22.2135 75.2141 22.3438C75.0005 22.474 74.826 22.6562 74.6906 22.8906C74.5604 23.125 74.4615 23.401 74.3938 23.7188C74.3313 24.0312 74.3 24.375 74.3 24.75V25.0625C74.3 25.401 74.3469 25.7135 74.4406 26C74.5396 26.2865 74.6776 26.5339 74.8547 26.7422C75.037 26.9505 75.2557 27.112 75.5109 27.2266C75.7714 27.3411 76.0656 27.3984 76.3938 27.3984C76.8 27.3984 77.1776 27.3203 77.5266 27.1641C77.8807 27.0026 78.1854 26.7604 78.4406 26.4375L79.5344 27.625C79.3573 27.8802 79.1151 28.125 78.8078 28.3594C78.5057 28.5938 78.1411 28.7865 77.7141 28.9375C77.287 29.0833 76.8 29.1562 76.2531 29.1562ZM83.5672 26.8125L85.325 20.5469H86.7547L86.2938 23.0078L84.5359 29H83.3406L83.5672 26.8125ZM82.6766 20.5469L83.9344 26.8047L84.0516 29H82.6453L80.5047 20.5469H82.6766ZM88.3641 26.7031L89.5906 20.5469H91.7703L89.6297 29H88.2313L88.3641 26.7031ZM86.95 20.5469L88.7 26.7656L88.9422 29H87.7391L85.9813 23.0156L85.5359 20.5469H86.95ZM101.75 27.0938V23.3281C101.75 23.0573 101.706 22.8255 101.617 22.6328C101.529 22.4349 101.391 22.2812 101.203 22.1719C101.021 22.0625 100.784 22.0078 100.492 22.0078C100.242 22.0078 100.026 22.0521 99.8438 22.1406C99.6615 22.224 99.5208 22.3464 99.4219 22.5078C99.3229 22.6641 99.2734 22.849 99.2734 23.0625H97.0234C97.0234 22.7031 97.1068 22.362 97.2734 22.0391C97.4401 21.7161 97.6823 21.4323 98 21.1875C98.3177 20.9375 98.6953 20.7422 99.1328 20.6016C99.5755 20.4609 100.07 20.3906 100.617 20.3906C101.273 20.3906 101.857 20.5 102.367 20.7188C102.878 20.9375 103.279 21.2656 103.57 21.7031C103.867 22.1406 104.016 22.6875 104.016 23.3438V26.9609C104.016 27.4245 104.044 27.8047 104.102 28.1016C104.159 28.3932 104.242 28.6484 104.352 28.8672V29H102.078C101.969 28.7708 101.885 28.4844 101.828 28.1406C101.776 27.7917 101.75 27.4427 101.75 27.0938ZM102.047 23.8516L102.062 25.125H100.805C100.508 25.125 100.25 25.1589 100.031 25.2266C99.8125 25.2943 99.6328 25.3906 99.4922 25.5156C99.3516 25.6354 99.2474 25.776 99.1797 25.9375C99.1172 26.099 99.0859 26.276 99.0859 26.4688C99.0859 26.6615 99.1302 26.8359 99.2188 26.9922C99.3073 27.1432 99.4349 27.263 99.6016 27.3516C99.7682 27.4349 99.9635 27.4766 100.188 27.4766C100.526 27.4766 100.82 27.4089 101.07 27.2734C101.32 27.138 101.513 26.9714 101.648 26.7734C101.789 26.5755 101.862 26.388 101.867 26.2109L102.461 27.1641C102.378 27.3776 102.263 27.599 102.117 27.8281C101.977 28.0573 101.797 28.2734 101.578 28.4766C101.359 28.6745 101.096 28.8385 100.789 28.9688C100.482 29.0938 100.117 29.1562 99.6953 29.1562C99.1589 29.1562 98.6719 29.0495 98.2344 28.8359C97.8021 28.6172 97.4583 28.3177 97.2031 27.9375C96.9531 27.5521 96.8281 27.1146 96.8281 26.625C96.8281 26.1823 96.9115 25.7891 97.0781 25.4453C97.2448 25.1016 97.4896 24.8125 97.8125 24.5781C98.1406 24.3385 98.5495 24.1589 99.0391 24.0391C99.5286 23.9141 100.096 23.8516 100.742 23.8516H102.047ZM108.275 17V29H106.017V17H108.275ZM112.659 17V29H110.402V17H112.659ZM121.006 22.3516V29H118.756V20.5469H120.866L121.006 22.3516ZM120.678 24.4766H120.069C120.069 23.8516 120.149 23.2891 120.311 22.7891C120.472 22.2839 120.699 21.8542 120.991 21.5C121.282 21.1406 121.629 20.8672 122.03 20.6797C122.436 20.487 122.889 20.3906 123.389 20.3906C123.785 20.3906 124.147 20.4479 124.475 20.5625C124.803 20.6771 125.084 20.8594 125.319 21.1094C125.558 21.3594 125.741 21.6901 125.866 22.1016C125.996 22.513 126.061 23.0156 126.061 23.6094V29H123.795V23.6016C123.795 23.2266 123.743 22.9349 123.639 22.7266C123.535 22.5182 123.381 22.3724 123.178 22.2891C122.98 22.2005 122.735 22.1562 122.444 22.1562C122.142 22.1562 121.879 22.2161 121.655 22.3359C121.436 22.4557 121.254 22.6224 121.108 22.8359C120.967 23.0443 120.86 23.2891 120.787 23.5703C120.715 23.8516 120.678 24.1536 120.678 24.4766ZM127.562 24.8594V24.6953C127.562 24.0755 127.651 23.5052 127.828 22.9844C128.005 22.4583 128.263 22.0026 128.602 21.6172C128.94 21.2318 129.357 20.9323 129.852 20.7188C130.346 20.5 130.914 20.3906 131.555 20.3906C132.195 20.3906 132.766 20.5 133.266 20.7188C133.766 20.9323 134.185 21.2318 134.523 21.6172C134.867 22.0026 135.128 22.4583 135.305 22.9844C135.482 23.5052 135.57 24.0755 135.57 24.6953V24.8594C135.57 25.474 135.482 26.0443 135.305 26.5703C135.128 27.0911 134.867 27.5469 134.523 27.9375C134.185 28.3229 133.768 28.6224 133.273 28.8359C132.779 29.0495 132.211 29.1562 131.57 29.1562C130.93 29.1562 130.359 29.0495 129.859 28.8359C129.365 28.6224 128.945 28.3229 128.602 27.9375C128.263 27.5469 128.005 27.0911 127.828 26.5703C127.651 26.0443 127.562 25.474 127.562 24.8594ZM129.812 24.6953V24.8594C129.812 25.2135 129.844 25.5443 129.906 25.8516C129.969 26.1589 130.068 26.4297 130.203 26.6641C130.344 26.8932 130.526 27.0729 130.75 27.2031C130.974 27.3333 131.247 27.3984 131.57 27.3984C131.883 27.3984 132.151 27.3333 132.375 27.2031C132.599 27.0729 132.779 26.8932 132.914 26.6641C133.049 26.4297 133.148 26.1589 133.211 25.8516C133.279 25.5443 133.312 25.2135 133.312 24.8594V24.6953C133.312 24.3516 133.279 24.0286 133.211 23.7266C133.148 23.4193 133.047 23.1484 132.906 22.9141C132.771 22.6745 132.591 22.487 132.367 22.3516C132.143 22.2161 131.872 22.1484 131.555 22.1484C131.237 22.1484 130.966 22.2161 130.742 22.3516C130.523 22.487 130.344 22.6745 130.203 22.9141C130.068 23.1484 129.969 23.4193 129.906 23.7266C129.844 24.0286 129.812 24.3516 129.812 24.6953ZM141.244 20.5469V22.1406H136.322V20.5469H141.244ZM137.541 18.4609H139.791V26.4531C139.791 26.6979 139.822 26.8854 139.884 27.0156C139.952 27.1458 140.051 27.237 140.181 27.2891C140.311 27.3359 140.476 27.3594 140.673 27.3594C140.814 27.3594 140.939 27.3542 141.048 27.3438C141.163 27.3281 141.259 27.3125 141.338 27.2969L141.345 28.9531C141.153 29.0156 140.944 29.0651 140.72 29.1016C140.496 29.138 140.249 29.1562 139.978 29.1562C139.483 29.1562 139.051 29.0755 138.681 28.9141C138.317 28.7474 138.035 28.4818 137.838 28.1172C137.64 27.7526 137.541 27.2734 137.541 26.6797V18.4609ZM145.05 20.5469V29H142.792V20.5469H145.05ZM142.652 18.3438C142.652 18.0156 142.766 17.7448 142.995 17.5312C143.224 17.3177 143.532 17.2109 143.917 17.2109C144.297 17.2109 144.602 17.3177 144.831 17.5312C145.066 17.7448 145.183 18.0156 145.183 18.3438C145.183 18.6719 145.066 18.9427 144.831 19.1562C144.602 19.3698 144.297 19.4766 143.917 19.4766C143.532 19.4766 143.224 19.3698 142.995 19.1562C142.766 18.9427 142.652 18.6719 142.652 18.3438ZM149.872 29H147.614V20.1641C147.614 19.4453 147.76 18.8385 148.052 18.3438C148.348 17.849 148.77 17.474 149.317 17.2188C149.869 16.9635 150.536 16.8359 151.317 16.8359C151.76 16.8359 152.19 16.8802 152.606 16.9688C153.023 17.0521 153.453 17.1615 153.895 17.2969L153.567 19.1016C153.281 19.013 152.973 18.9297 152.645 18.8516C152.317 18.7734 151.921 18.7344 151.458 18.7344C150.937 18.7344 150.541 18.8568 150.27 19.1016C150.005 19.3411 149.872 19.6953 149.872 20.1641V29ZM151.552 20.5469V22.1406H146.356V20.5469H151.552ZM154.942 20.5469V29H152.684V20.5469H154.942ZM160.467 27.3984C160.743 27.3984 160.988 27.3464 161.202 27.2422C161.415 27.1328 161.582 26.9818 161.702 26.7891C161.827 26.5911 161.892 26.3594 161.897 26.0938H164.014C164.009 26.6875 163.85 27.2161 163.537 27.6797C163.225 28.138 162.806 28.5 162.28 28.7656C161.754 29.026 161.165 29.1562 160.514 29.1562C159.858 29.1562 159.285 29.0469 158.795 28.8281C158.311 28.6094 157.907 28.3073 157.584 27.9219C157.261 27.5312 157.019 27.0781 156.858 26.5625C156.696 26.0417 156.616 25.4844 156.616 24.8906V24.6641C156.616 24.0651 156.696 23.5078 156.858 22.9922C157.019 22.4714 157.261 22.0182 157.584 21.6328C157.907 21.2422 158.311 20.9375 158.795 20.7188C159.28 20.5 159.847 20.3906 160.498 20.3906C161.191 20.3906 161.798 20.5234 162.319 20.7891C162.845 21.0547 163.256 21.4349 163.553 21.9297C163.855 22.4193 164.009 23 164.014 23.6719H161.897C161.892 23.3906 161.832 23.1354 161.717 22.9062C161.608 22.6771 161.446 22.4948 161.233 22.3594C161.024 22.2188 160.767 22.1484 160.459 22.1484C160.131 22.1484 159.863 22.2188 159.655 22.3594C159.446 22.4948 159.285 22.6823 159.17 22.9219C159.056 23.1562 158.975 23.4245 158.928 23.7266C158.886 24.0234 158.866 24.3359 158.866 24.6641V24.8906C158.866 25.2188 158.886 25.5339 158.928 25.8359C158.97 26.138 159.048 26.4062 159.162 26.6406C159.282 26.875 159.446 27.0599 159.655 27.1953C159.863 27.3307 160.134 27.3984 160.467 27.3984ZM170.031 27.0938V23.3281C170.031 23.0573 169.987 22.8255 169.898 22.6328C169.81 22.4349 169.672 22.2812 169.484 22.1719C169.302 22.0625 169.065 22.0078 168.773 22.0078C168.523 22.0078 168.307 22.0521 168.125 22.1406C167.943 22.224 167.802 22.3464 167.703 22.5078C167.604 22.6641 167.555 22.849 167.555 23.0625H165.305C165.305 22.7031 165.388 22.362 165.555 22.0391C165.721 21.7161 165.964 21.4323 166.281 21.1875C166.599 20.9375 166.977 20.7422 167.414 20.6016C167.857 20.4609 168.352 20.3906 168.898 20.3906C169.555 20.3906 170.138 20.5 170.648 20.7188C171.159 20.9375 171.56 21.2656 171.852 21.7031C172.148 22.1406 172.297 22.6875 172.297 23.3438V26.9609C172.297 27.4245 172.326 27.8047 172.383 28.1016C172.44 28.3932 172.523 28.6484 172.633 28.8672V29H170.359C170.25 28.7708 170.167 28.4844 170.109 28.1406C170.057 27.7917 170.031 27.4427 170.031 27.0938ZM170.328 23.8516L170.344 25.125H169.086C168.789 25.125 168.531 25.1589 168.312 25.2266C168.094 25.2943 167.914 25.3906 167.773 25.5156C167.633 25.6354 167.529 25.776 167.461 25.9375C167.398 26.099 167.367 26.276 167.367 26.4688C167.367 26.6615 167.411 26.8359 167.5 26.9922C167.589 27.1432 167.716 27.263 167.883 27.3516C168.049 27.4349 168.245 27.4766 168.469 27.4766C168.807 27.4766 169.102 27.4089 169.352 27.2734C169.602 27.138 169.794 26.9714 169.93 26.7734C170.07 26.5755 170.143 26.388 170.148 26.2109L170.742 27.1641C170.659 27.3776 170.544 27.599 170.398 27.8281C170.258 28.0573 170.078 28.2734 169.859 28.4766C169.641 28.6745 169.378 28.8385 169.07 28.9688C168.763 29.0938 168.398 29.1562 167.977 29.1562C167.44 29.1562 166.953 29.0495 166.516 28.8359C166.083 28.6172 165.74 28.3177 165.484 27.9375C165.234 27.5521 165.109 27.1146 165.109 26.625C165.109 26.1823 165.193 25.7891 165.359 25.4453C165.526 25.1016 165.771 24.8125 166.094 24.5781C166.422 24.3385 166.831 24.1589 167.32 24.0391C167.81 23.9141 168.378 23.8516 169.023 23.8516H170.328ZM178.322 20.5469V22.1406H173.4V20.5469H178.322ZM174.619 18.4609H176.869V26.4531C176.869 26.6979 176.9 26.8854 176.963 27.0156C177.03 27.1458 177.129 27.237 177.259 27.2891C177.39 27.3359 177.554 27.3594 177.752 27.3594C177.892 27.3594 178.017 27.3542 178.127 27.3438C178.241 27.3281 178.338 27.3125 178.416 27.2969L178.423 28.9531C178.231 29.0156 178.022 29.0651 177.798 29.1016C177.574 29.138 177.327 29.1562 177.056 29.1562C176.561 29.1562 176.129 29.0755 175.759 28.9141C175.395 28.7474 175.114 28.4818 174.916 28.1172C174.718 27.7526 174.619 27.2734 174.619 26.6797V18.4609ZM182.128 20.5469V29H179.87V20.5469H182.128ZM179.73 18.3438C179.73 18.0156 179.844 17.7448 180.073 17.5312C180.303 17.3177 180.61 17.2109 180.995 17.2109C181.376 17.2109 181.68 17.3177 181.909 17.5312C182.144 17.7448 182.261 18.0156 182.261 18.3438C182.261 18.6719 182.144 18.9427 181.909 19.1562C181.68 19.3698 181.376 19.4766 180.995 19.4766C180.61 19.4766 180.303 19.3698 180.073 19.1562C179.844 18.9427 179.73 18.6719 179.73 18.3438ZM183.778 24.8594V24.6953C183.778 24.0755 183.867 23.5052 184.044 22.9844C184.221 22.4583 184.479 22.0026 184.817 21.6172C185.156 21.2318 185.572 20.9323 186.067 20.7188C186.562 20.5 187.13 20.3906 187.77 20.3906C188.411 20.3906 188.981 20.5 189.481 20.7188C189.981 20.9323 190.401 21.2318 190.739 21.6172C191.083 22.0026 191.343 22.4583 191.52 22.9844C191.697 23.5052 191.786 24.0755 191.786 24.6953V24.8594C191.786 25.474 191.697 26.0443 191.52 26.5703C191.343 27.0911 191.083 27.5469 190.739 27.9375C190.401 28.3229 189.984 28.6224 189.489 28.8359C188.994 29.0495 188.427 29.1562 187.786 29.1562C187.145 29.1562 186.575 29.0495 186.075 28.8359C185.58 28.6224 185.161 28.3229 184.817 27.9375C184.479 27.5469 184.221 27.0911 184.044 26.5703C183.867 26.0443 183.778 25.474 183.778 24.8594ZM186.028 24.6953V24.8594C186.028 25.2135 186.059 25.5443 186.122 25.8516C186.184 26.1589 186.283 26.4297 186.419 26.6641C186.559 26.8932 186.742 27.0729 186.966 27.2031C187.19 27.3333 187.463 27.3984 187.786 27.3984C188.098 27.3984 188.367 27.3333 188.591 27.2031C188.815 27.0729 188.994 26.8932 189.13 26.6641C189.265 26.4297 189.364 26.1589 189.427 25.8516C189.494 25.5443 189.528 25.2135 189.528 24.8594V24.6953C189.528 24.3516 189.494 24.0286 189.427 23.7266C189.364 23.4193 189.262 23.1484 189.122 22.9141C188.986 22.6745 188.807 22.487 188.583 22.3516C188.359 22.2161 188.088 22.1484 187.77 22.1484C187.453 22.1484 187.182 22.2161 186.958 22.3516C186.739 22.487 186.559 22.6745 186.419 22.9141C186.283 23.1484 186.184 23.4193 186.122 23.7266C186.059 24.0286 186.028 24.3516 186.028 24.6953ZM195.522 22.3516V29H193.272V20.5469H195.381L195.522 22.3516ZM195.194 24.4766H194.584C194.584 23.8516 194.665 23.2891 194.827 22.7891C194.988 22.2839 195.215 21.8542 195.506 21.5C195.798 21.1406 196.144 20.8672 196.545 20.6797C196.952 20.487 197.405 20.3906 197.905 20.3906C198.301 20.3906 198.663 20.4479 198.991 20.5625C199.319 20.6771 199.6 20.8594 199.834 21.1094C200.074 21.3594 200.256 21.6901 200.381 22.1016C200.511 22.513 200.577 23.0156 200.577 23.6094V29H198.311V23.6016C198.311 23.2266 198.259 22.9349 198.155 22.7266C198.051 22.5182 197.897 22.3724 197.694 22.2891C197.496 22.2005 197.251 22.1562 196.959 22.1562C196.657 22.1562 196.394 22.2161 196.17 22.3359C195.952 22.4557 195.769 22.6224 195.623 22.8359C195.483 23.0443 195.376 23.2891 195.303 23.5703C195.23 23.8516 195.194 24.1536 195.194 24.4766Z" fill="white"/>
</svg>
